courier-code_regular.sfdir
StartChar: exclam
Encoding: 33 33 4
Width: 602
Flags: W
LayerCount: 2
Back
Fore
SplineSet
210 67 m 128,-1,1
 210 101 210 101 235 122.5 c 128,-1,2
 260 144 260 144 301 144 c 128,-1,3
 342 144 342 144 367 122.5 c 128,-1,4
 392 101 392 101 392 67 c 128,-1,5
 392 33 392 33 367 11 c 128,-1,6
 342 -11 342 -11 301 -11 c 128,-1,7
 260 -11 260 -11 235 11 c 128,-1,0
 210 33 210 33 210 67 c 128,-1,1
244 546 m 1,8,9
 244 546 244 546 244 551 c 0,10,11
 244 579 244 579 259.5 595.5 c 128,-1,12
 275 612 275 612 301 612 c 128,-1,13
 327 612 327 612 342.5 595.5 c 128,-1,14
 358 579 358 579 358 551 c 2,15,-1
 358 546 l 1,16,-1
 341 229 l 2,17,18
 340 213 340 213 329 202.5 c 128,-1,19
 318 192 318 192 301 192 c 128,-1,20
 284 192 284 192 273 202.5 c 128,-1,21
 262 213 262 213 261 229 c 2,22,-1
 244 546 l 1,8,9
EndSplineSet
EndChar
StartChar: dollar
Encoding: 36 36 7
Width: 602
Flags: W
LayerCount: 2
Back
Fore
SplineSet
359 337 m 2,0,1
 497 292 497 292 497 183 c 0,2,3
 497 120 497 120 450 79 c 128,-1,4
 403 38 403 38 320 33 c 1,5,-1
 314 -80 l 2,6,7
 312 -122 312 -122 278 -122 c 0,8,9
 260 -122 260 -122 252.5 -113 c 128,-1,10
 245 -104 245 -104 245 -84 c 2,11,-1
 245 -74 l 1,12,-1
 251 36 l 1,13,14
 212 43 212 43 175 69 c 1,15,16
 160 47 160 47 140 47 c 0,17,18
 121 47 121 47 109.5 60 c 128,-1,19
 98 73 98 73 98 95 c 2,20,-1
 98 163 l 2,21,22
 98 180 98 180 109 191.5 c 128,-1,23
 120 203 120 203 138 203 c 0,24,25
 155 203 155 203 164 194.5 c 128,-1,26
 173 186 173 186 178 169 c 128,-1,27
 183 152 183 152 185 149 c 0,28,29
 195 132 195 132 232 116.5 c 128,-1,30
 269 101 269 101 311 101 c 0,31,32
 357 101 357 101 385 122.5 c 128,-1,33
 413 144 413 144 413 178 c 0,34,35
 413 214 413 214 388.5 232 c 128,-1,36
 364 250 364 250 304 271 c 2,37,-1
 219 300 l 2,38,39
 169 317 169 317 140 356 c 128,-1,40
 111 395 111 395 111 443 c 0,41,42
 111 505 111 505 153.5 544 c 128,-1,43
 196 583 196 583 275 589 c 1,44,-1
 278 626 l 2,45,46
 281 666 281 666 314 666 c 0,47,48
 348 666 348 666 348 631 c 2,49,-1
 348 625 l 1,50,-1
 345 586 l 1,51,52
 382 576 382 576 414 561 c 1,53,54
 428 578 428 578 442 578 c 0,55,56
 461 578 461 578 468.5 568.5 c 128,-1,57
 476 559 476 559 476 538 c 2,58,-1
 476 478 l 2,59,60
 476 441 476 441 442 441 c 0,61,62
 431 441 431 441 423.5 445.5 c 128,-1,63
 416 450 416 450 413.5 453.5 c 128,-1,64
 411 457 411 457 406 468.5 c 128,-1,65
 401 480 401 480 399 483 c 0,66,67
 378 525 378 525 301 525 c 0,68,69
 250 525 250 525 221 503.5 c 128,-1,70
 192 482 192 482 192 448 c 0,71,72
 192 392 192 392 265 368 c 2,73,-1
 359 337 l 2,0,1
EndSplineSet
EndChar
StartChar: ampersand
Encoding: 38 38 9
Width: 602
Flags: W
LayerCount: 2
Back
Fore
SplineSet
341 103 m 1,0,-1
 232 251 l 1,1,2
 175 212 175 212 175 156 c 0,3,4
 175 118 175 118 200 91.5 c 128,-1,5
 225 65 225 65 261 65 c 0,6,7
 300 65 300 65 341 103 c 1,0,-1
384 46 m 1,8,9
 318 -11 318 -11 241 -11 c 0,10,11
 176 -11 176 -11 132.5 34 c 128,-1,12
 89 79 89 79 89 147 c 0,13,14
 89 195 89 195 113 233 c 128,-1,15
 137 271 137 271 189 310 c 1,16,17
 143 376 143 376 143 425 c 0,18,19
 143 476 143 476 181 511.5 c 128,-1,20
 219 547 219 547 274 547 c 0,21,22
 309 547 309 547 362 519 c 0,23,24
 366 520 366 520 374 520 c 0,25,26
 407 520 407 520 407 491 c 0,27,28
 407 474 407 474 394.5 460 c 128,-1,29
 382 446 382 446 369 446 c 0,30,31
 360 446 360 446 330 464 c 128,-1,32
 300 482 300 482 278 482 c 0,33,34
 253 482 253 482 237 467 c 128,-1,35
 221 452 221 452 221 429 c 0,36,37
 221 416 221 416 228 400.5 c 128,-1,38
 235 385 235 385 242 374.5 c 128,-1,39
 249 364 249 364 265 341 c 2,40,-1
 386 175 l 1,41,42
 395 198 395 198 403 231.5 c 128,-1,43
 411 265 411 265 418.5 277.5 c 128,-1,44
 426 290 426 290 444 290 c 2,45,-1
 474 290 l 2,46,47
 484 290 484 290 492.5 279.5 c 128,-1,48
 501 269 501 269 501 253 c 0,49,50
 501 235 501 235 495 227.5 c 128,-1,51
 489 220 489 220 470 216 c 1,52,53
 459 169 459 169 433 114 c 1,54,-1
 463 72 l 1,55,-1
 475 72 l 2,56,57
 496 72 496 72 496 39 c 0,58,59
 496 0 496 0 471 0 c 2,60,-1
 430 0 l 2,61,62
 428 0 428 0 425.5 0.5 c 128,-1,63
 423 1 423 1 421.5 2 c 128,-1,64
 420 3 420 3 417.5 5 c 128,-1,65
 415 7 415 7 413.5 8 c 128,-1,66
 412 9 412 9 410 12 c 128,-1,67
 408 15 408 15 407 16.5 c 128,-1,68
 406 18 406 18 403 21.5 c 128,-1,69
 400 25 400 25 399 27 c 2,70,-1
 384 46 l 1,8,9
EndSplineSet
EndChar
StartChar: quotesingle
Encoding: 39 39 106
Width: 602
Flags: W
LayerCount: 2
Back
Fore
SplineSet
285 331 m 2,0,1
 271 331 271 331 266 337.5 c 128,-1,2
 261 344 261 344 259 362 c 2,3,-1
 244 548 l 1,4,-1
 244 554 l 2,5,6
 244 579 244 579 267 579 c 2,7,-1
 334 579 l 2,8,9
 358 579 358 579 358 554 c 2,10,11
 358 554 358 554 358 548 c 2,12,-1
 342 362 l 2,13,14
 340 344 340 344 335 337.5 c 128,-1,15
 330 331 330 331 316 331 c 2,16,-1
 285 331 l 2,0,1
EndSplineSet
EndChar
StartChar: parenleft
Encoding: 40 40 11
Width: 602
Flags: W
LayerCount: 2
Back
Fore
SplineSet
400 574 m 0,0,1
 400 566 400 566 395 554 c 128,-1,2
 390 542 390 542 378.5 518 c 128,-1,3
 367 494 367 494 359 476 c 0,4,5
 298 331 298 331 298 200 c 0,6,7
 298 78 298 78 345 -43 c 0,8,9
 356 -71 356 -71 371 -102 c 128,-1,10
 386 -133 386 -133 393 -149 c 128,-1,11
 400 -165 400 -165 400 -173 c 0,12,13
 400 -196 400 -196 381 -196 c 0,14,15
 345 -196 345 -196 288 -103 c 0,16,17
 202 36 202 36 202 200 c 128,-1,18
 202 364 202 364 288 503 c 0,19,20
 345 596 345 596 381 596 c 0,21,22
 400 596 400 596 400 574 c 0,0,1
EndSplineSet
EndChar
StartChar: parenright
Encoding: 41 41 12
Width: 602
Flags: W
LayerCount: 2
Back
Fore
SplineSet
201 -173 m 0,0,1
 201 -166 201 -166 206.5 -153.5 c 128,-1,2
 212 -141 212 -141 223.5 -118 c 128,-1,3
 235 -95 235 -95 243 -76 c 0,4,5
 303 66 303 66 303 200 c 0,6,7
 303 323 303 323 256 444 c 0,8,9
 245 472 245 472 230 503 c 128,-1,10
 215 534 215 534 208 550 c 128,-1,11
 201 566 201 566 201 574 c 0,12,13
 201 596 201 596 220 596 c 0,14,15
 256 596 256 596 313 503 c 0,16,17
 400 362 400 362 400 200 c 128,-1,18
 400 38 400 38 313 -103 c 0,19,20
 256 -196 256 -196 220 -196 c 0,21,22
 201 -196 201 -196 201 -173 c 0,0,1
EndSplineSet
EndChar
StartChar: comma
Encoding: 44 44 15
Width: 602
Flags: W
LayerCount: 2
Back
Fore
SplineSet
243 136 m 2,0,1
 247 152 247 152 253 157 c 128,-1,2
 259 162 259 162 275 162 c 2,3,-1
 382 162 l 2,4,5
 398 162 398 162 398 152 c 0,6,7
 398 146 398 146 394 138 c 2,8,-1
 260 -141 l 2,9,10
 252 -157 252 -157 238 -157 c 0,11,12
 235 -157 235 -157 229 -155 c 2,13,-1
 194 -142 l 2,14,15
 179 -136 179 -136 179 -124 c 0,16,17
 179 -116 179 -116 180 -112 c 2,18,-1
 243 136 l 2,0,1
EndSplineSet
EndChar
StartChar: hyphen
Encoding: 45 45 16
Width: 602
Flags: W
LayerCount: 2
Back
Fore
SplineSet
97 178 m 2,0,1
 76 178 76 178 76 201 c 2,2,-1
 76 253 l 2,3,4
 76 273 76 273 97 273 c 2,5,-1
 502 273 l 2,6,7
 525 273 525 273 525 253 c 2,8,-1
 525 201 l 2,9,10
 525 192 525 192 518 185 c 128,-1,11
 511 178 511 178 502 178 c 2,12,-1
 97 178 l 2,0,1
EndSplineSet
EndChar
StartChar: period
Encoding: 46 46 17
Width: 602
Flags: W
LayerCount: 2
Back
Fore
SplineSet
205 80 m 128,-1,1
 205 118 205 118 231.5 142.5 c 128,-1,2
 258 167 258 167 301 167 c 128,-1,3
 344 167 344 167 370.5 143 c 128,-1,4
 397 119 397 119 397 80 c 128,-1,5
 397 41 397 41 370.5 17 c 128,-1,6
 344 -7 344 -7 301 -7 c 128,-1,7
 258 -7 258 -7 231.5 17.5 c 128,-1,0
 205 42 205 42 205 80 c 128,-1,1
EndSplineSet
EndChar
StartChar: zero
Encoding: 48 48 19
Width: 602
Flags: W
LayerCount: 2
Back
Fore
SplineSet
250 308.5 m 128,-1,1
 250 330 250 330 265 345 c 128,-1,2
 280 360 280 360 301 360 c 128,-1,3
 322 360 322 360 337 344.5 c 128,-1,4
 352 329 352 329 352 308 c 128,-1,5
 352 287 352 287 337 272 c 128,-1,6
 322 257 322 257 301 257 c 128,-1,7
 280 257 280 257 265 272 c 128,-1,0
 250 287 250 287 250 308.5 c 128,-1,1
301 -16 m 128,-1,9
 210 -16 210 -16 155.5 69.5 c 128,-1,10
 101 155 101 155 101 308 c 128,-1,11
 101 461 101 461 155.5 546.5 c 128,-1,12
 210 632 210 632 301 632 c 128,-1,13
 392 632 392 632 446.5 546.5 c 128,-1,14
 501 461 501 461 501 308 c 128,-1,15
 501 155 501 155 446.5 69.5 c 128,-1,8
 392 -16 392 -16 301 -16 c 128,-1,9
301 562 m 128,-1,17
 246 562 246 562 214 496.5 c 128,-1,18
 182 431 182 431 182 308 c 0,19,20
 182 184 182 184 214 118.5 c 128,-1,21
 246 53 246 53 301 53 c 128,-1,22
 356 53 356 53 387.5 118.5 c 128,-1,23
 419 184 419 184 419 308 c 128,-1,24
 419 432 419 432 387.5 497 c 128,-1,16
 356 562 356 562 301 562 c 128,-1,17
EndSplineSet
EndChar
StartChar: one
Encoding: 49 49 20
Width: 602
Flags: W
LayerCount: 2
Back
Fore
SplineSet
184 524 m 2,0,1
 174 522 174 522 169 522 c 0,2,3
 153 522 153 522 144 530.5 c 128,-1,4
 135 539 135 539 135 553 c 0,5,6
 135 578 135 578 167 587 c 2,7,-1
 312 626 l 2,8,9
 324 629 324 629 333 629 c 0,10,11
 353 629 353 629 353 597 c 2,12,-1
 353 69 l 1,13,-1
 431 69 l 2,14,15
 470 69 470 69 484 63 c 128,-1,16
 498 57 498 57 498 35 c 0,17,18
 498 0 498 0 459 0 c 2,19,-1
 167 0 l 2,20,21
 128 0 128 0 128 35 c 0,22,23
 128 57 128 57 142 63 c 128,-1,24
 156 69 156 69 195 69 c 2,25,-1
 276 69 l 1,26,-1
 276 546 l 1,27,-1
 184 524 l 2,0,1
EndSplineSet
EndChar
StartChar: two
Encoding: 50 50 21
Width: 602
Flags: W
LayerCount: 2
Back
Fore
SplineSet
131 0 m 2,0,1
 80 0 80 0 80 43 c 0,2,3
 80 58 80 58 92 76 c 128,-1,4
 104 94 104 94 118 108.5 c 128,-1,5
 132 123 132 123 167 156 c 0,6,7
 181 169 181 169 188 176 c 0,8,9
 201 188 201 188 225 210.5 c 128,-1,10
 249 233 249 233 259.5 243 c 128,-1,11
 270 253 270 253 289.5 272 c 128,-1,12
 309 291 309 291 317.5 300.5 c 128,-1,13
 326 310 326 310 340.5 326 c 128,-1,14
 355 342 355 342 361.5 351.5 c 128,-1,15
 368 361 368 361 376.5 375 c 128,-1,16
 385 389 385 389 388.5 399.5 c 128,-1,17
 392 410 392 410 395 422.5 c 128,-1,18
 398 435 398 435 398 447 c 0,19,20
 398 499 398 499 368 531.5 c 128,-1,21
 338 564 338 564 291 564 c 0,22,23
 223 564 223 564 187 517 c 1,24,-1
 178 500 l 2,25,26
 168 484 168 484 158.5 478 c 128,-1,27
 149 472 149 472 134 472 c 0,28,29
 117 472 117 472 111 484 c 128,-1,30
 105 496 105 496 105 523 c 128,-1,31
 105 550 105 550 121 566 c 0,32,33
 189 632 189 632 293 632 c 0,34,35
 374 632 374 632 428.5 580 c 128,-1,36
 483 528 483 528 483 451 c 0,37,38
 483 423 483 423 474 395.5 c 128,-1,39
 465 368 465 368 452.5 346.5 c 128,-1,40
 440 325 440 325 414 296 c 128,-1,41
 388 267 388 267 369 248 c 128,-1,42
 350 229 350 229 312 193 c 128,-1,43
 274 157 274 157 252 135 c 2,44,-1
 192 77 l 1,45,-1
 415 77 l 1,46,47
 419 120 419 120 452 120 c 0,48,49
 487 120 487 120 487 80 c 0,50,51
 487 78 487 78 486.5 75 c 128,-1,52
 486 72 486 72 486 70 c 2,53,-1
 481 32 l 2,54,55
 478 0 478 0 453 0 c 2,56,-1
 131 0 l 2,0,1
EndSplineSet
EndChar
StartChar: three
Encoding: 51 51 22
Width: 602
Flags: W
LayerCount: 2
Back
Fore
SplineSet
377 336 m 1,0,1
 435 320 435 320 466 279 c 128,-1,2
 497 238 497 238 497 178 c 0,3,4
 497 94 497 94 437 39 c 128,-1,5
 377 -16 377 -16 280 -16 c 0,6,7
 204 -16 204 -16 147 12.5 c 128,-1,8
 90 41 90 41 90 75 c 0,9,10
 90 90 90 90 100.5 99.5 c 128,-1,11
 111 109 111 109 126 109 c 0,12,13
 134 109 134 109 186 84 c 128,-1,14
 238 59 238 59 283 59 c 0,15,16
 342 59 342 59 378 92.5 c 128,-1,17
 414 126 414 126 414 178 c 0,18,19
 414 222 414 222 389 252 c 128,-1,20
 364 282 364 282 320 290 c 0,21,22
 308 292 308 292 293.5 293 c 128,-1,23
 279 294 279 294 271.5 295 c 128,-1,24
 264 296 264 296 256.5 299 c 128,-1,25
 249 302 249 302 246.5 308.5 c 128,-1,26
 244 315 244 315 244 328 c 0,27,28
 244 337 244 337 245.5 342.5 c 128,-1,29
 247 348 247 348 249.5 351.5 c 128,-1,30
 252 355 252 355 258.5 357 c 128,-1,31
 265 359 265 359 270 360 c 128,-1,32
 275 361 275 361 287.5 362 c 128,-1,33
 300 363 300 363 310 365 c 0,34,35
 348 371 348 371 371.5 396.5 c 128,-1,36
 395 422 395 422 395 458 c 0,37,38
 395 505 395 505 366.5 534.5 c 128,-1,39
 338 564 338 564 294 564 c 0,40,41
 253 564 253 564 209 538 c 128,-1,42
 165 512 165 512 155 512 c 0,43,44
 141 512 141 512 132 521 c 128,-1,45
 123 530 123 530 123 543 c 0,46,47
 123 571 123 571 176.5 601.5 c 128,-1,48
 230 632 230 632 299 632 c 0,49,50
 376 632 376 632 426 585.5 c 128,-1,51
 476 539 476 539 476 472 c 0,52,53
 476 371 476 371 377 336 c 1,0,1
EndSplineSet
EndChar
StartChar: four
Encoding: 52 52 23
Width: 602
Flags: W
LayerCount: 2
Back
Fore
SplineSet
289 0 m 2,0,1
 267 0 267 0 258 7.5 c 128,-1,2
 249 15 249 15 249 35 c 0,3,4
 249 69 249 69 285 69 c 2,5,-1
 342 69 l 1,6,-1
 342 151 l 1,7,-1
 114 151 l 2,8,9
 88 151 88 151 88 181 c 2,10,-1
 88 215 l 2,11,12
 88 233 88 233 106 262 c 2,13,-1
 312 612 l 2,14,15
 322 630 322 630 336 630 c 0,16,17
 344 630 344 630 349 629 c 2,18,-1
 399 621 l 2,19,20
 414 618 414 618 414 596 c 2,21,-1
 414 225 l 1,22,-1
 439 225 l 2,23,24
 449 225 449 225 455 233.5 c 128,-1,25
 461 242 461 242 469 242 c 0,26,27
 479 242 479 242 485.5 235 c 128,-1,28
 492 228 492 228 492 218 c 0,29,30
 492 209 492 209 490 201 c 2,31,-1
 486 181 l 2,32,33
 483 164 483 164 476.5 157.5 c 128,-1,34
 470 151 470 151 455 151 c 2,35,-1
 414 151 l 1,36,-1
 414 69 l 1,37,-1
 431 69 l 2,38,39
 461 69 461 69 473.5 62 c 128,-1,40
 486 55 486 55 486 35 c 0,41,42
 486 0 486 0 447 0 c 2,43,-1
 289 0 l 2,0,1
342 225 m 1,44,-1
 342 556 l 1,45,-1
 157 225 l 1,46,-1
 342 225 l 1,44,-1
EndSplineSet
EndChar
StartChar: five
Encoding: 53 53 24
Width: 602
Flags: W
LayerCount: 2
Back
Fore
SplineSet
191 382 m 1,0,1
 254 405 254 405 303 405 c 0,2,3
 389 405 389 405 445.5 346 c 128,-1,4
 502 287 502 287 502 199 c 0,5,6
 502 106 502 106 439.5 45 c 128,-1,7
 377 -16 377 -16 278 -16 c 0,8,9
 194 -16 194 -16 139.5 6.5 c 128,-1,10
 85 29 85 29 85 60 c 0,11,12
 85 73 85 73 95 83 c 128,-1,13
 105 93 105 93 119 93 c 0,14,15
 125 93 125 93 177 74 c 128,-1,16
 229 55 229 55 273 55 c 0,17,18
 339 55 339 55 379.5 94.5 c 128,-1,19
 420 134 420 134 420 196 c 0,20,21
 420 256 420 256 381 296.5 c 128,-1,22
 342 337 342 337 284 337 c 0,23,24
 240 337 240 337 198 315 c 128,-1,25
 156 293 156 293 147 293 c 0,26,27
 130 293 130 293 125 305 c 128,-1,28
 120 317 120 317 120 343 c 2,29,-1
 120 586 l 2,30,31
 120 603 120 603 130.5 609.5 c 128,-1,32
 141 616 141 616 165 616 c 2,33,-1
 412 616 l 2,34,35
 459 616 459 616 459 578 c 128,-1,36
 459 540 459 540 412 540 c 2,37,-1
 191 540 l 1,38,-1
 191 382 l 1,0,1
EndSplineSet
EndChar
StartChar: six
Encoding: 54 54 25
Width: 602
Flags: W
LayerCount: 2
Back
Fore
SplineSet
185 320 m 1,0,1
 238 388 238 388 314 388 c 128,-1,2
 390 388 390 388 444.5 330.5 c 128,-1,3
 499 273 499 273 499 187 c 0,4,5
 499 98 499 98 447 41 c 128,-1,6
 395 -16 395 -16 313 -16 c 0,7,8
 217 -16 217 -16 159 60 c 128,-1,9
 101 136 101 136 101 264 c 0,10,11
 101 431 101 431 186.5 531.5 c 128,-1,12
 272 632 272 632 412 632 c 0,13,14
 457 632 457 632 473.5 625.5 c 128,-1,15
 490 619 490 619 490 599 c 0,16,17
 490 586 490 586 484.5 579 c 128,-1,18
 479 572 479 572 467.5 570 c 128,-1,19
 456 568 456 568 443 567.5 c 128,-1,20
 430 567 430 567 409.5 566 c 128,-1,21
 389 565 389 565 371 562 c 0,22,23
 295 548 295 548 246.5 485.5 c 128,-1,24
 198 423 198 423 185 320 c 1,0,1
196 190 m 0,25,26
 196 129 196 129 228 91.5 c 128,-1,27
 260 54 260 54 309 54 c 0,28,29
 356 54 356 54 386 89.5 c 128,-1,30
 416 125 416 125 416 183 c 0,31,32
 416 243 416 243 384.5 280 c 128,-1,33
 353 317 353 317 305 317 c 0,34,35
 258 317 258 317 227 281.5 c 128,-1,36
 196 246 196 246 196 190 c 0,25,26
EndSplineSet
EndChar
StartChar: seven
Encoding: 55 55 26
Width: 602
Flags: W
LayerCount: 2
Back
Fore
SplineSet
308 10 m 2,0,1
 304 -3 304 -3 300.5 -6 c 128,-1,2
 297 -9 297 -9 288 -9 c 2,3,-1
 280 -9 l 1,4,-1
 245 -9 l 2,5,6
 224 -9 224 -9 224 6 c 0,7,8
 224 13 224 13 227 22 c 2,9,-1
 419 543 l 1,10,-1
 171 543 l 1,11,12
 168 498 168 498 135 498 c 128,-1,13
 102 498 102 498 102 531 c 0,14,15
 102 539 102 539 103 544 c 2,16,-1
 108 588 l 2,17,18
 111 616 111 616 141 616 c 2,19,-1
 464 616 l 2,20,21
 491 616 491 616 491 591 c 2,22,-1
 491 574 l 2,23,24
 491 563 491 563 481 533 c 2,25,-1
 308 10 l 2,0,1
EndSplineSet
EndChar
StartChar: eight
Encoding: 56 56 27
Width: 602
Flags: W
LayerCount: 2
Back
Fore
SplineSet
203 316 m 1,0,1
 108 364 108 364 108 459 c 0,2,3
 108 534 108 534 162 583 c 128,-1,4
 216 632 216 632 301 632 c 128,-1,5
 386 632 386 632 440 582 c 128,-1,6
 494 532 494 532 494 459 c 0,7,8
 494 362 494 362 398 316 c 1,9,10
 500 274 500 274 500 166 c 0,11,12
 500 86 500 86 444.5 35 c 128,-1,13
 389 -16 389 -16 301 -16 c 0,14,15
 212 -16 212 -16 157 35.5 c 128,-1,16
 102 87 102 87 102 168 c 0,17,18
 102 272 102 272 203 316 c 1,0,1
187 459 m 128,-1,20
 187 411 187 411 219 380 c 128,-1,21
 251 349 251 349 301 349 c 128,-1,22
 351 349 351 349 383 380 c 128,-1,23
 415 411 415 411 415 460 c 0,24,25
 415 506 415 506 383.5 537 c 128,-1,26
 352 568 352 568 301 568 c 128,-1,27
 250 568 250 568 218.5 537.5 c 128,-1,19
 187 507 187 507 187 459 c 128,-1,20
182 166 m 0,28,29
 182 116 182 116 214.5 84 c 128,-1,30
 247 52 247 52 301 52 c 128,-1,31
 355 52 355 52 387.5 83 c 128,-1,32
 420 114 420 114 420 166 c 0,33,34
 420 217 420 217 387 248.5 c 128,-1,35
 354 280 354 280 301 280 c 128,-1,36
 248 280 248 280 215 249 c 128,-1,37
 182 218 182 218 182 166 c 0,28,29
EndSplineSet
EndChar
StartChar: nine
Encoding: 57 57 28
Width: 602
Flags: W
LayerCount: 2
Back
Fore
SplineSet
402 426 m 0,0,1
 402 487 402 487 369.5 524.5 c 128,-1,2
 337 562 337 562 288 562 c 0,3,4
 242 562 242 562 212 526.5 c 128,-1,5
 182 491 182 491 182 433 c 0,6,7
 182 373 182 373 213 336 c 128,-1,8
 244 299 244 299 292 299 c 0,9,10
 338 299 338 299 370 335 c 128,-1,11
 402 371 402 371 402 426 c 0,0,1
412 295 m 1,12,13
 358 228 358 228 284 228 c 0,14,15
 208 228 208 228 153.5 285 c 128,-1,16
 99 342 99 342 99 428 c 0,17,18
 99 517 99 517 151 574.5 c 128,-1,19
 203 632 203 632 284 632 c 0,20,21
 379 632 379 632 438 556 c 128,-1,22
 497 480 497 480 497 351 c 0,23,24
 497 184 497 184 411.5 84 c 128,-1,25
 326 -16 326 -16 182 -16 c 0,26,27
 139 -16 139 -16 123 -9.5 c 128,-1,28
 107 -3 107 -3 107 16 c 0,29,30
 107 37 107 37 119.5 43 c 128,-1,31
 132 49 132 49 168 49.5 c 128,-1,32
 204 50 204 50 226 54 c 0,33,34
 303 69 303 69 351 130.5 c 128,-1,35
 399 192 399 192 412 295 c 1,12,13
EndSplineSet
EndChar
StartChar: colon
Encoding: 58 58 29
Width: 602
Flags: W
LayerCount: 2
Back
Fore
SplineSet
205 80 m 128,-1,1
 205 118 205 118 231.5 142.5 c 128,-1,2
 258 167 258 167 301 167 c 128,-1,3
 344 167 344 167 370.5 143 c 128,-1,4
 397 119 397 119 397 80 c 128,-1,5
 397 41 397 41 370.5 17 c 128,-1,6
 344 -7 344 -7 301 -7 c 128,-1,7
 258 -7 258 -7 231.5 17.5 c 128,-1,0
 205 42 205 42 205 80 c 128,-1,1
205 350 m 128,-1,9
 205 388 205 388 231.5 412.5 c 128,-1,10
 258 437 258 437 301 437 c 128,-1,11
 344 437 344 437 370.5 413 c 128,-1,12
 397 389 397 389 397 350 c 128,-1,13
 397 311 397 311 370.5 287 c 128,-1,14
 344 263 344 263 301 263 c 128,-1,15
 258 263 258 263 231.5 287.5 c 128,-1,8
 205 312 205 312 205 350 c 128,-1,9
EndSplineSet
EndChar
StartChar: semicolon
Encoding: 59 59 30
Width: 602
Flags: W
LayerCount: 2
Back
Fore
SplineSet
202 350 m 128,-1,1
 202 388 202 388 228.5 412.5 c 128,-1,2
 255 437 255 437 298 437 c 128,-1,3
 341 437 341 437 368 412.5 c 128,-1,4
 395 388 395 388 395 350 c 128,-1,5
 395 312 395 312 368 287.5 c 128,-1,6
 341 263 341 263 298 263 c 128,-1,7
 255 263 255 263 228.5 287.5 c 128,-1,0
 202 312 202 312 202 350 c 128,-1,1
240 119 m 2,8,9
 244 134 244 134 249.5 139 c 128,-1,10
 255 144 255 144 270 144 c 2,11,-1
 371 144 l 2,12,13
 386 144 386 144 386 134 c 0,14,15
 386 129 386 129 382 121 c 2,16,-1
 256 -141 l 2,17,18
 248 -157 248 -157 235 -157 c 0,19,20
 232 -157 232 -157 226 -155 c 2,21,-1
 194 -143 l 2,22,23
 179 -138 179 -138 179 -126 c 0,24,25
 179 -120 179 -120 181 -114 c 2,26,-1
 240 119 l 2,8,9
EndSplineSet
EndChar
StartChar: equal
Encoding: 61 61 32
Width: 602
Flags: W
LayerCount: 2
Back
Fore
SplineSet
82 190 m 2,0,1
 51 190 51 190 51 226 c 128,-1,2
 51 262 51 262 82 262 c 2,3,-1
 519 262 l 2,4,5
 550 262 550 262 550 226 c 128,-1,6
 550 190 550 190 519 190 c 2,7,-1
 82 190 l 2,0,1
82 354 m 2,8,9
 51 354 51 354 51 390 c 128,-1,10
 51 426 51 426 82 426 c 2,11,-1
 519 426 l 2,12,13
 550 426 550 426 550 390 c 128,-1,14
 550 354 550 354 519 354 c 2,15,-1
 82 354 l 2,8,9
EndSplineSet
EndChar
StartChar: greater
Encoding: 62 62 33
Width: 602
Flags: W
LayerCount: 2
Back
Fore
SplineSet
518 259 m 2,0,-1
 130 81 l 2,1,2
 106 69 106 69 91 69 c 0,3,4
 59 69 59 69 59 100 c 0,5,6
 59 125 59 125 100 144 c 2,7,-1
 444 307 l 1,8,-1
 100 472 l 2,9,10
 59 491 59 491 59 515 c 0,11,12
 59 546 59 546 91 546 c 0,13,14
 103 546 103 546 130 534 c 2,15,-1
 518 353 l 2,16,17
 539 343 539 343 546 339.5 c 128,-1,18
 553 336 553 336 560.5 327 c 128,-1,19
 568 318 568 318 568 306 c 128,-1,20
 568 294 568 294 561 285 c 128,-1,21
 554 276 554 276 547 272.5 c 128,-1,22
 540 269 540 269 518 259 c 2,0,-1
EndSplineSet
EndChar
StartChar: question
Encoding: 63 63 34
Width: 602
Flags: W
LayerCount: 2
Back
Fore
SplineSet
234 252 m 2,0,1
 234 278 234 278 242.5 293 c 128,-1,2
 251 308 251 308 274 320 c 0,3,4
 287 327 287 327 312.5 338.5 c 128,-1,5
 338 350 338 350 351 357.5 c 128,-1,6
 364 365 364 365 379.5 377.5 c 128,-1,7
 395 390 395 390 402 406 c 128,-1,8
 409 422 409 422 409 443 c 0,9,10
 409 488 409 488 377.5 516 c 128,-1,11
 346 544 346 544 290 544 c 0,12,13
 258 544 258 544 230 534.5 c 128,-1,14
 202 525 202 525 196 515 c 0,15,16
 195 513 195 513 193.5 497 c 128,-1,17
 192 481 192 481 184.5 469 c 128,-1,18
 177 457 177 457 158 457 c 0,19,20
 143 457 143 457 132.5 468.5 c 128,-1,21
 122 480 122 480 122 500 c 2,22,-1
 122 548 l 2,23,24
 122 574 122 574 174.5 593 c 128,-1,25
 227 612 227 612 298 612 c 0,26,27
 384 612 384 612 435.5 564.5 c 128,-1,28
 487 517 487 517 487 442 c 0,29,30
 487 380 487 380 444 339 c 128,-1,31
 401 298 401 298 307 263 c 1,32,-1
 307 224 l 2,33,34
 307 208 307 208 297 198 c 128,-1,35
 287 188 287 188 270 188 c 0,36,37
 234 188 234 188 234 223 c 2,38,-1
 234 252 l 2,0,1
180 67 m 128,-1,40
 180 99 180 99 204.5 119.5 c 128,-1,41
 229 140 229 140 270 140 c 128,-1,42
 311 140 311 140 336 119.5 c 128,-1,43
 361 99 361 99 361 67 c 128,-1,44
 361 35 361 35 336 14 c 128,-1,45
 311 -7 311 -7 270 -7 c 0,46,47
 230 -7 230 -7 205 14 c 128,-1,39
 180 35 180 35 180 67 c 128,-1,40
EndSplineSet
EndChar
StartChar: at
Encoding: 64 64 35
Width: 602
Flags: W
LayerCount: 2
Back
Fore
SplineSet
392 455 m 2,0,1
 392 455 392 455 392 468 c 0,2,3
 392 607 392 607 306 607 c 0,4,5
 246 607 246 607 211 533 c 128,-1,6
 176 459 176 459 176 322 c 0,7,8
 176 11 176 11 334 11 c 0,9,10
 356 11 356 11 385.5 20.5 c 128,-1,11
 415 30 415 30 423 30 c 0,12,13
 432 30 432 30 438.5 22.5 c 128,-1,14
 445 15 445 15 445 5 c 0,15,16
 445 -19 445 -19 412 -35.5 c 128,-1,17
 379 -52 379 -52 329 -52 c 0,18,19
 225 -52 225 -52 167 41 c 128,-1,20
 109 134 109 134 109 311 c 0,21,22
 109 484 109 484 162.5 576 c 128,-1,23
 216 668 216 668 310 668 c 0,24,25
 389 668 389 668 423.5 610.5 c 128,-1,26
 458 553 458 553 458 433 c 2,27,-1
 458 234 l 1,28,29
 475 212 475 212 475 199 c 0,30,31
 475 183 475 183 463 170.5 c 128,-1,32
 451 158 451 158 436 158 c 0,33,34
 420 158 420 158 399 181 c 1,35,36
 360 164 360 164 324 164 c 0,37,38
 277 164 277 164 244.5 201 c 128,-1,39
 212 238 212 238 212 299 c 0,40,41
 212 371 212 371 255.5 413.5 c 128,-1,42
 299 456 299 456 375 456 c 0,43,44
 378 456 378 456 383.5 455.5 c 128,-1,45
 389 455 389 455 392 455 c 2,0,1
392 237 m 1,46,-1
 392 399 l 1,47,48
 385 400 385 400 373 400 c 0,49,50
 328 400 328 400 302 373.5 c 128,-1,51
 276 347 276 347 276 302 c 0,52,53
 276 265 276 265 294 245 c 128,-1,54
 312 225 312 225 344 225 c 0,55,56
 360 225 360 225 392 237 c 1,46,-1
EndSplineSet
EndChar
StartChar: A
Encoding: 65 65 36
Width: 602
Flags: W
LayerCount: 2
Back
Fore
SplineSet
225 509 m 1,0,-1
 154 509 l 2,1,2
 125 509 125 509 112.5 516.5 c 128,-1,3
 100 524 100 524 100 544 c 0,4,5
 100 568 100 568 114 573.5 c 128,-1,6
 128 579 128 579 168 579 c 2,7,-1
 307 579 l 2,8,9
 323 579 323 579 331 577.5 c 128,-1,10
 339 576 339 576 347 569 c 128,-1,11
 355 562 355 562 361 546 c 2,12,-1
 552 69 l 1,13,-1
 560 69 l 2,14,15
 586 69 586 69 596 62 c 128,-1,16
 606 55 606 55 606 35 c 0,17,18
 606 14 606 14 596.5 7 c 128,-1,19
 587 0 587 0 562 0 c 2,20,-1
 429 0 l 2,21,22
 397 0 397 0 384 6.5 c 128,-1,23
 371 13 371 13 371 35 c 0,24,25
 371 55 371 55 383.5 62 c 128,-1,26
 396 69 396 69 426 69 c 2,27,-1
 471 69 l 1,28,-1
 424 185 l 1,29,-1
 176 185 l 1,30,-1
 134 69 l 1,31,-1
 181 69 l 2,32,33
 211 69 211 69 224 62 c 128,-1,34
 237 55 237 55 237 35 c 0,35,36
 237 13 237 13 224.5 6.5 c 128,-1,37
 212 0 212 0 180 0 c 2,38,-1
 52 0 l 2,39,40
 23 0 23 0 12 6.5 c 128,-1,41
 1 13 1 13 1 35 c 0,42,43
 1 54 1 54 11.5 61.5 c 128,-1,44
 22 69 22 69 47 69 c 2,45,-1
 59 69 l 1,46,-1
 225 509 l 1,0,-1
200 250 m 1,47,-1
 400 250 l 1,48,-1
 294 509 l 1,49,-1
 200 250 l 1,47,-1
EndSplineSet
EndChar
StartChar: B
Encoding: 66 66 37
Width: 602
Flags: W
LayerCount: 2
Back
Fore
SplineSet
295 0 m 1,0,-1
 76 0 l 2,1,2
 42 0 42 0 42 35 c 0,3,4
 42 58 42 58 54.5 63.5 c 128,-1,5
 67 69 67 69 103 69 c 2,6,-1
 120 69 l 1,7,-1
 120 509 l 1,8,-1
 104 509 l 2,9,10
 70 509 70 509 57.5 515 c 128,-1,11
 45 521 45 521 45 544 c 0,12,13
 45 579 45 579 79 579 c 2,14,-1
 307 579 l 2,15,16
 412 579 412 579 465.5 538.5 c 128,-1,17
 519 498 519 498 519 422 c 0,18,19
 519 344 519 344 453 307 c 1,20,21
 557 270 557 270 557 167 c 0,22,23
 557 87 557 87 493 39 c 0,24,25
 460 14 460 14 422.5 7 c 128,-1,26
 385 0 385 0 330 0 c 2,27,-1
 295 0 l 1,0,-1
197 329 m 1,28,-1
 299 329 l 2,29,30
 435 329 435 329 435 419 c 0,31,32
 435 462 435 462 405 485.5 c 128,-1,33
 375 509 375 509 318 509 c 2,34,-1
 197 509 l 1,35,-1
 197 329 l 1,28,-1
197 69 m 1,36,-1
 305 69 l 2,37,38
 393 69 393 69 432.5 91 c 128,-1,39
 472 113 472 113 472 169 c 0,40,41
 472 226 472 226 433.5 247.5 c 128,-1,42
 395 269 395 269 310 269 c 2,43,-1
 197 269 l 1,44,-1
 197 69 l 1,36,-1
EndSplineSet
EndChar
StartChar: C
Encoding: 67 67 38
Width: 602
Flags: W
LayerCount: 2
Back
Fore
SplineSet
455 563 m 1,0,1
 465 587 465 587 491 587 c 0,2,3
 515 587 515 587 521 576.5 c 128,-1,4
 527 566 527 566 527 538 c 0,5,6
 527 505 527 505 527.5 476.5 c 128,-1,7
 528 448 528 448 528.5 433 c 128,-1,8
 529 418 529 418 529 417 c 0,9,10
 529 396 529 396 522 387 c 128,-1,11
 515 378 515 378 494 378 c 0,12,13
 482 378 482 378 474 380 c 128,-1,14
 466 382 466 382 461.5 389.5 c 128,-1,15
 457 397 457 397 455.5 402.5 c 128,-1,16
 454 408 454 408 451 423 c 128,-1,17
 448 438 448 438 446 446 c 0,18,19
 437 481 437 481 402 504.5 c 128,-1,20
 367 528 367 528 319 528 c 0,21,22
 232 528 232 528 180 465 c 128,-1,23
 128 402 128 402 128 289 c 0,24,25
 128 185 128 185 182.5 123.5 c 128,-1,26
 237 62 237 62 321 62 c 0,27,28
 378 62 378 62 436 94 c 0,29,30
 448 101 448 101 463 112 c 128,-1,31
 478 123 478 123 487.5 128.5 c 128,-1,32
 497 134 497 134 505 134 c 0,33,34
 521 134 521 134 531 124 c 128,-1,35
 541 114 541 114 541 99 c 0,36,37
 541 73 541 73 486 38 c 0,38,39
 406 -14 406 -14 317 -14 c 0,40,41
 197 -14 197 -14 118 71 c 128,-1,42
 39 156 39 156 39 289 c 0,43,44
 39 420 39 420 118.5 507 c 128,-1,45
 198 594 198 594 319 594 c 0,46,47
 382 594 382 594 455 563 c 1,0,1
EndSplineSet
EndChar
StartChar: D
Encoding: 68 68 39
Width: 602
Flags: W
LayerCount: 2
Back
Fore
SplineSet
184 0 m 2,0,-1
 107 0 l 1,1,2
 107 0 107 0 85 0 c 0,3,4
 49 0 49 0 49 35 c 0,5,6
 49 55 49 55 59.5 62 c 128,-1,7
 70 69 70 69 95 69 c 2,8,-1
 108 69 l 1,9,-1
 108 509 l 1,10,11
 108 509 108 509 96 509 c 0,12,13
 71 509 71 509 60 516.5 c 128,-1,14
 49 524 49 524 49 544 c 0,15,16
 49 567 49 567 61.5 573 c 128,-1,17
 74 579 74 579 107 579 c 2,18,-1
 184 579 l 1,19,-1
 292 579 l 2,20,21
 413 579 413 579 485.5 501 c 128,-1,22
 558 423 558 423 558 289 c 128,-1,23
 558 155 558 155 477 71 c 0,24,25
 407 -2 407 -2 253 -2 c 0,26,27
 243 -2 243 -2 220 -1 c 128,-1,28
 197 0 197 0 184 0 c 2,0,-1
184 69 m 1,29,30
 216 66 216 66 245 66 c 0,31,32
 365 66 365 66 421 120 c 128,-1,33
 477 174 477 174 477 289 c 0,34,35
 477 406 477 406 420.5 458.5 c 128,-1,36
 364 511 364 511 241 511 c 0,37,38
 204 511 204 511 184 509 c 1,39,-1
 184 69 l 1,29,30
EndSplineSet
EndChar
StartChar: E
Encoding: 69 69 40
Width: 602
Flags: W
LayerCount: 2
Back
Fore
SplineSet
92 0 m 1,0,1
 92 0 92 0 69 0 c 0,2,3
 33 0 33 0 33 35 c 0,4,5
 33 57 33 57 45.5 63 c 128,-1,6
 58 69 58 69 92 69 c 2,7,-1
 123 69 l 1,8,-1
 123 509 l 1,9,-1
 92 509 l 2,10,11
 58 509 58 509 45.5 515.5 c 128,-1,12
 33 522 33 522 33 544 c 0,13,14
 33 567 33 567 46 573 c 128,-1,15
 59 579 59 579 92 579 c 2,16,-1
 495 579 l 2,17,18
 529 579 529 579 529 540 c 2,19,-1
 529 425 l 2,20,21
 529 401 529 401 522 390.5 c 128,-1,22
 515 380 515 380 495 380 c 0,23,24
 476 380 476 380 468 390 c 128,-1,25
 460 400 460 400 460 423 c 2,26,-1
 460 439 l 1,27,-1
 460 509 l 1,28,-1
 200 509 l 1,29,-1
 200 344 l 1,30,-1
 328 344 l 1,31,32
 328 349 328 349 328 354 c 128,-1,33
 328 359 328 359 327.5 362 c 128,-1,34
 327 365 327 365 327 367 c 128,-1,35
 327 369 327 369 327 370 c 0,36,37
 327 396 327 396 334 406.5 c 128,-1,38
 341 417 341 417 359 417 c 0,39,40
 378 417 378 417 384 404 c 128,-1,41
 390 391 390 391 390 359 c 2,42,-1
 390 268 l 2,43,44
 390 235 390 235 384.5 223 c 128,-1,45
 379 211 379 211 359 211 c 0,46,47
 340 211 340 211 334 224.5 c 128,-1,48
 328 238 328 238 328 271 c 2,49,-1
 328 285 l 1,50,-1
 200 285 l 1,51,-1
 200 69 l 1,52,-1
 460 69 l 1,53,-1
 460 148 l 2,54,55
 460 182 460 182 466 194.5 c 128,-1,56
 472 207 472 207 495 207 c 0,57,58
 515 207 515 207 522 196 c 128,-1,59
 529 185 529 185 529 159 c 2,60,-1
 529 36 l 2,61,62
 529 0 529 0 495 0 c 2,63,-1
 92 0 l 1,0,1
EndSplineSet
EndChar
StartChar: F
Encoding: 70 70 41
Width: 602
Flags: W
LayerCount: 2
Back
Fore
SplineSet
297 69 m 1,0,1
 297 69 297 69 316 69 c 0,2,3
 355 69 355 69 355 35 c 0,4,5
 355 0 355 0 321 0 c 2,6,-1
 80 0 l 2,7,8
 46 0 46 0 46 35 c 0,9,10
 46 54 46 54 55.5 61.5 c 128,-1,11
 65 69 65 69 88 69 c 2,12,-1
 104 69 l 1,13,-1
 135 69 l 1,14,-1
 135 509 l 1,15,-1
 104 509 l 1,16,17
 104 509 104 509 85 509 c 0,18,19
 46 509 46 509 46 544 c 128,-1,20
 46 579 46 579 80 579 c 2,21,-1
 512 579 l 2,22,23
 546 579 546 579 546 540 c 2,24,-1
 546 414 l 2,25,26
 546 380 546 380 512 380 c 0,27,28
 493 380 493 380 485 390 c 128,-1,29
 477 400 477 400 477 423 c 2,30,31
 477 423 477 423 477 439 c 2,32,-1
 477 509 l 1,33,-1
 212 509 l 1,34,-1
 212 344 l 1,35,-1
 341 344 l 1,36,37
 341 344 341 344 341 357 c 0,38,39
 341 390 341 390 347 403.5 c 128,-1,40
 353 417 353 417 372 417 c 0,41,42
 402 417 402 417 402 378 c 2,43,-1
 402 254 l 2,44,45
 402 231 402 231 395.5 221 c 128,-1,46
 389 211 389 211 372 211 c 0,47,48
 353 211 353 211 347 224.5 c 128,-1,49
 341 238 341 238 341 271 c 2,50,-1
 341 285 l 1,51,-1
 212 285 l 1,52,-1
 212 69 l 1,53,-1
 297 69 l 1,0,1
EndSplineSet
EndChar
StartChar: G
Encoding: 71 71 42
Width: 602
Flags: W
LayerCount: 2
Back
Fore
SplineSet
456 84 m 1,0,-1
 456 200 l 1,1,-1
 334 200 l 2,2,3
 306 200 306 200 306 232 c 0,4,5
 306 251 306 251 312.5 257.5 c 128,-1,6
 319 264 319 264 337 264 c 2,7,-1
 548 264 l 2,8,9
 573 264 573 264 573 232 c 0,10,11
 573 214 573 214 565 207 c 128,-1,12
 557 200 557 200 536 200 c 2,13,-1
 530 200 l 1,14,-1
 530 65 l 1,15,-1
 530 53 l 2,16,17
 530 34 530 34 515 25 c 0,18,19
 488 10 488 10 436 -2.5 c 128,-1,20
 384 -15 384 -15 326 -15 c 0,21,22
 194 -15 194 -15 114 68.5 c 128,-1,23
 34 152 34 152 34 289 c 0,24,25
 34 420 34 420 113 507.5 c 128,-1,26
 192 595 192 595 314 595 c 0,27,28
 380 595 380 595 450 565 c 1,29,30
 461 589 461 589 486 589 c 0,31,32
 510 589 510 589 517 573.5 c 128,-1,33
 524 558 524 558 524 512 c 2,34,-1
 524 446 l 2,35,36
 524 422 524 422 516 412.5 c 128,-1,37
 508 403 508 403 487 403 c 0,38,39
 476 403 476 403 468.5 407.5 c 128,-1,40
 461 412 461 412 458.5 416 c 128,-1,41
 456 420 456 420 451 432 c 128,-1,42
 446 444 446 444 444 448 c 0,43,44
 427 486 427 486 393 507.5 c 128,-1,45
 359 529 359 529 314 529 c 0,46,47
 227 529 227 529 175 466 c 128,-1,48
 123 403 123 403 123 289 c 0,49,50
 123 181 123 181 182 117 c 128,-1,51
 241 53 241 53 334 53 c 0,52,53
 388 53 388 53 456 84 c 1,0,-1
EndSplineSet
EndChar
StartChar: H
Encoding: 72 72 43
Width: 602
Flags: W
LayerCount: 2
Back
Fore
SplineSet
184 69 m 1,0,1
 195 70 195 70 217 70 c 0,2,3
 245 70 245 70 257 62 c 128,-1,4
 269 54 269 54 269 35 c 0,5,6
 269 13 269 13 256.5 6.5 c 128,-1,7
 244 0 244 0 214 0 c 2,8,-1
 107 0 l 1,9,-1
 85 0 l 2,10,11
 49 0 49 0 49 35 c 0,12,13
 49 55 49 55 59.5 62 c 128,-1,14
 70 69 70 69 95 69 c 2,15,-1
 108 69 l 1,16,-1
 108 509 l 1,17,-1
 96 509 l 2,18,19
 71 509 71 509 60 516.5 c 128,-1,20
 49 524 49 524 49 544 c 0,21,22
 49 567 49 567 61.5 573 c 128,-1,23
 74 579 74 579 107 579 c 2,24,-1
 209 579 l 2,25,26
 243 579 243 579 256 573 c 128,-1,27
 269 567 269 567 269 544 c 0,28,29
 269 523 269 523 255 516 c 128,-1,30
 241 509 241 509 206 509 c 2,31,-1
 184 509 l 1,32,-1
 184 339 l 1,33,-1
 418 339 l 1,34,-1
 418 509 l 1,35,-1
 385 509 l 2,36,37
 357 509 357 509 345 517 c 128,-1,38
 333 525 333 525 333 544 c 0,39,40
 333 568 333 568 346.5 573.5 c 128,-1,41
 360 579 360 579 398 579 c 2,42,-1
 494 579 l 1,43,-1
 517 579 l 2,44,45
 553 579 553 579 553 544 c 0,46,47
 553 524 553 524 542 516.5 c 128,-1,48
 531 509 531 509 506 509 c 2,49,-1
 494 509 l 1,50,-1
 494 69 l 1,51,-1
 507 69 l 2,52,53
 532 69 532 69 542.5 62 c 128,-1,54
 553 55 553 55 553 35 c 0,55,56
 553 12 553 12 540.5 6 c 128,-1,57
 528 0 528 0 494 0 c 2,58,-1
 394 0 l 2,59,60
 359 0 359 0 346 6 c 128,-1,61
 333 12 333 12 333 35 c 0,62,63
 333 55 333 55 346.5 62 c 128,-1,64
 360 69 360 69 394 69 c 2,65,-1
 418 69 l 1,66,-1
 418 272 l 1,67,-1
 184 272 l 1,68,-1
 184 69 l 1,0,1
EndSplineSet
EndChar
StartChar: I
Encoding: 73 73 44
Width: 602
Flags: W
LayerCount: 2
Back
Fore
SplineSet
449 69 m 2,0,1
 483 69 483 69 495.5 63 c 128,-1,2
 508 57 508 57 508 35 c 0,3,4
 508 12 508 12 495.5 6 c 128,-1,5
 483 0 483 0 449 0 c 2,6,-1
 153 0 l 1,7,-1
 130 0 l 2,8,9
 94 0 94 0 94 35 c 0,10,11
 94 57 94 57 106.5 63 c 128,-1,12
 119 69 119 69 153 69 c 2,13,-1
 262 69 l 1,14,-1
 262 509 l 1,15,-1
 153 509 l 2,16,17
 119 509 119 509 106.5 515.5 c 128,-1,18
 94 522 94 522 94 544 c 0,19,20
 94 567 94 567 107 573 c 128,-1,21
 120 579 120 579 153 579 c 2,22,-1
 449 579 l 1,23,-1
 472 579 l 2,24,25
 508 579 508 579 508 544 c 0,26,27
 508 522 508 522 495.5 515.5 c 128,-1,28
 483 509 483 509 449 509 c 2,29,-1
 339 509 l 1,30,-1
 339 69 l 1,31,-1
 449 69 l 2,0,1
EndSplineSet
EndChar
StartChar: J
Encoding: 74 74 45
Width: 602
Flags: W
LayerCount: 2
Back
Fore
SplineSet
375 509 m 1,0,-1
 243 509 l 2,1,2
 209 509 209 509 196.5 515.5 c 128,-1,3
 184 522 184 522 184 544 c 0,4,5
 184 567 184 567 197 573 c 128,-1,6
 210 579 210 579 243 579 c 2,7,-1
 515 579 l 1,8,-1
 538 579 l 2,9,10
 573 579 573 579 573 544 c 0,11,12
 573 522 573 522 561 515.5 c 128,-1,13
 549 509 549 509 515 509 c 2,14,-1
 452 509 l 1,15,-1
 452 197 l 2,16,17
 452 87 452 87 406 36.5 c 128,-1,18
 360 -14 360 -14 252 -14 c 0,19,20
 161 -14 161 -14 81 29 c 0,21,22
 63 39 63 39 58.5 48.5 c 128,-1,23
 54 58 54 58 54 80 c 2,24,-1
 54 195 l 2,25,26
 54 215 54 215 55 223.5 c 128,-1,27
 56 232 56 232 63.5 239 c 128,-1,28
 71 246 71 246 86 246 c 0,29,30
 110 246 110 246 118 228 c 0,31,32
 122 219 122 219 122 192 c 2,33,-1
 122 187 l 2,34,35
 122 156 122 156 128 131 c 0,36,37
 139 93 139 93 170 70.5 c 128,-1,38
 201 48 201 48 247 48 c 0,39,40
 316 48 316 48 345.5 86.5 c 128,-1,41
 375 125 375 125 375 209 c 2,42,-1
 375 509 l 1,0,-1
EndSplineSet
EndChar
StartChar: K
Encoding: 75 75 46
Width: 602
Flags: W
LayerCount: 2
Back
Fore
SplineSet
201 69 m 1,0,1
 212 70 212 70 234 70 c 0,2,3
 262 70 262 70 274 62 c 128,-1,4
 286 54 286 54 286 35 c 0,5,6
 286 14 286 14 275 7 c 128,-1,7
 264 0 264 0 237 0 c 2,8,-1
 70 0 l 2,9,10
 36 0 36 0 36 35 c 0,11,12
 36 54 36 54 45.5 61.5 c 128,-1,13
 55 69 55 69 78 69 c 2,14,-1
 94 69 l 1,15,-1
 125 69 l 1,16,-1
 125 509 l 1,17,-1
 94 509 l 1,18,-1
 75 509 l 2,19,20
 36 509 36 509 36 544 c 128,-1,21
 36 579 36 579 70 579 c 2,22,-1
 237 579 l 2,23,24
 264 579 264 579 275 572 c 128,-1,25
 286 565 286 565 286 544 c 128,-1,26
 286 523 286 523 272 516 c 128,-1,27
 258 509 258 509 223 509 c 2,28,-1
 201 509 l 1,29,-1
 201 310 l 1,30,-1
 405 509 l 2,31,32
 399 508 399 508 388 508 c 0,33,34
 343 508 343 508 343 544 c 0,35,36
 343 563 343 563 351 571 c 128,-1,37
 359 579 359 579 378 579 c 2,38,-1
 522 579 l 2,39,40
 556 579 556 579 556 544 c 0,41,42
 556 524 556 524 544.5 516.5 c 128,-1,43
 533 509 533 509 505 509 c 2,44,-1
 497 509 l 1,45,-1
 308 326 l 1,46,47
 359 316 359 316 400.5 259.5 c 128,-1,48
 442 203 442 203 513 69 c 1,49,-1
 527 69 l 2,50,51
 552 69 552 69 562.5 62 c 128,-1,52
 573 55 573 55 573 35 c 0,53,54
 573 0 573 0 539 0 c 2,55,-1
 492 0 l 2,56,57
 466 0 466 0 455 19 c 0,58,59
 453 23 453 23 445 37.5 c 128,-1,60
 437 52 437 52 418 87 c 128,-1,61
 399 122 399 122 381 154 c 0,62,63
 321 263 321 263 255 273 c 1,64,-1
 201 222 l 1,65,-1
 201 69 l 1,0,1
EndSplineSet
EndChar
StartChar: L
Encoding: 76 76 47
Width: 602
Flags: W
LayerCount: 2
Back
Fore
SplineSet
485 197 m 2,0,1
 485 231 485 231 491.5 243 c 128,-1,2
 498 255 498 255 520 255 c 0,3,4
 543 255 543 255 549 242.5 c 128,-1,5
 555 230 555 230 555 197 c 2,6,-1
 555 36 l 2,7,8
 555 0 555 0 520 0 c 2,9,-1
 87 0 l 1,10,-1
 64 0 l 2,11,12
 29 0 29 0 29 35 c 0,13,14
 29 57 29 57 41 63 c 128,-1,15
 53 69 53 69 87 69 c 2,16,-1
 148 69 l 1,17,-1
 148 509 l 1,18,-1
 87 509 l 2,19,20
 53 509 53 509 41 515.5 c 128,-1,21
 29 522 29 522 29 544 c 0,22,23
 29 567 29 567 41.5 573 c 128,-1,24
 54 579 54 579 87 579 c 2,25,-1
 307 579 l 1,26,-1
 330 579 l 2,27,28
 366 579 366 579 366 544 c 0,29,30
 366 521 366 521 353.5 515 c 128,-1,31
 341 509 341 509 307 509 c 2,32,-1
 225 509 l 1,33,-1
 225 69 l 1,34,-1
 485 69 l 1,35,-1
 485 197 l 2,0,1
EndSplineSet
EndChar
StartChar: M
Encoding: 77 77 48
Width: 602
Flags: W
LayerCount: 2
Back
Fore
SplineSet
302 240 m 1,0,-1
 406 546 l 2,1,2
 418 579 418 579 459 579 c 2,3,-1
 540 579 l 2,4,5
 572 579 572 579 572 546 c 0,6,7
 572 527 572 527 561.5 520 c 128,-1,8
 551 513 551 513 525 513 c 2,9,-1
 517 513 l 1,10,-1
 531 69 l 1,11,12
 531 69 531 69 547 69 c 0,13,14
 574 69 574 69 584.5 62 c 128,-1,15
 595 55 595 55 595 35 c 0,16,17
 595 0 595 0 561 0 c 2,18,-1
 424 0 l 2,19,20
 397 0 397 0 386 7 c 128,-1,21
 375 14 375 14 375 35 c 0,22,23
 375 55 375 55 388.5 62 c 128,-1,24
 402 69 402 69 434 69 c 2,25,-1
 455 69 l 1,26,-1
 444 489 l 1,27,-1
 348 208 l 2,28,29
 341 188 341 188 330 180 c 128,-1,30
 319 172 319 172 298 172 c 0,31,32
 278 172 278 172 267 180 c 128,-1,33
 256 188 256 188 249 208 c 2,34,-1
 151 489 l 1,35,-1
 142 69 l 1,36,37
 153 70 153 70 175 70 c 0,38,39
 203 70 203 70 215 62 c 128,-1,40
 227 54 227 54 227 35 c 0,41,42
 227 14 227 14 216 7 c 128,-1,43
 205 0 205 0 178 0 c 2,44,-1
 41 0 l 2,45,46
 7 0 7 0 7 35 c 0,47,48
 7 55 7 55 17.5 62 c 128,-1,49
 28 69 28 69 55 69 c 2,50,-1
 71 69 l 1,51,-1
 85 513 l 1,52,-1
 77 513 l 2,53,54
 51 513 51 513 40.5 520 c 128,-1,55
 30 527 30 527 30 546 c 0,56,57
 30 579 30 579 62 579 c 2,58,-1
 142 579 l 2,59,60
 183 579 183 579 195 546 c 2,61,-1
 302 240 l 1,0,-1
EndSplineSet
EndChar
StartChar: N
Encoding: 78 78 49
Width: 602
Flags: W
LayerCount: 2
Back
Fore
SplineSet
168 69 m 1,0,-1
 193 69 l 1,1,2
 193 69 193 69 228 69 c 0,3,4
 278 69 278 69 278 35 c 0,5,6
 278 13 278 13 265.5 6.5 c 128,-1,7
 253 0 253 0 221 0 c 2,8,-1
 99 0 l 1,9,-1
 76 0 l 2,10,11
 41 0 41 0 41 35 c 0,12,13
 41 55 41 55 52 62 c 128,-1,14
 63 69 63 69 90 69 c 2,15,-1
 99 69 l 1,16,-1
 99 509 l 1,17,18
 53 509 53 509 35 515.5 c 128,-1,19
 17 522 17 522 17 544 c 0,20,21
 17 560 17 560 27.5 568 c 128,-1,22
 38 576 38 576 52.5 577.5 c 128,-1,23
 67 579 67 579 99 579 c 2,24,-1
 145 579 l 2,25,26
 169 579 169 579 178 573.5 c 128,-1,27
 187 568 187 568 198 548 c 2,28,-1
 444 123 l 1,29,-1
 444 509 l 1,30,-1
 425 509 l 1,31,-1
 390 509 l 2,32,33
 340 509 340 509 340 544 c 0,34,35
 340 566 340 566 352 572.5 c 128,-1,36
 364 579 364 579 393 579 c 2,37,-1
 510 579 l 1,38,-1
 533 579 l 2,39,40
 568 579 568 579 568 544 c 0,41,42
 568 524 568 524 557 516.5 c 128,-1,43
 546 509 546 509 519 509 c 2,44,-1
 512 509 l 1,45,-1
 512 17 l 2,46,47
 512 0 512 0 504.5 -4 c 128,-1,48
 497 -8 497 -8 476 -8 c 2,49,-1
 470 -8 l 2,50,51
 450 -8 450 -8 445 -4.5 c 128,-1,52
 440 -1 440 -1 428 20 c 2,53,-1
 168 468 l 1,54,-1
 168 69 l 1,0,-1
EndSplineSet
EndChar
StartChar: O
Encoding: 79 79 50
Width: 602
Flags: W
LayerCount: 2
Back
Fore
SplineSet
301 54 m 128,-1,1
 381 54 381 54 429 116 c 128,-1,2
 477 178 477 178 477 290 c 128,-1,3
 477 402 477 402 429 464 c 128,-1,4
 381 526 381 526 301 526 c 0,5,6
 219 526 219 526 172 464.5 c 128,-1,7
 125 403 125 403 125 290 c 0,8,9
 125 178 125 178 173 116 c 128,-1,0
 221 54 221 54 301 54 c 128,-1,1
565 290 m 128,-1,11
 565 156 565 156 490.5 70.5 c 128,-1,12
 416 -15 416 -15 301 -15 c 0,13,14
 187 -15 187 -15 112 71 c 128,-1,15
 37 157 37 157 37 290 c 0,16,17
 37 425 37 425 111 510 c 128,-1,18
 185 595 185 595 301 595 c 0,19,20
 416 595 416 595 490.5 509.5 c 128,-1,10
 565 424 565 424 565 290 c 128,-1,11
EndSplineSet
EndChar
StartChar: P
Encoding: 80 80 51
Width: 602
Flags: W
LayerCount: 2
Back
Fore
SplineSet
321 69 m 2,0,1
 366 69 366 69 366 35 c 0,2,3
 366 14 366 14 355 7 c 128,-1,4
 344 0 344 0 317 0 c 2,5,-1
 78 0 l 2,6,7
 44 0 44 0 44 35 c 0,8,9
 44 69 44 69 79 69 c 2,10,-1
 142 69 l 1,11,-1
 142 509 l 1,12,-1
 108 509 l 2,13,14
 71 509 71 509 57.5 515 c 128,-1,15
 44 521 44 521 44 544 c 0,16,17
 44 579 44 579 78 579 c 2,18,-1
 304 579 l 2,19,20
 546 579 546 579 546 398 c 0,21,22
 546 218 546 218 304 218 c 2,23,-1
 219 218 l 1,24,-1
 219 69 l 1,25,-1
 321 69 l 2,0,1
219 509 m 1,26,-1
 219 282 l 1,27,-1
 309 282 l 2,28,29
 463 282 463 282 463 396 c 0,30,31
 463 509 463 509 309 509 c 2,32,-1
 219 509 l 1,26,-1
EndSplineSet
EndChar
StartChar: Q
Encoding: 81 81 52
Width: 602
Flags: W
LayerCount: 2
Back
Fore
SplineSet
301 55 m 0,0,1
 379 55 379 55 428 117 c 128,-1,2
 477 179 477 179 477 290 c 128,-1,3
 477 401 477 401 428.5 463.5 c 128,-1,4
 380 526 380 526 301 526 c 128,-1,5
 222 526 222 526 173.5 463.5 c 128,-1,6
 125 401 125 401 125 290 c 128,-1,7
 125 179 125 179 173.5 117 c 128,-1,8
 222 55 222 55 301 55 c 0,0,1
224 1 m 1,9,10
 140 25 140 25 88.5 104 c 128,-1,11
 37 183 37 183 37 291 c 0,12,13
 37 421 37 421 113 508 c 128,-1,14
 189 595 189 595 301 595 c 0,15,16
 412 595 412 595 488.5 507.5 c 128,-1,17
 565 420 565 420 565 290 c 0,18,19
 565 155 565 155 491 72.5 c 128,-1,20
 417 -10 417 -10 298 -10 c 0,21,22
 277 -10 277 -10 266 -9 c 1,23,-1
 214 -60 l 1,24,25
 271 -37 271 -37 335 -37 c 0,26,27
 357 -37 357 -37 395 -48.5 c 128,-1,28
 433 -60 433 -60 450 -60 c 0,29,30
 465 -60 465 -60 487 -51 c 128,-1,31
 509 -42 509 -42 517 -42 c 0,32,33
 528 -42 528 -42 536.5 -53 c 128,-1,34
 545 -64 545 -64 545 -77 c 0,35,36
 545 -92 545 -92 516 -108.5 c 128,-1,37
 487 -125 487 -125 453 -125 c 0,38,39
 426 -125 426 -125 374.5 -109 c 128,-1,40
 323 -93 323 -93 297 -93 c 0,41,42
 260 -93 260 -93 219.5 -110.5 c 128,-1,43
 179 -128 179 -128 174 -128 c 0,44,45
 163 -128 163 -128 152 -116 c 128,-1,46
 141 -104 141 -104 141 -92 c 0,47,48
 141 -87 141 -87 144.5 -81 c 128,-1,49
 148 -75 148 -75 156 -66 c 128,-1,50
 164 -57 164 -57 172 -49 c 128,-1,51
 180 -41 180 -41 196 -26 c 128,-1,52
 212 -11 212 -11 224 1 c 1,9,10
EndSplineSet
EndChar
StartChar: R
Encoding: 82 82 53
Width: 602
Flags: W
LayerCount: 2
Back
Fore
SplineSet
192 69 m 1,0,1
 203 70 203 70 225 70 c 0,2,3
 253 70 253 70 265 62 c 128,-1,4
 277 54 277 54 277 35 c 0,5,6
 277 14 277 14 266 7 c 128,-1,7
 255 0 255 0 228 0 c 2,8,-1
 64 0 l 2,9,10
 30 0 30 0 30 35 c 0,11,12
 30 54 30 54 39.5 61.5 c 128,-1,13
 49 69 49 69 72 69 c 2,14,-1
 88 69 l 1,15,-1
 116 69 l 1,16,-1
 116 513 l 1,17,-1
 88 513 l 1,18,-1
 70 513 l 2,19,20
 30 513 30 513 30 546 c 128,-1,21
 30 579 30 579 64 579 c 2,22,-1
 270 579 l 2,23,24
 343 579 343 579 385.5 571.5 c 128,-1,25
 428 564 428 564 459 537 c 0,26,27
 514 488 514 488 514 412 c 0,28,29
 514 356 514 356 480 316 c 128,-1,30
 446 276 446 276 384 260 c 1,31,32
 408 245 408 245 426 219 c 2,33,-1
 524 69 l 1,34,-1
 540 69 l 2,35,36
 566 69 566 69 576.5 62 c 128,-1,37
 587 55 587 55 587 35 c 0,38,39
 587 0 587 0 553 0 c 2,40,-1
 499 0 l 2,41,42
 490 0 490 0 483.5 2 c 128,-1,43
 477 4 477 4 469.5 12 c 128,-1,44
 462 20 462 20 460 22.5 c 128,-1,45
 458 25 458 25 448 40 c 2,46,-1
 353 182 l 2,47,48
 326 223 326 223 307.5 237 c 128,-1,49
 289 251 289 251 256 251 c 2,50,-1
 192 251 l 1,51,-1
 192 69 l 1,0,1
192 513 m 1,52,-1
 192 316 l 1,53,-1
 293 316 l 2,54,55
 430 316 430 316 430 414 c 0,56,57
 430 513 430 513 296 513 c 2,58,-1
 192 513 l 1,52,-1
EndSplineSet
EndChar
StartChar: S
Encoding: 83 83 54
Width: 602
Flags: W
LayerCount: 2
Back
Fore
SplineSet
158 17 m 1,0,1
 156 -5 156 -5 147.5 -13.5 c 128,-1,2
 139 -22 139 -22 119 -22 c 0,3,4
 80 -22 80 -22 77 29 c 2,5,-1
 71 142 l 1,6,-1
 71 152 l 2,7,8
 71 174 71 174 79 184 c 128,-1,9
 87 194 87 194 109 194 c 0,10,11
 128 194 128 194 136.5 185 c 128,-1,12
 145 176 145 176 151.5 153 c 128,-1,13
 158 130 158 130 163 120 c 0,14,15
 198 49 198 49 305 49 c 0,16,17
 369 49 369 49 408 79 c 128,-1,18
 447 109 447 109 447 155 c 0,19,20
 447 233 447 233 352 247 c 2,21,-1
 280 257 l 2,22,23
 181 271 181 271 133.5 309.5 c 128,-1,24
 86 348 86 348 86 420 c 0,25,26
 86 494 86 494 147.5 545 c 128,-1,27
 209 596 209 596 302 596 c 0,28,29
 354 596 354 596 426 567 c 1,30,31
 426 581 426 581 433 586.5 c 128,-1,32
 440 592 440 592 457 592 c 0,33,34
 482 592 482 592 488.5 584.5 c 128,-1,35
 495 577 495 577 497 555 c 2,36,-1
 504 453 l 1,37,-1
 504 448 l 2,38,39
 504 412 504 412 467 412 c 0,40,41
 449 412 449 412 441 421 c 128,-1,42
 433 430 433 430 426.5 449.5 c 128,-1,43
 420 469 420 469 413 479 c 0,44,45
 378 530 378 530 298 530 c 0,46,47
 238 530 238 530 201.5 500.5 c 128,-1,48
 165 471 165 471 165 424 c 0,49,50
 165 351 165 351 277 336 c 2,51,-1
 355 326 l 2,52,53
 527 303 527 303 527 164 c 0,54,55
 527 83 527 83 465.5 33 c 128,-1,56
 404 -17 404 -17 302 -17 c 0,57,58
 234 -17 234 -17 158 17 c 1,0,1
EndSplineSet
EndChar
StartChar: T
Encoding: 84 84 55
Width: 602
Flags: W
LayerCount: 2
Back
Fore
SplineSet
118 382 m 2,0,1
 117 348 117 348 110.5 336.5 c 128,-1,2
 104 325 104 325 80 325 c 0,3,4
 46 325 46 325 46 361 c 0,5,6
 46 369 46 369 47 384 c 2,7,-1
 52 545 l 2,8,9
 53 579 53 579 89 579 c 2,10,-1
 513 579 l 2,11,12
 549 579 549 579 550 545 c 2,13,-1
 555 384 l 2,14,15
 555 379 555 379 555 374.5 c 128,-1,16
 555 370 555 370 555.5 367.5 c 128,-1,17
 556 365 556 365 556 363 c 128,-1,18
 556 361 556 361 556 360 c 0,19,20
 556 325 556 325 522 325 c 0,21,22
 498 325 498 325 491.5 336.5 c 128,-1,23
 485 348 485 348 484 382 c 2,24,-1
 479 509 l 1,25,-1
 339 509 l 1,26,-1
 339 69 l 1,27,-1
 414 69 l 1,28,-1
 433 69 l 2,29,30
 472 69 472 69 472 35 c 0,31,32
 472 0 472 0 438 0 c 2,33,-1
 164 0 l 2,34,35
 130 0 130 0 130 35 c 0,36,37
 130 54 130 54 139.5 61.5 c 128,-1,38
 149 69 149 69 172 69 c 2,39,-1
 188 69 l 1,40,-1
 262 69 l 1,41,-1
 262 509 l 1,42,-1
 122 509 l 1,43,-1
 118 382 l 2,0,1
EndSplineSet
EndChar
StartChar: U
Encoding: 85 85 56
Width: 602
Flags: W
LayerCount: 2
Back
Fore
SplineSet
90 509 m 1,0,1
 90 509 90 509 78 509 c 0,2,3
 53 509 53 509 42 516.5 c 128,-1,4
 31 524 31 524 31 544 c 0,5,6
 31 567 31 567 44 573 c 128,-1,7
 57 579 57 579 90 579 c 2,8,-1
 190 579 l 2,9,10
 225 579 225 579 238 573.5 c 128,-1,11
 251 568 251 568 251 544 c 0,12,13
 251 523 251 523 237.5 516 c 128,-1,14
 224 509 224 509 190 509 c 2,15,-1
 169 509 l 1,16,-1
 169 241 l 2,17,18
 169 156 169 156 191 117 c 0,19,20
 227 54 227 54 306 54 c 0,21,22
 378 54 378 54 409 97.5 c 128,-1,23
 440 141 440 141 440 232 c 2,24,-1
 440 509 l 1,25,-1
 414 509 l 2,26,27
 379 509 379 509 364.5 516 c 128,-1,28
 350 523 350 523 350 544 c 0,29,30
 350 566 350 566 362 572.5 c 128,-1,31
 374 579 374 579 403 579 c 2,32,-1
 511 579 l 1,33,-1
 534 579 l 2,34,35
 569 579 569 579 569 544 c 0,36,37
 569 524 569 524 558 516.5 c 128,-1,38
 547 509 547 509 520 509 c 2,39,-1
 513 509 l 1,40,-1
 513 221 l 2,41,42
 513 -16 513 -16 301 -16 c 0,43,44
 205 -16 205 -16 147.5 42.5 c 128,-1,45
 90 101 90 101 90 203 c 2,46,-1
 90 509 l 1,0,1
EndSplineSet
EndChar
StartChar: V
Encoding: 86 86 57
Width: 602
Flags: W
LayerCount: 2
Back
Fore
SplineSet
59 509 m 1,0,1
 30 509 30 509 19 516.5 c 128,-1,2
 8 524 8 524 8 544 c 0,3,4
 8 579 8 579 42 579 c 2,5,-1
 190 579 l 2,6,7
 217 579 217 579 228 572 c 128,-1,8
 239 565 239 565 239 544 c 0,9,10
 239 509 239 509 194 509 c 2,11,-1
 140 509 l 1,12,-1
 306 83 l 1,13,-1
 468 509 l 1,14,-1
 403 509 l 2,15,16
 358 509 358 509 358 544 c 0,17,18
 358 565 358 565 369 572 c 128,-1,19
 380 579 380 579 407 579 c 2,20,-1
 560 579 l 2,21,22
 594 579 594 579 594 544 c 0,23,24
 594 525 594 525 583.5 517 c 128,-1,25
 573 509 573 509 548 509 c 2,26,-1
 542 509 l 1,27,-1
 366 49 l 2,28,29
 355 19 355 19 345.5 6.5 c 128,-1,30
 336 -6 336 -6 319 -6 c 2,31,-1
 292 -6 l 2,32,33
 276 -6 276 -6 266 2 c 128,-1,34
 256 10 256 10 251.5 18.5 c 128,-1,35
 247 27 247 27 239 49 c 2,36,-1
 59 509 l 1,0,1
EndSplineSet
EndChar
StartChar: W
Encoding: 87 87 58
Width: 602
Flags: W
LayerCount: 2
Back
Fore
SplineSet
175 125 m 1,0,-1
 259 417 l 2,1,2
 263 431 263 431 268.5 436 c 128,-1,3
 274 441 274 441 289 441 c 2,4,-1
 311 441 l 2,5,6
 326 441 326 441 331.5 437 c 128,-1,7
 337 433 337 433 342 419 c 2,8,-1
 437 125 l 1,9,-1
 485 513 l 1,10,-1
 408 513 l 2,11,12
 365 513 365 513 365 546 c 0,13,14
 365 565 365 565 376 572 c 128,-1,15
 387 579 387 579 412 579 c 2,16,-1
 570 579 l 2,17,18
 581 579 581 579 589 570 c 128,-1,19
 597 561 597 561 597 546 c 0,20,21
 597 513 597 513 559 513 c 2,22,-1
 553 513 l 1,23,-1
 485 25 l 2,24,25
 483 11 483 11 479.5 5.5 c 128,-1,26
 476 0 476 0 466 0 c 2,27,-1
 431 0 l 2,28,29
 411 0 411 0 404 21 c 2,30,-1
 298 357 l 1,31,-1
 204 20 l 2,32,33
 199 0 199 0 178 0 c 2,34,-1
 141 0 l 2,35,36
 133 0 133 0 128.5 3.5 c 128,-1,37
 124 7 124 7 122.5 11.5 c 128,-1,38
 121 16 121 16 120 26 c 2,39,-1
 46 513 l 1,40,-1
 40 513 l 2,41,42
 2 513 2 513 2 546 c 0,43,44
 2 561 2 561 10 570 c 128,-1,45
 18 579 18 579 29 579 c 2,46,-1
 187 579 l 2,47,48
 212 579 212 579 223 572 c 128,-1,49
 234 565 234 565 234 546 c 0,50,51
 234 513 234 513 191 513 c 2,52,-1
 122 513 l 1,53,-1
 175 125 l 1,0,-1
EndSplineSet
EndChar
StartChar: X
Encoding: 88 88 59
Width: 602
Flags: W
LayerCount: 2
Back
Fore
SplineSet
95 509 m 1,0,1
 56 510 56 510 56 544 c 0,2,3
 56 579 56 579 90 579 c 2,4,-1
 213 579 l 2,5,6
 249 579 249 579 249 544 c 0,7,8
 249 508 249 508 204 508 c 0,9,10
 195 508 195 508 190 509 c 2,11,-1
 301 352 l 1,12,-1
 416 509 l 2,13,14
 411 508 411 508 401 508 c 0,15,16
 350 508 350 508 350 544 c 0,17,18
 350 560 350 560 360.5 569.5 c 128,-1,19
 371 579 371 579 389 579 c 2,20,-1
 512 579 l 2,21,22
 546 579 546 579 546 544 c 128,-1,23
 546 509 546 509 503 509 c 1,24,-1
 347 298 l 1,25,-1
 517 69 l 1,26,27
 559 68 559 68 559 35 c 0,28,29
 559 19 559 19 549 9.5 c 128,-1,30
 539 0 539 0 522 0 c 2,31,-1
 392 0 l 2,32,33
 368 0 368 0 358.5 7 c 128,-1,34
 349 14 349 14 349 35 c 0,35,36
 349 55 349 55 360 62.5 c 128,-1,37
 371 70 371 70 399 70 c 0,38,39
 402 70 402 70 410 69.5 c 128,-1,40
 418 69 418 69 422 69 c 2,41,-1
 297 241 l 1,42,-1
 174 69 l 1,43,44
 183 70 183 70 200 70 c 0,45,46
 228 70 228 70 240 62.5 c 128,-1,47
 252 55 252 55 252 35 c 0,48,49
 252 14 252 14 242.5 7 c 128,-1,50
 233 0 233 0 209 0 c 2,51,-1
 79 0 l 2,52,53
 63 0 63 0 53 9.5 c 128,-1,54
 43 19 43 19 43 35 c 0,55,56
 43 68 43 68 86 69 c 1,57,-1
 251 295 l 1,58,-1
 95 509 l 1,0,1
EndSplineSet
EndChar
StartChar: Y
Encoding: 89 89 60
Width: 602
Flags: W
LayerCount: 2
Back
Fore
SplineSet
408 69 m 2,0,1
 442 69 442 69 454.5 63 c 128,-1,2
 467 57 467 57 467 35 c 128,-1,3
 467 13 467 13 455.5 6.5 c 128,-1,4
 444 0 444 0 414 0 c 2,5,-1
 182 0 l 2,6,7
 153 0 153 0 141.5 6.5 c 128,-1,8
 130 13 130 13 130 35 c 128,-1,9
 130 57 130 57 142 63 c 128,-1,10
 154 69 154 69 189 69 c 2,11,-1
 260 69 l 1,12,-1
 260 231 l 1,13,-1
 97 509 l 1,14,-1
 89 509 l 2,15,16
 61 509 61 509 49.5 516.5 c 128,-1,17
 38 524 38 524 38 544 c 0,18,19
 38 567 38 567 51 573 c 128,-1,20
 64 579 64 579 97 579 c 2,21,-1
 209 579 l 2,22,23
 236 579 236 579 247 572 c 128,-1,24
 258 565 258 565 258 544 c 0,25,26
 258 524 258 524 245 516.5 c 128,-1,27
 232 509 232 509 202 509 c 2,28,-1
 186 509 l 1,29,-1
 304 297 l 1,30,-1
 427 509 l 2,31,32
 423 509 423 509 416.5 508.5 c 128,-1,33
 410 508 410 508 407 508 c 0,34,35
 381 508 381 508 370 516 c 128,-1,36
 359 524 359 524 359 544 c 0,37,38
 359 567 359 567 370 573 c 128,-1,39
 381 579 381 579 413 579 c 2,40,-1
 426 579 l 1,41,-1
 503 579 l 2,42,43
 537 579 537 579 549 573 c 128,-1,44
 561 567 561 567 561 544 c 0,45,46
 561 524 561 524 550 516.5 c 128,-1,47
 539 509 539 509 511 509 c 2,48,-1
 503 509 l 1,49,-1
 337 224 l 1,50,-1
 337 69 l 1,51,-1
 408 69 l 2,0,1
EndSplineSet
EndChar
StartChar: Z
Encoding: 90 90 61
Width: 602
Flags: W
LayerCount: 2
Back
Fore
SplineSet
187 509 m 1,0,-1
 182 407 l 2,1,2
 181 394 181 394 181 384 c 0,3,4
 181 350 181 350 144 350 c 0,5,6
 110 350 110 350 110 390 c 2,7,8
 110 390 110 390 110 399 c 2,9,10
 110 399 110 399 110 410 c 2,11,-1
 116 545 l 2,12,13
 117 579 117 579 153 579 c 2,14,-1
 433 579 l 2,15,16
 491 579 491 579 491 537 c 0,17,18
 491 515 491 515 473 488 c 2,19,-1
 184 69 l 1,20,-1
 411 69 l 1,21,-1
 416 183 l 2,22,23
 417 208 417 208 419 218 c 128,-1,24
 421 228 421 228 429 234.5 c 128,-1,25
 437 241 437 241 454 241 c 0,26,27
 489 241 489 241 489 199 c 0,28,29
 489 196 489 196 488.5 190 c 128,-1,30
 488 184 488 184 488 181 c 2,31,-1
 481 33 l 2,32,33
 480 0 480 0 444 0 c 2,34,-1
 137 0 l 2,35,36
 116 0 116 0 103 12 c 128,-1,37
 90 24 90 24 90 44 c 0,38,39
 90 68 90 68 114 102 c 2,40,-1
 394 509 l 1,41,-1
 187 509 l 1,0,-1
EndSplineSet
EndChar
StartChar: bracketleft
Encoding: 91 91 62
Width: 602
Flags: W
LayerCount: 2
Back
Fore
SplineSet
286 -121 m 1,0,-1
 368 -121 l 2,1,2
 400 -121 400 -121 400 -150 c 0,3,4
 400 -181 400 -181 369 -181 c 2,5,-1
 237 -181 l 2,6,7
 221 -181 221 -181 211.5 -172 c 128,-1,8
 202 -163 202 -163 202 -149 c 2,9,-1
 202 547 l 2,10,11
 202 561 202 561 211.5 570 c 128,-1,12
 221 579 221 579 237 579 c 2,13,-1
 369 579 l 2,14,15
 400 579 400 579 400 549 c 0,16,17
 400 536 400 536 391 527.5 c 128,-1,18
 382 519 382 519 368 519 c 2,19,-1
 286 519 l 1,20,-1
 286 -121 l 1,0,-1
EndSplineSet
EndChar
StartChar: backslash
Encoding: 92 92 63
Width: 602
Flags: W
LayerCount: 2
Back
Fore
SplineSet
436 -33 m 2,0,-1
 118 648 l 2,1,2
 114 656 114 656 114 666 c 0,3,4
 114 679 114 679 123.5 688.5 c 128,-1,5
 133 698 133 698 147 698 c 0,6,7
 158 698 158 698 168 691.5 c 128,-1,8
 178 685 178 685 182 676 c 2,9,-1
 497 -1 l 2,10,11
 502 -13 502 -13 502 -21 c 0,12,13
 502 -35 502 -35 492 -45 c 128,-1,14
 482 -55 482 -55 468 -55 c 0,15,16
 446 -55 446 -55 436 -33 c 2,0,-1
EndSplineSet
EndChar
StartChar: bracketright
Encoding: 93 93 64
Width: 602
Flags: W
LayerCount: 2
Back
Fore
SplineSet
316 519 m 1,0,-1
 234 519 l 2,1,2
 220 519 220 519 211 527.5 c 128,-1,3
 202 536 202 536 202 549 c 0,4,5
 202 579 202 579 233 579 c 2,6,-1
 364 579 l 2,7,8
 380 579 380 579 390 570 c 128,-1,9
 400 561 400 561 400 547 c 2,10,-1
 400 -149 l 2,11,12
 400 -163 400 -163 390 -172 c 128,-1,13
 380 -181 380 -181 364 -181 c 2,14,-1
 233 -181 l 2,15,16
 202 -181 202 -181 202 -150 c 0,17,18
 202 -121 202 -121 234 -121 c 2,19,-1
 316 -121 l 1,20,-1
 316 519 l 1,0,-1
EndSplineSet
EndChar
StartChar: underscore
Encoding: 95 95 66
Width: 602
Flags: W
LayerCount: 2
Back
Fore
SplineSet
602 -218 m 2,0,1
 625 -218 625 -218 625 -238 c 2,2,-1
 625 -275 l 2,3,4
 625 -285 625 -285 618 -292 c 128,-1,5
 611 -299 611 -299 602 -299 c 2,6,-1
 0 -299 l 2,7,8
 -10 -299 -10 -299 -16 -292.5 c 128,-1,9
 -22 -286 -22 -286 -22 -275 c 2,10,-1
 -22 -238 l 2,11,12
 -22 -218 -22 -218 0 -218 c 2,13,-1
 602 -218 l 2,0,1
EndSplineSet
EndChar
StartChar: grave
Encoding: 96 96 126
Width: 602
Flags: W
LayerCount: 2
Back
Fore
SplineSet
393 505 m 1,0,-1
 138 595 l 2,1,2
 125 600 125 600 125 614 c 0,3,4
 125 622 125 622 127 625 c 2,5,-1
 143 654 l 2,6,7
 150 669 150 669 166 669 c 0,8,9
 169 669 169 669 173 667 c 2,10,-1
 406 531 l 1,11,-1
 393 505 l 1,0,-1
EndSplineSet
EndChar
StartChar: a
Encoding: 97 97 68
Width: 602
Flags: W
LayerCount: 2
Back
Fore
SplineSet
412 62 m 1,0,1
 330 -12 330 -12 229 -12 c 0,2,3
 156 -12 156 -12 111.5 28.5 c 128,-1,4
 67 69 67 69 67 134 c 0,5,6
 67 210 67 210 126 253 c 128,-1,7
 185 296 185 296 293 296 c 0,8,9
 349 296 349 296 409 281 c 1,10,-1
 409 284 l 2,11,12
 409 394 409 394 299 394 c 0,13,14
 261 394 261 394 214 373.5 c 128,-1,15
 167 353 167 353 152 353 c 0,16,17
 138 353 138 353 128.5 364.5 c 128,-1,18
 119 376 119 376 119 394 c 0,19,20
 119 421 119 421 170.5 442 c 128,-1,21
 222 463 222 463 301 463 c 0,22,23
 395 463 395 463 439.5 421 c 128,-1,24
 484 379 484 379 484 290 c 2,25,-1
 484 69 l 1,26,-1
 509 69 l 2,27,28
 542 69 542 69 554.5 62.5 c 128,-1,29
 567 56 567 56 567 35 c 0,30,31
 567 0 567 0 528 0 c 2,32,-1
 451 0 l 2,33,34
 423 0 423 0 417 32 c 2,35,-1
 412 62 l 1,0,1
409 216 m 1,36,37
 358 233 358 233 306 233 c 0,38,39
 230 233 230 233 187.5 207 c 128,-1,40
 145 181 145 181 145 139 c 0,41,42
 145 106 145 106 172 84.5 c 128,-1,43
 199 63 199 63 241 63 c 0,44,45
 305 63 305 63 357 96 c 128,-1,46
 409 129 409 129 409 163 c 2,47,-1
 409 216 l 1,36,37
EndSplineSet
EndChar
StartChar: b
Encoding: 98 98 69
Width: 602
Flags: W
LayerCount: 2
Back
Fore
SplineSet
175 381 m 1,0,1
 231 451 231 451 336 451 c 0,2,3
 434 451 434 451 499.5 384.5 c 128,-1,4
 565 318 565 318 565 221 c 0,5,6
 565 125 565 125 498.5 58 c 128,-1,7
 432 -9 432 -9 334 -9 c 0,8,9
 231 -9 231 -9 182 64 c 1,10,-1
 182 25 l 2,11,12
 182 0 182 0 162 0 c 2,13,-1
 73 0 l 2,14,15
 34 0 34 0 34 35 c 0,16,17
 34 55 34 55 47 62 c 128,-1,18
 60 69 60 69 91 69 c 2,19,-1
 101 69 l 1,20,-1
 101 569 l 2,21,22
 98 569 98 569 90 569.5 c 128,-1,23
 82 570 82 570 79 570 c 0,24,25
 34 570 34 570 34 604 c 0,26,27
 34 639 34 639 73 639 c 2,28,-1
 147 639 l 2,29,30
 175 639 175 639 175 619 c 2,31,-1
 175 381 l 1,0,1
327 68 m 128,-1,33
 395 68 395 68 438 111 c 128,-1,34
 481 154 481 154 481 224 c 0,35,36
 481 291 481 291 438 335.5 c 128,-1,37
 395 380 395 380 327 380 c 0,38,39
 260 380 260 380 216.5 336 c 128,-1,40
 173 292 173 292 173 224 c 128,-1,41
 173 156 173 156 216 112 c 128,-1,32
 259 68 259 68 327 68 c 128,-1,33
EndSplineSet
EndChar
StartChar: c
Encoding: 99 99 70
Width: 602
Flags: W
LayerCount: 2
Back
Fore
SplineSet
521 304 m 2,0,1
 521 268 521 268 484 268 c 0,2,3
 469 268 469 268 459.5 276.5 c 128,-1,4
 450 285 450 285 438 307 c 0,5,6
 393 387 393 387 304 387 c 0,7,8
 228 387 228 387 180.5 342 c 128,-1,9
 133 297 133 297 133 226 c 0,10,11
 133 153 133 153 178.5 107 c 128,-1,12
 224 61 224 61 300 61 c 0,13,14
 359 61 359 61 414 97 c 0,15,16
 423 103 423 103 439.5 116 c 128,-1,17
 456 129 456 129 466.5 135 c 128,-1,18
 477 141 477 141 489 141 c 0,19,20
 504 141 504 141 513.5 131.5 c 128,-1,21
 523 122 523 122 523 107 c 0,22,23
 523 70 523 70 451 29 c 128,-1,24
 379 -12 379 -12 295 -12 c 0,25,26
 189 -12 189 -12 118.5 56 c 128,-1,27
 48 124 48 124 48 225 c 128,-1,28
 48 326 48 326 118.5 394.5 c 128,-1,29
 189 463 189 463 294 463 c 0,30,31
 366 463 366 463 448 422 c 1,32,-1
 448 424 l 2,33,34
 448 455 448 455 486 455 c 0,35,36
 507 455 507 455 514 442 c 128,-1,37
 521 429 521 429 521 395 c 2,38,-1
 521 304 l 2,0,1
EndSplineSet
EndChar
StartChar: d
Encoding: 100 100 71
Width: 602
Flags: W
LayerCount: 2
Back
Fore
SplineSet
128 219 m 0,0,1
 128 151 128 151 171.5 108.5 c 128,-1,2
 215 66 215 66 281 66 c 0,3,4
 348 66 348 66 392 111 c 128,-1,5
 436 156 436 156 436 224 c 128,-1,6
 436 292 436 292 393 336 c 128,-1,7
 350 380 350 380 282 380 c 0,8,9
 213 380 213 380 170.5 336 c 128,-1,10
 128 292 128 292 128 219 c 0,0,1
448 0 m 2,11,12
 429 0 429 0 429 25 c 2,13,-1
 429 65 l 1,14,15
 368 -12 368 -12 261 -12 c 0,16,17
 168 -12 168 -12 106 53.5 c 128,-1,18
 44 119 44 119 44 221 c 0,19,20
 44 318 44 318 110.5 385 c 128,-1,21
 177 452 177 452 276 452 c 0,22,23
 378 452 378 452 435 382 c 1,24,-1
 435 569 l 1,25,-1
 409 569 l 2,26,27
 371 569 371 569 356.5 575.5 c 128,-1,28
 342 582 342 582 342 604 c 0,29,30
 342 639 342 639 381 639 c 2,31,-1
 481 639 l 2,32,33
 509 639 509 639 509 619 c 2,34,-1
 509 69 l 1,35,-1
 531 69 l 2,36,37
 576 69 576 69 576 35 c 0,38,39
 576 19 576 19 566.5 9.5 c 128,-1,40
 557 0 557 0 541 0 c 2,41,-1
 448 0 l 2,11,12
EndSplineSet
EndChar
StartChar: e
Encoding: 101 101 72
Width: 602
Flags: W
LayerCount: 2
Back
Fore
SplineSet
138 268 m 1,0,-1
 456 268 l 1,1,2
 449 326 449 326 407.5 361.5 c 128,-1,3
 366 397 366 397 306 397 c 0,4,5
 241 397 241 397 196.5 363 c 128,-1,6
 152 329 152 329 138 268 c 1,0,-1
136 204 m 1,7,8
 140 134 140 134 183.5 95.5 c 128,-1,9
 227 57 227 57 303 57 c 0,10,11
 346 57 346 57 388 72.5 c 128,-1,12
 430 88 430 88 461 103 c 128,-1,13
 492 118 492 118 509 118 c 0,14,15
 523 118 523 118 533 108.5 c 128,-1,16
 543 99 543 99 543 86 c 0,17,18
 543 58 543 58 500 37 c 0,19,20
 401 -12 401 -12 296 -12 c 0,21,22
 183 -12 183 -12 117 52.5 c 128,-1,23
 51 117 51 117 51 227 c 0,24,25
 51 332 51 332 122 398 c 128,-1,26
 193 464 193 464 306 464 c 0,27,28
 413 464 413 464 479 400 c 128,-1,29
 545 336 545 336 545 250 c 0,30,31
 545 218 545 218 529.5 211 c 128,-1,32
 514 204 514 204 464 204 c 2,33,-1
 136 204 l 1,7,8
EndSplineSet
EndChar
StartChar: f
Encoding: 102 102 73
Width: 602
Flags: W
LayerCount: 2
Back
Fore
SplineSet
451 70 m 2,0,1
 492 70 492 70 492 35 c 128,-1,2
 492 0 492 0 453 0 c 2,3,-1
 134 0 l 2,4,5
 93 0 93 0 93 35 c 128,-1,6
 93 70 93 70 132 70 c 2,7,-1
 215 70 l 1,8,-1
 215 368 l 1,9,-1
 134 368 l 2,10,11
 94 368 94 368 94 404 c 0,12,13
 94 439 94 439 133 439 c 2,14,-1
 211 439 l 1,15,16
 209 463 209 463 209 474 c 0,17,18
 209 561 209 561 260 600.5 c 128,-1,19
 311 640 311 640 423 640 c 0,20,21
 530 640 530 640 530 590 c 0,22,23
 530 574 530 574 518.5 564.5 c 128,-1,24
 507 555 507 555 490 555 c 0,25,26
 480 555 480 555 447 561 c 128,-1,27
 414 567 414 567 390 567 c 0,28,29
 335 567 335 567 311 543.5 c 128,-1,30
 287 520 287 520 287 467 c 0,31,32
 287 449 287 449 288 439 c 1,33,-1
 459 439 l 2,34,35
 500 439 500 439 500 404 c 0,36,37
 500 368 500 368 461 368 c 2,38,-1
 291 368 l 1,39,-1
 291 70 l 1,40,-1
 451 70 l 2,0,1
EndSplineSet
EndChar
StartChar: g
Encoding: 103 103 74
Width: 602
Flags: W
LayerCount: 2
Back
Fore
SplineSet
499 26 m 1,0,1
 499 26 499 26 499 15 c 0,2,3
 499 -19 499 -19 497.5 -37.5 c 128,-1,4
 496 -56 496 -56 489.5 -79.5 c 128,-1,5
 483 -103 483 -103 469 -121 c 0,6,7
 412 -195 412 -195 276 -195 c 0,8,9
 169 -195 169 -195 169 -150 c 0,10,11
 169 -135 169 -135 181.5 -123.5 c 128,-1,12
 194 -112 194 -112 211 -112 c 0,13,14
 226 -112 226 -112 253 -115.5 c 128,-1,15
 280 -119 280 -119 293 -119 c 0,16,17
 367 -119 367 -119 396.5 -84.5 c 128,-1,18
 426 -50 426 -50 426 28 c 2,19,-1
 426 87 l 1,20,21
 368 20 368 20 277 20 c 128,-1,22
 186 20 186 20 126 81 c 128,-1,23
 66 142 66 142 66 237 c 0,24,25
 66 330 66 330 128.5 391 c 128,-1,26
 191 452 191 452 281 452 c 0,27,28
 354 452 354 452 425 396 c 1,29,-1
 425 431 l 2,30,31
 425 451 425 451 453 451 c 2,32,-1
 527 451 l 2,33,34
 566 451 566 451 566 417 c 0,35,36
 566 397 566 397 553 389.5 c 128,-1,37
 540 382 540 382 508 382 c 2,38,-1
 499 382 l 1,39,-1
 499 26 l 1,0,1
287 379 m 128,-1,41
 223 379 223 379 182.5 339.5 c 128,-1,42
 142 300 142 300 142 237 c 0,43,44
 142 175 142 175 182.5 135 c 128,-1,45
 223 95 223 95 287 95 c 128,-1,46
 351 95 351 95 391.5 135 c 128,-1,47
 432 175 432 175 432 237 c 128,-1,48
 432 299 432 299 391.5 339 c 128,-1,40
 351 379 351 379 287 379 c 128,-1,41
EndSplineSet
EndChar
StartChar: h
Encoding: 104 104 75
Width: 602
Flags: W
LayerCount: 2
Back
Fore
SplineSet
117 69 m 1,0,-1
 117 569 l 2,1,2
 114 569 114 569 106 569.5 c 128,-1,3
 98 570 98 570 95 570 c 0,4,5
 50 570 50 570 50 604 c 0,6,7
 50 639 50 639 89 639 c 2,8,-1
 163 639 l 2,9,10
 191 639 191 639 191 619 c 2,11,-1
 191 398 l 1,12,13
 262 464 262 464 334 464 c 128,-1,14
 406 464 406 464 450 418.5 c 128,-1,15
 494 373 494 373 494 290 c 2,16,-1
 494 69 l 1,17,-1
 515 69 l 2,18,19
 561 69 561 69 561 35 c 0,20,21
 561 0 561 0 522 0 c 2,22,-1
 392 0 l 2,23,24
 370 0 370 0 361.5 7 c 128,-1,25
 353 14 353 14 353 35 c 0,26,27
 353 55 353 55 363.5 62 c 128,-1,28
 374 69 374 69 401 69 c 2,29,-1
 420 69 l 1,30,-1
 420 272 l 2,31,32
 420 330 420 330 393 359.5 c 128,-1,33
 366 389 366 389 317 389 c 0,34,35
 269 389 269 389 229.5 356.5 c 128,-1,36
 190 324 190 324 190 272 c 2,37,-1
 190 69 l 1,38,39
 194 69 194 69 201 69.5 c 128,-1,40
 208 70 208 70 211 70 c 0,41,42
 237 70 237 70 247.5 62.5 c 128,-1,43
 258 55 258 55 258 35 c 0,44,45
 258 14 258 14 249.5 7 c 128,-1,46
 241 0 241 0 219 0 c 2,47,-1
 89 0 l 2,48,49
 50 0 50 0 50 35 c 0,50,51
 50 55 50 55 63 62 c 128,-1,52
 76 69 76 69 107 69 c 2,53,-1
 117 69 l 1,0,-1
EndSplineSet
EndChar
StartChar: i
Encoding: 105 105 76
Width: 602
Flags: W
LayerCount: 2
Back
Fore
SplineSet
346 69 m 1,0,-1
 503 69 l 2,1,2
 540 69 540 69 540 35 c 0,3,4
 540 15 540 15 531 7.5 c 128,-1,5
 522 0 522 0 500 0 c 2,6,-1
 121 0 l 2,7,8
 82 0 82 0 82 35 c 0,9,10
 82 69 82 69 123 69 c 2,11,-1
 272 69 l 1,12,-1
 272 382 l 1,13,-1
 177 382 l 2,14,15
 136 382 136 382 136 417 c 0,16,17
 136 451 136 451 175 451 c 2,18,-1
 318 451 l 2,19,20
 346 451 346 451 346 431 c 2,21,-1
 346 69 l 1,0,-1
255 592 m 0,22,23
 255 642 255 642 264 657 c 128,-1,24
 273 672 273 672 306 672 c 0,25,26
 338 672 338 672 347 659 c 128,-1,27
 356 646 356 646 356 606 c 128,-1,28
 356 566 356 566 348 555 c 128,-1,29
 340 544 340 544 306 544 c 0,30,31
 275 544 275 544 265 553 c 128,-1,32
 255 562 255 562 255 592 c 0,22,23
EndSplineSet
EndChar
StartChar: j
Encoding: 106 106 77
Width: 602
Flags: W
LayerCount: 2
Back
Fore
SplineSet
451 67 m 2,0,1
 451 -52 451 -52 437 -88 c 0,2,3
 418 -137 418 -137 363.5 -165 c 128,-1,4
 309 -193 309 -193 227 -193 c 0,5,6
 120 -193 120 -193 120 -147 c 0,7,8
 120 -132 120 -132 132.5 -120.5 c 128,-1,9
 145 -109 145 -109 162 -109 c 0,10,11
 177 -109 177 -109 204 -112.5 c 128,-1,12
 231 -116 231 -116 244 -116 c 0,13,14
 318 -116 318 -116 347.5 -81.5 c 128,-1,15
 377 -47 377 -47 377 31 c 2,16,-1
 377 382 l 1,17,-1
 186 382 l 1,18,-1
 161 382 l 2,19,20
 115 382 115 382 115 417 c 0,21,22
 115 451 115 451 154 451 c 2,23,-1
 423 451 l 2,24,25
 451 451 451 451 451 431 c 2,26,-1
 451 398 l 1,27,-1
 451 67 l 2,0,1
319 592 m 0,28,29
 319 642 319 642 328 657 c 128,-1,30
 337 672 337 672 370 672 c 0,31,32
 402 672 402 672 410.5 659 c 128,-1,33
 419 646 419 646 419 606 c 128,-1,34
 419 566 419 566 411 555 c 128,-1,35
 403 544 403 544 369 544 c 0,36,37
 338 544 338 544 328.5 553 c 128,-1,38
 319 562 319 562 319 592 c 0,28,29
EndSplineSet
EndChar
StartChar: k
Encoding: 107 107 78
Width: 602
Flags: W
LayerCount: 2
Back
Fore
SplineSet
212 187 m 1,0,-1
 212 43 l 2,1,2
 212 23 212 23 204 11.5 c 128,-1,3
 196 0 196 0 183 0 c 2,4,-1
 93 0 l 2,5,6
 53 0 53 0 53 35 c 0,7,8
 53 56 53 56 66.5 62.5 c 128,-1,9
 80 69 80 69 115 69 c 2,10,-1
 138 69 l 1,11,-1
 138 569 l 1,12,-1
 118 569 l 2,13,14
 81 569 81 569 66.5 575.5 c 128,-1,15
 52 582 52 582 52 604 c 0,16,17
 52 639 52 639 91 639 c 2,18,-1
 184 639 l 2,19,20
 212 639 212 639 212 619 c 2,21,-1
 212 269 l 1,22,-1
 353 387 l 1,23,24
 322 400 322 400 322 422 c 0,25,26
 322 451 322 451 364 451 c 2,27,-1
 496 451 l 2,28,29
 534 451 534 451 534 418 c 0,30,31
 534 411 534 411 533 405.5 c 128,-1,32
 532 400 532 400 528.5 396.5 c 128,-1,33
 525 393 525 393 522 391 c 128,-1,34
 519 389 519 389 512 387.5 c 128,-1,35
 505 386 505 386 501 385.5 c 128,-1,36
 497 385 497 385 487 384 c 128,-1,37
 477 383 477 383 472 382 c 0,38,39
 433 377 433 377 380 332 c 2,40,-1
 309 270 l 1,41,-1
 493 70 l 1,42,-1
 536 70 l 2,43,44
 557 70 557 70 566 62 c 128,-1,45
 575 54 575 54 575 35 c 0,46,47
 575 0 575 0 536 0 c 2,48,-1
 404 0 l 2,49,50
 363 0 363 0 363 31 c 0,51,52
 363 57 363 57 401 69 c 1,53,-1
 256 227 l 1,54,-1
 212 187 l 1,0,-1
EndSplineSet
EndChar
StartChar: l
Encoding: 108 108 79
Width: 602
Flags: W
LayerCount: 2
Back
Fore
SplineSet
491 0 m 2,0,1
 513 0 513 0 522 7.5 c 128,-1,2
 531 15 531 15 531 35 c 0,3,4
 531 69 531 69 494 69 c 2,5,-1
 342 69 l 1,6,-1
 342 619 l 2,7,8
 342 639 342 639 314 639 c 2,9,-1
 153 639 l 2,10,11
 114 639 114 639 114 604 c 0,12,13
 114 570 114 570 160 570 c 0,14,15
 162 570 162 570 170.5 569.5 c 128,-1,16
 179 569 179 569 185 569 c 2,17,-1
 268 569 l 1,18,-1
 268 0 l 1,19,-1
 491 0 l 2,0,1
EndSplineSet
EndChar
StartChar: m
Encoding: 109 109 80
Width: 602
Flags: W
LayerCount: 2
Back
Fore
SplineSet
479 272 m 2,0,1
 479 335 479 335 469.5 362 c 128,-1,2
 460 389 460 389 426 389 c 0,3,4
 391 389 391 389 369 359 c 128,-1,5
 347 329 347 329 347 272 c 2,6,-1
 347 69 l 1,7,-1
 356 69 l 2,8,9
 385 69 385 69 396 62 c 128,-1,10
 407 55 407 55 407 35 c 0,11,12
 407 0 407 0 373 0 c 2,13,-1
 311 0 l 2,14,15
 288 0 288 0 282.5 11 c 128,-1,16
 277 22 277 22 277 53 c 2,17,-1
 277 66 l 1,18,-1
 277 272 l 1,19,-1
 277 310 l 2,20,21
 277 347 277 347 259 368 c 128,-1,22
 241 389 241 389 213 389 c 0,23,24
 168 389 168 389 141 338 c 1,25,-1
 141 69 l 1,26,27
 145 69 145 69 152 69.5 c 128,-1,28
 159 70 159 70 162 70 c 0,29,30
 188 70 188 70 198.5 62.5 c 128,-1,31
 209 55 209 55 209 35 c 128,-1,32
 209 15 209 15 200 7.5 c 128,-1,33
 191 0 191 0 169 0 c 2,34,-1
 39 0 l 2,35,36
 1 0 1 0 1 35 c 0,37,38
 1 55 1 55 14 62 c 128,-1,39
 27 69 27 69 58 69 c 2,40,-1
 68 69 l 1,41,-1
 68 382 l 1,42,-1
 46 382 l 2,43,44
 1 382 1 382 1 417 c 0,45,46
 1 451 1 451 39 451 c 2,47,-1
 114 451 l 2,48,49
 130 451 130 451 135.5 445.5 c 128,-1,50
 141 440 141 440 142 422 c 1,51,52
 180 464 180 464 236 464 c 0,53,54
 304 464 304 464 325 404 c 1,55,56
 366 464 366 464 434 464 c 0,57,58
 499 464 499 464 526.5 421.5 c 128,-1,59
 554 379 554 379 554 290 c 2,60,-1
 554 69 l 1,61,-1
 563 69 l 2,62,63
 592 69 592 69 603 62 c 128,-1,64
 614 55 614 55 614 35 c 0,65,66
 614 0 614 0 579 0 c 2,67,-1
 520 0 l 2,68,69
 479 0 479 0 479 49 c 2,70,-1
 479 272 l 2,0,1
EndSplineSet
EndChar
StartChar: n
Encoding: 110 110 81
Width: 602
Flags: W
LayerCount: 2
Back
Fore
SplineSet
119 69 m 1,0,-1
 119 382 l 1,1,2
 119 382 119 382 97 382 c 0,3,4
 52 382 52 382 52 417 c 0,5,6
 52 440 52 440 66 445.5 c 128,-1,7
 80 451 80 451 119 451 c 2,8,-1
 165 451 l 2,9,10
 193 451 193 451 193 431 c 2,11,-1
 193 398 l 1,12,13
 264 464 264 464 336 464 c 128,-1,14
 408 464 408 464 451.5 418.5 c 128,-1,15
 495 373 495 373 495 290 c 2,16,-1
 495 69 l 1,17,-1
 517 69 l 2,18,19
 563 69 563 69 563 35 c 0,20,21
 563 15 563 15 551 7.5 c 128,-1,22
 539 0 539 0 511 0 c 2,23,-1
 403 0 l 2,24,25
 374 0 374 0 364 6 c 128,-1,26
 354 12 354 12 354 35 c 0,27,28
 354 55 354 55 365 62 c 128,-1,29
 376 69 376 69 403 69 c 2,30,-1
 419 69 l 1,31,-1
 419 272 l 2,32,33
 419 389 419 389 319 389 c 0,34,35
 271 389 271 389 231.5 356.5 c 128,-1,36
 192 324 192 324 192 272 c 2,37,-1
 192 69 l 1,38,39
 196 69 196 69 203 69.5 c 128,-1,40
 210 70 210 70 213 70 c 0,41,42
 239 70 239 70 249.5 62.5 c 128,-1,43
 260 55 260 55 260 35 c 0,44,45
 260 12 260 12 249.5 6 c 128,-1,46
 239 0 239 0 208 0 c 2,47,-1
 119 0 l 1,48,-1
 93 0 l 2,49,50
 52 0 52 0 52 35 c 0,51,52
 52 55 52 55 65 62 c 128,-1,53
 78 69 78 69 109 69 c 2,54,-1
 119 69 l 1,0,-1
EndSplineSet
EndChar
StartChar: o
Encoding: 111 111 82
Width: 602
Flags: W
LayerCount: 2
Back
Fore
SplineSet
556 225 m 128,-1,1
 556 122 556 122 486 55 c 128,-1,2
 416 -12 416 -12 301 -12 c 128,-1,3
 186 -12 186 -12 115.5 55 c 128,-1,4
 45 122 45 122 45 225 c 128,-1,5
 45 328 45 328 115.5 395 c 128,-1,6
 186 462 186 462 301 462 c 128,-1,7
 416 462 416 462 486 395 c 128,-1,0
 556 328 556 328 556 225 c 128,-1,1
301 56 m 128,-1,9
 376 56 376 56 424 103.5 c 128,-1,10
 472 151 472 151 472 225 c 0,11,12
 472 298 472 298 424 346.5 c 128,-1,13
 376 395 376 395 301 395 c 128,-1,14
 226 395 226 395 178 346.5 c 128,-1,15
 130 298 130 298 130 225 c 128,-1,16
 130 152 130 152 178 104 c 128,-1,8
 226 56 226 56 301 56 c 128,-1,9
EndSplineSet
EndChar
StartChar: p
Encoding: 112 112 83
Width: 602
Flags: W
LayerCount: 2
Back
Fore
SplineSet
326 71 m 128,-1,1
 394 71 394 71 437.5 113.5 c 128,-1,2
 481 156 481 156 481 224 c 0,3,4
 481 290 481 290 437.5 333.5 c 128,-1,5
 394 377 394 377 326 377 c 128,-1,6
 258 377 258 377 215 333.5 c 128,-1,7
 172 290 172 290 172 224 c 128,-1,8
 172 158 172 158 215 114.5 c 128,-1,0
 258 71 258 71 326 71 c 128,-1,1
174 -125 m 1,9,-1
 292 -125 l 2,10,11
 329 -125 329 -125 329 -160 c 0,12,13
 329 -180 329 -180 319.5 -187.5 c 128,-1,14
 310 -195 310 -195 288 -195 c 2,15,-1
 72 -195 l 2,16,17
 33 -195 33 -195 33 -160 c 0,18,19
 33 -140 33 -140 46.5 -132.5 c 128,-1,20
 60 -125 60 -125 92 -125 c 2,21,-1
 101 -125 l 1,22,-1
 101 382 l 1,23,-1
 79 382 l 2,24,25
 33 382 33 382 33 417 c 0,26,27
 33 451 33 451 72 451 c 2,28,-1
 147 451 l 2,29,30
 175 451 175 451 175 431 c 2,31,-1
 175 384 l 1,32,33
 241 452 241 452 335 452 c 0,34,35
 432 452 432 452 498.5 386 c 128,-1,36
 565 320 565 320 565 219 c 0,37,38
 565 122 565 122 502.5 60.5 c 128,-1,39
 440 -1 440 -1 343 -1 c 0,40,41
 236 -1 236 -1 174 70 c 1,42,-1
 174 -125 l 1,9,-1
EndSplineSet
EndChar
StartChar: q
Encoding: 113 113 84
Width: 602
Flags: W
LayerCount: 2
Back
Fore
SplineSet
430 -125 m 1,0,-1
 430 70 l 1,1,2
 368 -1 368 -1 261 -1 c 0,3,4
 164 -1 164 -1 101.5 60.5 c 128,-1,5
 39 122 39 122 39 219 c 0,6,7
 39 320 39 320 106 386 c 128,-1,8
 173 452 173 452 270 452 c 0,9,10
 364 452 364 452 430 384 c 1,11,-1
 430 431 l 2,12,13
 430 451 430 451 458 451 c 2,14,-1
 532 451 l 2,15,16
 571 451 571 451 571 417 c 0,17,18
 571 397 571 397 558 389.5 c 128,-1,19
 545 382 545 382 513 382 c 2,20,-1
 504 382 l 1,21,-1
 504 -125 l 1,22,-1
 525 -125 l 2,23,24
 571 -125 571 -125 571 -160 c 128,-1,25
 571 -195 571 -195 532 -195 c 2,26,-1
 316 -195 l 2,27,28
 294 -195 294 -195 284.5 -187.5 c 128,-1,29
 275 -180 275 -180 275 -160 c 0,30,31
 275 -125 275 -125 313 -125 c 2,32,-1
 430 -125 l 1,0,-1
124 224 m 0,33,34
 124 156 124 156 167 113.5 c 128,-1,35
 210 71 210 71 278 71 c 128,-1,36
 346 71 346 71 389 114.5 c 128,-1,37
 432 158 432 158 432 224 c 128,-1,38
 432 290 432 290 389 333.5 c 128,-1,39
 346 377 346 377 278 377 c 128,-1,40
 210 377 210 377 167 334 c 128,-1,41
 124 291 124 291 124 224 c 0,33,34
EndSplineSet
EndChar
StartChar: r
Encoding: 114 114 85
Width: 602
Flags: W
LayerCount: 2
Back
Fore
SplineSet
253 69 m 1,0,-1
 415 69 l 2,1,2
 452 69 452 69 452 35 c 0,3,4
 452 15 452 15 443 7.5 c 128,-1,5
 434 0 434 0 412 0 c 2,6,-1
 93 0 l 2,7,8
 53 0 53 0 53 35 c 0,9,10
 53 69 53 69 94 69 c 2,11,-1
 180 69 l 1,12,-1
 180 382 l 1,13,-1
 147 382 l 1,14,-1
 122 382 l 2,15,16
 76 382 76 382 76 417 c 0,17,18
 76 451 76 451 115 451 c 2,19,-1
 226 451 l 2,20,21
 253 451 253 451 253 431 c 2,22,-1
 253 348 l 1,23,24
 344 463 344 463 458 463 c 0,25,26
 503 463 503 463 529 445.5 c 128,-1,27
 555 428 555 428 555 400 c 0,28,29
 555 382 555 382 541.5 368 c 128,-1,30
 528 354 528 354 512 354 c 0,31,32
 500 354 500 354 474 369 c 128,-1,33
 448 384 448 384 427 384 c 0,34,35
 352 384 352 384 253 271 c 1,36,-1
 253 69 l 1,0,-1
EndSplineSet
EndChar
StartChar: s
Encoding: 115 115 86
Width: 602
Flags: W
LayerCount: 2
Back
Fore
SplineSet
87 35 m 2,0,-1
 87 122 l 2,1,2
 87 162 87 162 122 162 c 0,3,4
 135 162 135 162 142 155 c 128,-1,5
 149 148 149 148 155.5 133 c 128,-1,6
 162 118 162 118 168 110 c 0,7,8
 188 84 188 84 227.5 68 c 128,-1,9
 267 52 267 52 316 52 c 0,10,11
 368 52 368 52 399.5 73 c 128,-1,12
 431 94 431 94 431 128 c 0,13,14
 431 164 431 164 405 178 c 128,-1,15
 379 192 379 192 321 192 c 2,16,-1
 293 192 l 2,17,18
 194 192 194 192 141.5 227 c 128,-1,19
 89 262 89 262 89 327 c 0,20,21
 89 389 89 389 138.5 426.5 c 128,-1,22
 188 464 188 464 277 464 c 0,23,24
 308 464 308 464 336 458.5 c 128,-1,25
 364 453 364 453 380.5 447.5 c 128,-1,26
 397 442 397 442 401 442 c 0,27,28
 406 442 406 442 421 451.5 c 128,-1,29
 436 461 436 461 451 461 c 0,30,31
 484 461 484 461 484 412 c 2,32,-1
 484 355 l 2,33,34
 484 306 484 306 451 306 c 0,35,36
 441 306 441 306 433 312.5 c 128,-1,37
 425 319 425 319 412.5 333.5 c 128,-1,38
 400 348 400 348 390 357 c 0,39,40
 340 402 340 402 266 402 c 0,41,42
 219 402 219 402 191.5 381.5 c 128,-1,43
 164 361 164 361 164 330 c 0,44,45
 164 294 164 294 198.5 283.5 c 128,-1,46
 233 273 233 273 316 271 c 0,47,48
 415 269 415 269 463.5 236.5 c 128,-1,49
 512 204 512 204 512 134 c 0,50,51
 512 69 512 69 461.5 29 c 128,-1,52
 411 -11 411 -11 321 -11 c 0,53,54
 259 -11 259 -11 173 11 c 1,55,56
 138 -12 138 -12 123 -12 c 0,57,58
 87 -12 87 -12 87 35 c 2,0,-1
EndSplineSet
EndChar
StartChar: t
Encoding: 116 116 87
Width: 602
Flags: W
LayerCount: 2
Back
Fore
SplineSet
434 424 m 2,0,1
 480 424 480 424 480 389 c 0,2,3
 480 355 480 355 439 355 c 2,4,-1
 241 355 l 1,5,-1
 241 192 l 2,6,7
 241 123 241 123 257.5 92.5 c 128,-1,8
 274 62 274 62 333 62 c 0,9,10
 378 62 378 62 440 88 c 128,-1,11
 502 114 502 114 516 114 c 0,12,13
 529 114 529 114 539.5 103.5 c 128,-1,14
 550 93 550 93 550 79 c 0,15,16
 550 49 550 49 496 28 c 0,17,18
 402 -9 402 -9 338 -9 c 0,19,20
 225 -9 225 -9 183 64 c 0,21,22
 165 95 165 95 165 177 c 2,23,-1
 165 192 l 1,24,-1
 165 355 l 1,25,-1
 83 355 l 2,26,27
 44 355 44 355 44 389 c 0,28,29
 44 412 44 412 58 418 c 128,-1,30
 72 424 72 424 111 424 c 2,31,-1
 165 424 l 1,32,-1
 165 524 l 1,33,-1
 165 550 l 2,34,35
 165 591 165 591 203 591 c 0,36,37
 228 591 228 591 235 576.5 c 128,-1,38
 242 562 242 562 242 523 c 2,39,-1
 242 424 l 1,40,-1
 434 424 l 2,0,1
EndSplineSet
EndChar
StartChar: u
Encoding: 117 117 88
Width: 602
Flags: W
LayerCount: 2
Back
Fore
SplineSet
177 180 m 2,0,1
 177 120 177 120 203.5 91 c 128,-1,2
 230 62 230 62 287 62 c 0,3,4
 339 62 339 62 377.5 95 c 128,-1,5
 416 128 416 128 416 180 c 2,6,-1
 416 382 l 1,7,-1
 349 382 l 2,8,9
 313 382 313 382 313 417 c 0,10,11
 313 451 313 451 352 451 c 2,12,-1
 456 451 l 2,13,14
 479 451 479 451 484.5 440.5 c 128,-1,15
 490 430 490 430 490 404 c 2,16,-1
 490 69 l 1,17,-1
 512 69 l 2,18,19
 557 69 557 69 557 35 c 0,20,21
 557 0 557 0 518 0 c 2,22,-1
 444 0 l 2,23,24
 416 0 416 0 416 20 c 2,25,-1
 416 53 l 1,26,27
 336 -10 336 -10 264 -10 c 0,28,29
 103 -10 103 -10 103 162 c 2,30,-1
 103 382 l 1,31,-1
 81 382 l 2,32,33
 36 382 36 382 36 417 c 0,34,35
 36 451 36 451 75 451 c 2,36,-1
 149 451 l 2,37,38
 168 451 168 451 172.5 444.5 c 128,-1,39
 177 438 177 438 177 419 c 2,40,-1
 177 414 l 1,41,-1
 177 180 l 2,0,1
EndSplineSet
EndChar
StartChar: v
Encoding: 118 118 89
Width: 602
Flags: W
LayerCount: 2
Back
Fore
SplineSet
77 382 m 1,0,1
 46 382 46 382 33.5 389.5 c 128,-1,2
 21 397 21 397 21 417 c 0,3,4
 21 451 21 451 60 451 c 2,5,-1
 197 451 l 2,6,7
 223 451 223 451 233 444.5 c 128,-1,8
 243 438 243 438 243 417 c 0,9,10
 243 397 243 397 230 389.5 c 128,-1,11
 217 382 217 382 186 382 c 2,12,-1
 168 382 l 1,13,-1
 295 66 l 1,14,-1
 436 382 l 1,15,16
 430 382 430 382 420.5 381.5 c 128,-1,17
 411 381 411 381 407 381 c 0,18,19
 371 381 371 381 357 388.5 c 128,-1,20
 343 396 343 396 343 417 c 128,-1,21
 343 438 343 438 353 444.5 c 128,-1,22
 363 451 363 451 389 451 c 2,23,-1
 540 451 l 2,24,25
 579 451 579 451 579 417 c 0,26,27
 579 397 579 397 566 389.5 c 128,-1,28
 553 382 553 382 523 382 c 2,29,-1
 514 382 l 1,30,-1
 353 26 l 2,31,32
 342 1 342 1 330.5 -8 c 128,-1,33
 319 -17 319 -17 294 -17 c 0,34,35
 270 -17 270 -17 258.5 -7.5 c 128,-1,36
 247 2 247 2 237 26 c 2,37,-1
 77 382 l 1,0,1
EndSplineSet
EndChar
StartChar: w
Encoding: 119 119 90
Width: 602
Flags: W
LayerCount: 2
Back
Fore
SplineSet
297 248 m 1,0,-1
 235 16 l 2,1,2
 226 -17 226 -17 194 -17 c 0,3,4
 173 -17 173 -17 163 -7.5 c 128,-1,5
 153 2 153 2 146 26 c 2,6,-1
 34 382 l 1,7,8
 11 382 11 382 1 390 c 128,-1,9
 -9 398 -9 398 -9 417 c 0,10,11
 -9 451 -9 451 28 451 c 2,12,-1
 159 451 l 2,13,14
 184 451 184 451 193.5 444.5 c 128,-1,15
 203 438 203 438 203 417 c 128,-1,16
 203 396 203 396 189.5 388.5 c 128,-1,17
 176 381 176 381 143 381 c 0,18,19
 123 381 123 381 111 382 c 1,20,-1
 195 89 l 1,21,-1
 258 302 l 2,22,23
 268 335 268 335 299 335 c 0,24,25
 320 335 320 335 330 325.5 c 128,-1,26
 340 316 340 316 347 292 c 2,27,-1
 408 89 l 1,28,-1
 490 382 l 1,29,30
 477 381 477 381 456 381 c 0,31,32
 424 381 424 381 411.5 388.5 c 128,-1,33
 399 396 399 396 399 417 c 0,34,35
 399 437 399 437 408.5 444 c 128,-1,36
 418 451 418 451 442 451 c 2,37,-1
 573 451 l 2,38,39
 603 451 603 451 603 417 c 0,40,41
 603 398 603 398 593.5 390 c 128,-1,42
 584 382 584 382 561 382 c 1,43,-1
 451 16 l 2,44,45
 441 -17 441 -17 410 -17 c 0,46,47
 389 -17 389 -17 379 -7.5 c 128,-1,48
 369 2 369 2 362 26 c 2,49,-1
 297 248 l 1,0,-1
EndSplineSet
EndChar
StartChar: x
Encoding: 120 120 91
Width: 602
Flags: W
LayerCount: 2
Back
Fore
SplineSet
194 69 m 2,0,1
 196 69 196 69 201 69.5 c 128,-1,2
 206 70 206 70 208 70 c 0,3,4
 260 70 260 70 260 34 c 0,5,6
 260 0 260 0 209 0 c 2,7,-1
 75 0 l 2,8,9
 41 0 41 0 41 37 c 0,10,11
 41 69 41 69 96 69 c 2,12,-1
 106 69 l 1,13,-1
 264 231 l 1,14,-1
 109 382 l 1,15,16
 109 382 109 382 102 382 c 0,17,18
 75 382 75 382 63.5 389.5 c 128,-1,19
 52 397 52 397 52 416 c 0,20,21
 52 437 52 437 65 444 c 128,-1,22
 78 451 78 451 112 451 c 2,23,-1
 212 451 l 2,24,25
 262 451 262 451 262 416 c 0,26,27
 262 382 262 382 206 382 c 1,28,-1
 311 279 l 1,29,-1
 411 382 l 1,30,-1
 401 382 l 2,31,32
 347 382 347 382 347 416 c 0,33,34
 347 451 347 451 397 451 c 2,35,-1
 524 451 l 2,36,37
 539 451 539 451 548.5 442 c 128,-1,38
 558 433 558 433 558 417 c 0,39,40
 558 381 558 381 507 381 c 0,41,42
 505 381 505 381 500.5 381.5 c 128,-1,43
 496 382 496 382 493 382 c 2,44,-1
 353 236 l 1,45,-1
 524 69 l 1,46,-1
 529 69 l 2,47,48
 567 69 567 69 567 34 c 0,49,50
 567 13 567 13 554.5 6.5 c 128,-1,51
 542 0 542 0 508 0 c 2,52,-1
 408 0 l 2,53,54
 358 0 358 0 358 34 c 0,55,56
 358 69 358 69 402 69 c 2,57,-1
 429 69 l 1,58,-1
 306 189 l 1,59,-1
 194 69 l 2,0,1
EndSplineSet
EndChar
StartChar: y
Encoding: 121 121 92
Width: 602
Flags: W
LayerCount: 2
Back
Fore
SplineSet
264 -125 m 1,0,1
 264 -125 264 -125 285 -125 c 0,2,3
 319 -125 319 -125 332.5 -132 c 128,-1,4
 346 -139 346 -139 346 -160 c 0,5,6
 346 -195 346 -195 306 -195 c 2,7,-1
 82 -195 l 2,8,9
 60 -195 60 -195 50.5 -187.5 c 128,-1,10
 41 -180 41 -180 41 -160 c 0,11,12
 41 -125 41 -125 78 -125 c 2,13,-1
 184 -125 l 1,14,-1
 264 31 l 1,15,-1
 85 382 l 1,16,17
 54 382 54 382 41.5 389.5 c 128,-1,18
 29 397 29 397 29 417 c 0,19,20
 29 451 29 451 68 451 c 2,21,-1
 204 451 l 2,22,23
 230 451 230 451 240 444.5 c 128,-1,24
 250 438 250 438 250 417 c 0,25,26
 250 397 250 397 237 389.5 c 128,-1,27
 224 382 224 382 193 382 c 2,28,-1
 175 382 l 1,29,-1
 306 113 l 1,30,-1
 442 382 l 1,31,-1
 423 382 l 2,32,33
 390 382 390 382 377 389.5 c 128,-1,34
 364 397 364 397 364 417 c 0,35,36
 364 438 364 438 374 444.5 c 128,-1,37
 384 451 384 451 410 451 c 2,38,-1
 531 451 l 2,39,40
 570 451 570 451 570 417 c 0,41,42
 570 398 570 398 558.5 390.5 c 128,-1,43
 547 383 547 383 521 382 c 1,44,-1
 264 -125 l 1,0,1
EndSplineSet
EndChar
StartChar: z
Encoding: 122 122 93
Width: 602
Flags: W
LayerCount: 2
Back
Fore
SplineSet
195 69 m 1,0,-1
 438 69 l 1,1,-1
 438 94 l 2,2,3
 438 132 438 132 444.5 146.5 c 128,-1,4
 451 161 451 161 473 161 c 0,5,6
 507 161 507 161 507 122 c 2,7,-1
 507 41 l 2,8,9
 507 17 507 17 493 8.5 c 128,-1,10
 479 0 479 0 449 0 c 2,11,-1
 154 0 l 2,12,13
 98 0 98 0 98 44 c 0,14,15
 98 68 98 68 133 103 c 2,16,-1
 412 382 l 1,17,-1
 179 382 l 1,18,-1
 179 357 l 2,19,20
 179 319 179 319 172.5 304.5 c 128,-1,21
 166 290 166 290 144 290 c 0,22,23
 109 290 109 290 109 329 c 2,24,-1
 109 412 l 2,25,26
 109 451 109 451 177 451 c 2,27,-1
 438 451 l 2,28,29
 507 451 507 451 507 402 c 0,30,31
 507 373 507 373 463 331 c 2,32,-1
 195 69 l 1,0,-1
EndSplineSet
EndChar
StartChar: bar
Encoding: 124 124 95
Width: 602
Flags: W
LayerCount: 2
Back
Fore
SplineSet
342 -236 m 2,0,1
 341 -246 341 -246 329.5 -253.5 c 128,-1,2
 318 -261 318 -261 301 -261 c 128,-1,3
 284 -261 284 -261 272.5 -253.5 c 128,-1,4
 261 -246 261 -246 260 -236 c 2,5,-1
 260 764 l 2,6,7
 261 774 261 774 272.5 781 c 128,-1,8
 284 788 284 788 301 788 c 128,-1,9
 318 788 318 788 329.5 781 c 128,-1,10
 341 774 341 774 342 764 c 2,11,-1
 342 -236 l 2,0,1
EndSplineSet
EndChar
StartChar: braceright
Encoding: 125 125 96
Width: 602
Flags: W
LayerCount: 2
Back
Fore
SplineSet
253 409 m 2,0,1
 253 455 253 455 244.5 474.5 c 128,-1,2
 236 494 236 494 204 502 c 0,3,4
 198 504 198 504 184 506 c 128,-1,5
 170 508 170 508 163 510 c 128,-1,6
 156 512 156 512 149.5 520 c 128,-1,7
 143 528 143 528 143 542 c 0,8,9
 143 560 143 560 153 570.5 c 128,-1,10
 163 581 163 581 180 581 c 0,11,12
 274 581 274 581 304.5 535.5 c 128,-1,13
 335 490 335 490 335 384 c 2,14,-1
 335 353 l 2,15,16
 335 326 335 326 339.5 307 c 128,-1,17
 344 288 344 288 347.5 277.5 c 128,-1,18
 351 267 351 267 364.5 259 c 128,-1,19
 378 251 378 251 383.5 249 c 128,-1,20
 389 247 389 247 409.5 242.5 c 128,-1,21
 430 238 430 238 437 236 c 0,22,23
 467 228 467 228 467 199 c 0,24,25
 467 181 467 181 459 172 c 128,-1,26
 451 163 451 163 431 159 c 0,27,28
 402 154 402 154 388.5 150 c 128,-1,29
 375 146 375 146 360 134 c 128,-1,30
 345 122 345 122 340 101 c 128,-1,31
 335 80 335 80 335 44 c 2,32,-1
 335 13 l 2,33,34
 335 -92 335 -92 305 -137.5 c 128,-1,35
 275 -183 275 -183 186 -183 c 0,36,37
 143 -183 143 -183 143 -144 c 0,38,39
 143 -135 143 -135 145.5 -129 c 128,-1,40
 148 -123 148 -123 150.5 -119 c 128,-1,41
 153 -115 153 -115 160 -112.5 c 128,-1,42
 167 -110 167 -110 171 -109.5 c 128,-1,43
 175 -109 175 -109 184.5 -107.5 c 128,-1,44
 194 -106 194 -106 198 -105 c 0,45,46
 234 -99 234 -99 243.5 -79 c 128,-1,47
 253 -59 253 -59 253 -12 c 2,48,-1
 253 34 l 2,49,50
 253 108 253 108 271 145.5 c 128,-1,51
 289 183 289 183 342 199 c 1,52,53
 289 215 289 215 271 251.5 c 128,-1,54
 253 288 253 288 253 363 c 2,55,-1
 253 409 l 2,0,1
EndSplineSet
EndChar
StartChar: exclamdown
Encoding: 161 161 98
Width: 602
Flags: W
LayerCount: 2
Back
Fore
SplineSet
210 517 m 0,0,1
 210 551 210 551 235 573 c 128,-1,2
 260 595 260 595 301 595 c 128,-1,3
 342 595 342 595 367 573 c 128,-1,4
 392 551 392 551 392 517 c 0,5,6
 392 484 392 484 367 462.5 c 128,-1,7
 342 441 342 441 301 441 c 128,-1,8
 260 441 260 441 235 462.5 c 128,-1,9
 210 484 210 484 210 517 c 0,0,1
244 38 m 1,10,-1
 261 355 l 2,11,12
 262 371 262 371 273 381.5 c 128,-1,13
 284 392 284 392 301 392 c 128,-1,14
 318 392 318 392 329 381.5 c 128,-1,15
 340 371 340 371 341 355 c 2,16,-1
 358 38 l 1,17,-1
 358 33 l 2,18,19
 358 5 358 5 342.5 -11.5 c 128,-1,20
 327 -28 327 -28 301 -28 c 128,-1,21
 275 -28 275 -28 259.5 -11.5 c 128,-1,22
 244 5 244 5 244 33 c 2,23,-1
 244 38 l 1,10,-1
EndSplineSet
EndChar
StartChar: cent
Encoding: 162 162 99
Width: 602
Flags: W
LayerCount: 2
Back
Fore
SplineSet
426 489 m 1,0,1
 444 499 444 499 458 499 c 0,2,3
 477 499 477 499 483.5 488 c 128,-1,4
 490 477 490 477 490 450 c 2,5,-1
 490 380 l 2,6,7
 490 348 490 348 456 348 c 0,8,9
 438 348 438 348 423 374 c 0,10,11
 421 378 421 378 417 386 c 0,12,13
 414 391 414 391 413 393 c 0,14,15
 382 453 382 453 312 453 c 0,16,17
 251 453 251 453 212 412 c 128,-1,18
 173 371 173 371 173 311 c 0,19,20
 173 248 173 248 213 209 c 128,-1,21
 253 170 253 170 319 170 c 0,22,23
 354 170 354 170 383 182 c 128,-1,24
 412 194 412 194 431 206.5 c 128,-1,25
 450 219 450 219 462 219 c 0,26,27
 475 219 475 219 483.5 211 c 128,-1,28
 492 203 492 203 492 190 c 0,29,30
 492 161 492 161 444 135 c 128,-1,31
 396 109 396 109 322 103 c 1,32,-1
 314 -5 l 2,33,34
 313 -33 313 -33 281 -33 c 0,35,36
 247 -33 247 -33 247 -6 c 2,37,-1
 247 -4 l 1,38,-1
 253 109 l 1,39,40
 181 125 181 125 137.5 180.5 c 128,-1,41
 94 236 94 236 94 310 c 0,42,43
 94 389 94 389 142 445.5 c 128,-1,44
 190 502 190 502 271 516 c 1,45,-1
 277 618 l 2,46,47
 278 646 278 646 310 646 c 0,48,49
 345 646 345 646 345 619 c 2,50,-1
 345 617 l 1,51,-1
 339 516 l 1,52,53
 393 506 393 506 426 489 c 1,0,1
EndSplineSet
EndChar
StartChar: sterling
Encoding: 163 163 100
Width: 602
Flags: W
LayerCount: 2
Back
Fore
SplineSet
269 275 m 1,0,1
 288 209 288 209 288 173 c 0,2,3
 288 133 288 133 268 93 c 1,4,5
 268 93 268 93 277 93 c 0,6,7
 299 93 299 93 337.5 83.5 c 128,-1,8
 376 74 376 74 393 74 c 0,9,10
 418 74 418 74 442 89 c 128,-1,11
 466 104 466 104 468 104 c 0,12,13
 477 104 477 104 482 96 c 2,14,-1
 497 69 l 2,15,16
 501 61 501 61 501 59 c 0,17,18
 501 45 501 45 468 22.5 c 128,-1,19
 435 0 435 0 396 0 c 0,20,21
 372 0 372 0 325.5 12 c 128,-1,22
 279 24 279 24 256 24 c 0,23,24
 230 24 230 24 197.5 10 c 128,-1,25
 165 -4 165 -4 155 -4 c 0,26,27
 146 -4 146 -4 138 7 c 128,-1,28
 130 18 130 18 130 28 c 0,29,30
 130 34 130 34 135 38.5 c 128,-1,31
 140 43 140 43 153 51 c 128,-1,32
 166 59 166 59 174 65 c 0,33,34
 213 94 213 94 213 160 c 0,35,36
 213 198 213 198 188 275 c 1,37,-1
 146 275 l 2,38,39
 127 275 127 275 127 294 c 2,40,-1
 127 316 l 2,41,42
 127 330 127 330 143 330 c 2,43,-1
 173 330 l 1,44,45
 148 412 148 412 148 468 c 0,46,47
 148 536 148 536 193.5 580 c 128,-1,48
 239 624 239 624 312 624 c 0,49,50
 358 624 358 624 397 612 c 128,-1,51
 436 600 436 600 454 585 c 0,52,53
 461 579 461 579 461 552 c 2,54,-1
 461 524 l 2,55,56
 461 508 461 508 452.5 497 c 128,-1,57
 444 486 444 486 431 486 c 0,58,59
 419 486 419 486 413.5 491 c 128,-1,60
 408 496 408 496 403 514 c 128,-1,61
 398 532 398 532 396 536 c 0,62,63
 383 568 383 568 326 568 c 0,64,65
 278 568 278 568 251.5 544.5 c 128,-1,66
 225 521 225 521 225 476 c 0,67,68
 225 424 225 424 252 330 c 1,69,-1
 425 330 l 2,70,71
 446 330 446 330 446 311 c 2,72,-1
 446 294 l 2,73,74
 446 275 446 275 429 275 c 2,75,-1
 269 275 l 1,0,1
EndSplineSet
EndChar
StartChar: yen
Encoding: 165 165 102
Width: 602
Flags: W
LayerCount: 2
Back
Fore
SplineSet
408 69 m 2,0,1
 442 69 442 69 454.5 63 c 128,-1,2
 467 57 467 57 467 35 c 128,-1,3
 467 13 467 13 455.5 6.5 c 128,-1,4
 444 0 444 0 414 0 c 2,5,-1
 182 0 l 2,6,7
 153 0 153 0 141.5 6.5 c 128,-1,8
 130 13 130 13 130 35 c 128,-1,9
 130 57 130 57 142 63 c 128,-1,10
 154 69 154 69 189 69 c 2,11,-1
 262 69 l 1,12,-1
 262 228 l 1,13,-1
 84 228 l 2,14,15
 60 228 60 228 50 233 c 128,-1,16
 40 238 40 238 40 254 c 0,17,18
 40 280 40 280 84 280 c 2,19,-1
 233 280 l 1,20,-1
 182 364 l 1,21,-1
 84 364 l 2,22,23
 60 364 60 364 50 369 c 128,-1,24
 40 374 40 374 40 389 c 0,25,26
 40 415 40 415 84 415 c 2,27,-1
 155 415 l 1,28,-1
 100 509 l 1,29,-1
 91 509 l 2,30,31
 62 509 62 509 50 516.5 c 128,-1,32
 38 524 38 524 38 544 c 0,33,34
 38 567 38 567 51 573 c 128,-1,35
 64 579 64 579 97 579 c 2,36,-1
 209 579 l 2,37,38
 236 579 236 579 247 572 c 128,-1,39
 258 565 258 565 258 544 c 0,40,41
 258 524 258 524 244 516.5 c 128,-1,42
 230 509 230 509 196 509 c 2,43,-1
 177 509 l 1,44,-1
 304 285 l 1,45,-1
 437 509 l 1,46,47
 432 509 432 509 424 508.5 c 128,-1,48
 416 508 416 508 412 508 c 0,49,50
 382 508 382 508 370.5 515.5 c 128,-1,51
 359 523 359 523 359 544 c 0,52,53
 359 567 359 567 370 573 c 128,-1,54
 381 579 381 579 413 579 c 2,55,-1
 426 579 l 1,56,-1
 503 579 l 2,57,58
 537 579 537 579 549 573 c 128,-1,59
 561 567 561 567 561 544 c 0,60,61
 561 524 561 524 550 516.5 c 128,-1,62
 539 509 539 509 511 509 c 2,63,-1
 503 509 l 1,64,-1
 447 415 l 1,65,-1
 510 415 l 2,66,67
 554 415 554 415 554 389 c 0,68,69
 554 374 554 374 544 369 c 128,-1,70
 534 364 534 364 510 364 c 2,71,-1
 417 364 l 1,72,-1
 365 279 l 1,73,-1
 510 279 l 2,74,75
 554 279 554 279 554 253 c 0,76,77
 554 238 554 238 544 233 c 128,-1,78
 534 228 534 228 510 228 c 2,79,-1
 336 228 l 1,80,-1
 336 69 l 1,81,-1
 408 69 l 2,0,1
EndSplineSet
EndChar
StartChar: section
Encoding: 167 167 104
Width: 602
Flags: W
LayerCount: 2
Back
Fore
SplineSet
146 -105 m 2,0,1
 130 -105 130 -105 123.5 -98.5 c 128,-1,2
 117 -92 117 -92 117 -76 c 2,3,-1
 117 22 l 2,4,5
 117 36 117 36 127.5 47.5 c 128,-1,6
 138 59 138 59 152 59 c 0,7,8
 168 59 168 59 177.5 49 c 128,-1,9
 187 39 187 39 187 22 c 2,10,-1
 187 -40 l 1,11,-1
 305 -40 l 2,12,13
 380 -40 380 -40 380 9 c 0,14,15
 380 35 380 35 358 59 c 128,-1,16
 336 83 336 83 289 115 c 2,17,-1
 154 206 l 2,18,19
 76 260 76 260 76 335 c 0,20,21
 76 401 76 401 147 439 c 1,22,23
 145 453 145 453 145 471 c 0,24,25
 145 523 145 523 190 554 c 0,26,27
 225 579 225 579 303 579 c 2,28,-1
 322 579 l 1,29,-1
 456 579 l 2,30,31
 489 579 489 579 489 552 c 2,32,-1
 489 459 l 2,33,34
 489 420 489 420 455 420 c 0,35,36
 441 420 441 420 431.5 431 c 128,-1,37
 422 442 422 442 422 459 c 2,38,-1
 422 516 l 1,39,-1
 313 516 l 2,40,41
 222 516 222 516 222 465 c 0,42,43
 222 418 222 418 304 363 c 2,44,-1
 434 275 l 2,45,46
 481 243 481 243 503.5 212.5 c 128,-1,47
 526 182 526 182 526 140 c 0,48,49
 526 72 526 72 456 37 c 1,50,51
 459 18 459 18 459 6 c 0,52,53
 459 -105 459 -105 297 -105 c 2,54,-1
 146 -105 l 2,0,1
422 96 m 1,55,56
 452 109 452 109 452 138 c 0,57,58
 452 173 452 173 393 213 c 2,59,-1
 262 302 l 2,60,61
 199 345 199 345 177 378 c 1,62,63
 148 365 148 365 148 338 c 0,64,65
 148 300 148 300 213 256 c 2,66,-1
 320 183 l 2,67,68
 350 163 350 163 362 154 c 128,-1,69
 374 145 374 145 392.5 128.5 c 128,-1,70
 411 112 411 112 422 96 c 1,55,56
EndSplineSet
EndChar
StartChar: dieresis
Encoding: 168 168 133
Width: 602
Flags: W
LayerCount: 2
Back
Fore
SplineSet
117 582 m 0,0,1
 117 605 117 605 135 622.5 c 128,-1,2
 153 640 153 640 177 640 c 128,-1,3
 201 640 201 640 218 623 c 128,-1,4
 235 606 235 606 235 582 c 0,5,6
 235 556 235 556 218.5 539 c 128,-1,7
 202 522 202 522 177 522 c 128,-1,8
 152 522 152 522 134.5 539.5 c 128,-1,9
 117 557 117 557 117 582 c 0,0,1
366 582 m 0,10,11
 366 605 366 605 383.5 622.5 c 128,-1,12
 401 640 401 640 425 640 c 128,-1,13
 449 640 449 640 466.5 623 c 128,-1,14
 484 606 484 606 484 582 c 0,15,16
 484 556 484 556 467.5 539 c 128,-1,17
 451 522 451 522 425 522 c 0,18,19
 400 522 400 522 383 539.5 c 128,-1,20
 366 557 366 557 366 582 c 0,10,11
EndSplineSet
EndChar
StartChar: copyright
Encoding: 169 169 209
Width: 602
Flags: W
LayerCount: 2
Back
Fore
SplineSet
375 500 m 1,0,1
 382 511 382 511 401 511 c 128,-1,2
 420 511 420 511 425 497 c 128,-1,3
 430 483 430 483 430 440 c 2,4,5
 430 440 430 440 430 407 c 0,6,7
 430 389 430 389 423.5 381.5 c 128,-1,8
 417 374 417 374 400 374 c 128,-1,9
 383 374 383 374 377.5 382 c 128,-1,10
 372 390 372 390 367 413 c 0,11,12
 366 418 366 418 365 421 c 0,13,14
 361 437 361 437 343 448.5 c 128,-1,15
 325 460 325 460 300 460 c 0,16,17
 254 460 254 460 226.5 426.5 c 128,-1,18
 199 393 199 393 199 332 c 0,19,20
 199 276 199 276 228 242.5 c 128,-1,21
 257 209 257 209 302 209 c 0,22,23
 334 209 334 209 369 230 c 128,-1,24
 404 251 404 251 407 251 c 0,25,26
 436 251 436 251 436 223 c 0,27,28
 436 200 436 200 393.5 174.5 c 128,-1,29
 351 149 351 149 299 149 c 0,30,31
 228 149 228 149 179.5 200 c 128,-1,32
 131 251 131 251 131 329 c 0,33,34
 131 409 131 409 179.5 462 c 128,-1,35
 228 515 228 515 301 515 c 0,36,37
 336 515 336 515 375 500 c 1,0,1
12 335 m 0,38,39
 12 455 12 455 96 539 c 0,40,41
 181 624 181 624 301 624 c 128,-1,42
 421 624 421 624 505 540 c 0,43,44
 590 455 590 455 590 335 c 0,45,46
 590 216 590 216 504 130 c 0,47,48
 421 45 421 45 301 45 c 0,49,50
 215 45 215 45 142 93 c 0,51,52
 80 134 80 134 46 197.5 c 128,-1,53
 12 261 12 261 12 335 c 0,38,39
301 576 m 0,54,55
 202 576 202 576 131 505 c 0,56,57
 60 432 60 432 60 335 c 0,58,59
 60 237 60 237 132 165 c 0,60,61
 203 94 203 94 301 94 c 0,62,63
 400 94 400 94 471 165 c 0,64,65
 542 238 542 238 542 335 c 0,66,67
 542 435 542 435 471 506 c 0,68,69
 399 576 399 576 301 576 c 0,54,55
EndSplineSet
EndChar
StartChar: ordfeminine
Encoding: 170 170 141
Width: 602
Flags: W
LayerCount: 2
Back
Fore
SplineSet
393 274 m 1,0,1
 328 215 328 215 246 215 c 0,2,3
 188 215 188 215 152.5 248 c 128,-1,4
 117 281 117 281 117 333 c 0,5,6
 117 393 117 393 164.5 427 c 128,-1,7
 212 461 212 461 298 461 c 0,8,9
 342 461 342 461 390 449 c 1,10,-1
 390 452 l 2,11,12
 390 540 390 540 303 540 c 0,13,14
 273 540 273 540 235.5 523.5 c 128,-1,15
 198 507 198 507 186 507 c 0,16,17
 175 507 175 507 166.5 516 c 128,-1,18
 158 525 158 525 158 537 c 0,19,20
 158 562 158 562 200 578.5 c 128,-1,21
 242 595 242 595 313 595 c 0,22,23
 451 595 451 595 451 456 c 2,24,-1
 451 280 l 1,25,-1
 471 280 l 1,26,-1
 481 280 l 2,27,28
 517 280 517 280 517 252 c 0,29,30
 517 225 517 225 486 225 c 2,31,-1
 424 225 l 2,32,33
 401 225 401 225 397 250 c 2,34,-1
 393 274 l 1,0,1
390 398 m 1,35,36
 355 410 355 410 301 410 c 0,37,38
 245 410 245 410 212.5 389 c 128,-1,39
 180 368 180 368 180 336 c 0,40,41
 180 309 180 309 202 292 c 128,-1,42
 224 275 224 275 261 275 c 0,43,44
 308 275 308 275 349 301.5 c 128,-1,45
 390 328 390 328 390 355 c 2,46,-1
 390 398 l 1,35,36
466 170 m 2,47,48
 483 170 483 170 483 155 c 2,49,-1
 483 128 l 2,50,51
 483 121 483 121 478 116 c 128,-1,52
 473 111 473 111 466 111 c 2,53,-1
 148 111 l 2,54,55
 132 111 132 111 132 128 c 2,56,-1
 132 155 l 2,57,58
 132 161 132 161 136.5 165.5 c 128,-1,59
 141 170 141 170 148 170 c 2,60,-1
 466 170 l 2,47,48
EndSplineSet
EndChar
StartChar: guillemotleft
Encoding: 171 171 108
Width: 602
Flags: W
LayerCount: 2
Back
Fore
SplineSet
384 225 m 1,0,-1
 449 89 l 2,1,2
 452 82 452 82 452 74 c 0,3,4
 452 61 452 61 444 53 c 128,-1,5
 436 45 436 45 424 45 c 0,6,7
 406 45 406 45 397 62 c 2,8,-1
 322 203 l 2,9,10
 315 216 315 216 315 225 c 0,11,12
 315 235 315 235 322 248 c 2,13,-1
 397 389 l 2,14,15
 407 406 407 406 424 406 c 0,16,17
 436 406 436 406 444 398 c 128,-1,18
 452 390 452 390 452 377 c 0,19,20
 452 370 452 370 449 362 c 2,21,-1
 384 225 l 1,0,-1
219 225 m 1,22,-1
 283 89 l 2,23,24
 287 79 287 79 287 74 c 0,25,26
 287 61 287 61 278.5 53 c 128,-1,27
 270 45 270 45 258 45 c 0,28,29
 240 45 240 45 231 62 c 2,30,-1
 156 203 l 2,31,32
 149 216 149 216 149 225 c 0,33,34
 149 235 149 235 156 248 c 2,35,-1
 231 389 l 2,36,37
 241 406 241 406 258 406 c 0,38,39
 270 406 270 406 278.5 398 c 128,-1,40
 287 390 287 390 287 377 c 0,41,42
 287 372 287 372 283 362 c 2,43,-1
 219 225 l 1,22,-1
EndSplineSet
EndChar
StartChar: logicalnot
Encoding: 172 172 210
Width: 602
Flags: W
LayerCount: 2
Back
Fore
SplineSet
479 373 m 1,0,-1
 87 373 l 2,1,2
 70 373 70 373 59.5 383 c 128,-1,3
 49 393 49 393 49 409 c 0,4,5
 49 424 49 424 60 434 c 128,-1,6
 71 444 71 444 87 444 c 2,7,-1
 525 444 l 2,8,9
 553 444 553 444 553 425 c 2,10,-1
 553 210 l 2,11,12
 553 193 553 193 542.5 182 c 128,-1,13
 532 171 532 171 516 171 c 0,14,15
 501 171 501 171 490 182.5 c 128,-1,16
 479 194 479 194 479 210 c 2,17,-1
 479 373 l 1,0,-1
EndSplineSet
EndChar
StartChar: registered
Encoding: 174 174 211
Width: 602
Flags: W
LayerCount: 2
Back
Fore
SplineSet
12 335 m 0,0,1
 12 455 12 455 96 539 c 0,2,3
 181 624 181 624 301 624 c 128,-1,4
 421 624 421 624 505 540 c 0,5,6
 590 455 590 455 590 335 c 0,7,8
 590 216 590 216 504 130 c 0,9,10
 421 45 421 45 301 45 c 0,11,12
 215 45 215 45 142 93 c 0,13,14
 80 134 80 134 46 197.5 c 128,-1,15
 12 261 12 261 12 335 c 0,0,1
301 576 m 0,16,17
 202 576 202 576 131 505 c 0,18,19
 60 432 60 432 60 335 c 0,20,21
 60 237 60 237 132 165 c 0,22,23
 203 94 203 94 301 94 c 0,24,25
 400 94 400 94 471 165 c 0,26,27
 542 238 542 238 542 335 c 0,28,29
 542 435 542 435 471 506 c 0,30,31
 399 576 399 576 301 576 c 0,16,17
260 230 m 1,32,33
 260 230 260 230 269 230 c 0,34,35
 306 230 306 230 306 203 c 128,-1,36
 306 176 306 176 271 176 c 2,37,-1
 183 176 l 2,38,39
 156 176 156 176 156 203 c 0,40,41
 156 219 156 219 165 224.5 c 128,-1,42
 174 230 174 230 196 230 c 2,43,-1
 203 230 l 1,44,-1
 203 452 l 1,45,-1
 196 452 l 2,46,47
 174 452 174 452 165 457 c 128,-1,48
 156 462 156 462 156 478 c 0,49,50
 156 505 156 505 183 505 c 2,51,-1
 276 505 l 2,52,53
 416 505 416 505 416 406 c 0,54,55
 416 377 416 377 399.5 354.5 c 128,-1,56
 383 332 383 332 355 322 c 1,57,58
 360 318 360 318 367 307 c 2,59,-1
 418 230 l 1,60,-1
 422 230 l 2,61,62
 456 230 456 230 456 203 c 128,-1,63
 456 176 456 176 429 176 c 2,64,-1
 400 176 l 2,65,66
 381 176 381 176 365 201 c 2,67,-1
 314 278 l 2,68,69
 299 300 299 300 292 306 c 128,-1,70
 285 312 285 312 269 312 c 2,71,-1
 260 312 l 1,72,-1
 260 230 l 1,32,33
260 452 m 1,73,-1
 260 363 l 1,74,-1
 288 363 l 2,75,76
 353 363 353 363 353 408 c 0,77,78
 353 452 353 452 289 452 c 2,79,-1
 260 452 l 1,73,-1
EndSplineSet
EndChar
StartChar: macron
Encoding: 175 175 130
Width: 602
Flags: W
LayerCount: 2
Back
Fore
SplineSet
471 567 m 2,0,1
 471 552 471 552 455 552 c 2,2,-1
 146 552 l 2,3,4
 130 552 130 552 130 567 c 2,5,-1
 130 594 l 2,6,7
 130 610 130 610 146 610 c 2,8,-1
 455 610 l 2,9,10
 471 610 471 610 471 594 c 2,11,-1
 471 567 l 2,0,1
EndSplineSet
EndChar
StartChar: twosuperior
Encoding: 178 178 229
Width: 602
Flags: W
LayerCount: 2
Back
Fore
SplineSet
219 297 m 1,0,-1
 379 297 l 1,1,-1
 382 314 l 2,2,3
 384 330 384 330 394 339.5 c 128,-1,4
 404 349 404 349 417 349 c 0,5,6
 431 349 431 349 441 337.5 c 128,-1,7
 451 326 451 326 451 310 c 0,8,9
 451 303 451 303 450 300 c 2,10,-1
 444 267 l 2,11,12
 440 241 440 241 399 241 c 2,13,-1
 184 241 l 2,14,15
 166 241 166 241 156 253 c 128,-1,16
 146 265 146 265 146 284 c 0,17,18
 146 292 146 292 148 299 c 128,-1,19
 150 306 150 306 156.5 314 c 128,-1,20
 163 322 163 322 167.5 327.5 c 128,-1,21
 172 333 172 333 184.5 342 c 128,-1,22
 197 351 197 351 203.5 356 c 128,-1,23
 210 361 210 361 228 373 c 128,-1,24
 246 385 246 385 254 391 c 0,25,26
 308 429 308 429 331 453.5 c 128,-1,27
 354 478 354 478 354 510 c 0,28,29
 354 538 354 538 337.5 555 c 128,-1,30
 321 572 321 572 293 572 c 0,31,32
 267 572 267 572 233 554.5 c 128,-1,33
 199 537 199 537 190 537 c 0,34,35
 177 537 177 537 168 544.5 c 128,-1,36
 159 552 159 552 159 562 c 0,37,38
 159 586 159 586 202.5 609 c 128,-1,39
 246 632 246 632 300 632 c 0,40,41
 358 632 358 632 394.5 598 c 128,-1,42
 431 564 431 564 431 512 c 0,43,44
 431 456 431 456 389 416.5 c 128,-1,45
 347 377 347 377 237 308 c 0,46,47
 225 301 225 301 219 297 c 1,0,-1
EndSplineSet
EndChar
StartChar: threesuperior
Encoding: 179 179 228
Width: 602
Flags: W
LayerCount: 2
Back
Fore
SplineSet
385 445 m 1,0,1
 461 409 461 409 461 345 c 0,2,3
 461 293 461 293 414 258 c 128,-1,4
 367 223 367 223 289 223 c 0,5,6
 224 223 224 223 182.5 243.5 c 128,-1,7
 141 264 141 264 141 288 c 0,8,9
 141 300 141 300 151 310 c 128,-1,10
 161 320 161 320 174 320 c 0,11,12
 181 320 181 320 219 302 c 128,-1,13
 257 284 257 284 293 284 c 0,14,15
 335 284 335 284 359 302.5 c 128,-1,16
 383 321 383 321 383 351 c 0,17,18
 383 374 383 374 365 389.5 c 128,-1,19
 347 405 347 405 316 407 c 0,20,21
 311 407 311 407 301.5 407.5 c 128,-1,22
 292 408 292 408 287.5 408.5 c 128,-1,23
 283 409 283 409 276.5 410 c 128,-1,24
 270 411 270 411 267 413 c 128,-1,25
 264 415 264 415 260.5 418.5 c 128,-1,26
 257 422 257 422 256 426.5 c 128,-1,27
 255 431 255 431 255 438 c 0,28,29
 255 453 255 453 263 459 c 128,-1,30
 271 465 271 465 292 468 c 0,31,32
 342 475 342 475 353 484 c 0,33,34
 366 495 366 495 366 520 c 0,35,36
 366 544 366 544 348.5 558.5 c 128,-1,37
 331 573 331 573 301 573 c 0,38,39
 275 573 275 573 240 552.5 c 128,-1,40
 205 532 205 532 196 532 c 0,41,42
 183 532 183 532 175 540 c 128,-1,43
 167 548 167 548 167 559 c 0,44,45
 167 582 167 582 212 607.5 c 128,-1,46
 257 633 257 633 311 633 c 0,47,48
 367 633 367 633 403 602.5 c 128,-1,49
 439 572 439 572 439 531 c 0,50,51
 439 477 439 477 385 445 c 1,0,1
EndSplineSet
EndChar
StartChar: acute
Encoding: 180 180 127
Width: 602
Flags: W
LayerCount: 2
Back
Fore
SplineSet
196 531 m 1,0,-1
 428 667 l 2,1,2
 432 669 432 669 436 669 c 0,3,4
 452 669 452 669 459 654 c 2,5,-1
 475 625 l 2,6,7
 477 622 477 622 477 614 c 0,8,9
 477 600 477 600 464 595 c 2,10,-1
 209 505 l 1,11,-1
 196 531 l 1,0,-1
EndSplineSet
EndChar
StartChar: paragraph
Encoding: 182 182 117
Width: 602
Flags: W
LayerCount: 2
Back
Fore
SplineSet
287 -11 m 1,0,-1
 287 255 l 1,1,2
 287 255 287 255 271 255 c 0,3,4
 173 255 173 255 115 304 c 128,-1,5
 57 353 57 353 57 433 c 0,6,7
 57 521 57 521 132.5 568.5 c 128,-1,8
 208 616 208 616 354 616 c 2,9,-1
 499 616 l 2,10,11
 536 616 536 616 536 583 c 0,12,13
 536 564 536 564 528 557 c 128,-1,14
 520 550 520 550 499 550 c 2,15,-1
 459 550 l 1,16,-1
 459 -11 l 1,17,-1
 516 -11 l 2,18,19
 550 -11 550 -11 550 -44 c 0,20,21
 550 -63 550 -63 542 -69.5 c 128,-1,22
 534 -76 534 -76 513 -76 c 2,23,-1
 420 -76 l 2,24,25
 383 -76 383 -76 383 -44 c 0,26,27
 383 -26 383 -26 401 -11 c 1,28,-1
 401 550 l 1,29,-1
 345 550 l 1,30,-1
 345 -11 l 1,31,32
 366 -19 366 -19 366 -44 c 0,33,34
 366 -63 366 -63 357.5 -69.5 c 128,-1,35
 349 -76 349 -76 328 -76 c 2,36,-1
 184 -76 l 2,37,38
 147 -76 147 -76 147 -44 c 0,39,40
 147 -23 147 -23 160.5 -17 c 128,-1,41
 174 -11 174 -11 210 -11 c 2,42,-1
 287 -11 l 1,0,-1
EndSplineSet
EndChar
StartChar: periodcentered
Encoding: 183 183 116
Width: 602
Flags: W
LayerCount: 2
Back
Fore
SplineSet
207 308 m 128,-1,1
 207 347 207 347 234.5 374.5 c 128,-1,2
 262 402 262 402 301 402 c 128,-1,3
 340 402 340 402 367.5 374.5 c 128,-1,4
 395 347 395 347 395 308 c 128,-1,5
 395 269 395 269 367.5 241.5 c 128,-1,6
 340 214 340 214 301 214 c 0,7,8
 261 214 261 214 234 241.5 c 128,-1,0
 207 269 207 269 207 308 c 128,-1,1
EndSplineSet
EndChar
StartChar: cedilla
Encoding: 184 184 135
Width: 602
Flags: W
LayerCount: 2
Back
Fore
SplineSet
308 -9 m 1,0,-1
 308 -65 l 1,1,2
 340 -61 340 -61 344 -61 c 0,3,4
 382 -61 382 -61 406 -84.5 c 128,-1,5
 430 -108 430 -108 430 -145 c 0,6,7
 430 -186 430 -186 401 -209 c 128,-1,8
 372 -232 372 -232 319 -232 c 0,9,10
 269 -232 269 -232 223.5 -215.5 c 128,-1,11
 178 -199 178 -199 178 -179 c 0,12,13
 178 -160 178 -160 202 -160 c 0,14,15
 208 -160 208 -160 243 -172.5 c 128,-1,16
 278 -185 278 -185 306 -185 c 0,17,18
 353 -185 353 -185 353 -145 c 0,19,20
 353 -103 353 -103 301 -103 c 0,21,22
 289 -103 289 -103 274 -106 c 1,23,-1
 274 -9 l 1,24,-1
 308 -9 l 1,0,-1
EndSplineSet
EndChar
StartChar: ordmasculine
Encoding: 186 186 145
Width: 602
Flags: W
LayerCount: 2
Back
Fore
SplineSet
301 270 m 0,0,1
 362 270 362 270 400.5 308.5 c 128,-1,2
 439 347 439 347 439 405 c 0,3,4
 439 464 439 464 400.5 502.5 c 128,-1,5
 362 541 362 541 301 541 c 0,6,7
 241 541 241 541 202.5 502.5 c 128,-1,8
 164 464 164 464 164 405 c 128,-1,9
 164 346 164 346 202.5 308 c 128,-1,10
 241 270 241 270 301 270 c 0,0,1
507 405 m 128,-1,12
 507 322 507 322 450.5 269 c 128,-1,13
 394 216 394 216 301 216 c 0,14,15
 209 216 209 216 152 269.5 c 128,-1,16
 95 323 95 323 95 405 c 128,-1,17
 95 487 95 487 152 541 c 128,-1,18
 209 595 209 595 301 595 c 0,19,20
 394 595 394 595 450.5 541.5 c 128,-1,11
 507 488 507 488 507 405 c 128,-1,12
459 170 m 2,21,22
 477 170 477 170 477 155 c 2,23,-1
 477 128 l 2,24,25
 477 121 477 121 471.5 116 c 128,-1,26
 466 111 466 111 459 111 c 2,27,-1
 141 111 l 2,28,29
 125 111 125 111 125 128 c 2,30,-1
 125 155 l 2,31,32
 125 161 125 161 129.5 165.5 c 128,-1,33
 134 170 134 170 141 170 c 2,34,-1
 459 170 l 2,21,22
EndSplineSet
EndChar
StartChar: guillemotright
Encoding: 187 187 122
Width: 602
Flags: W
LayerCount: 2
Back
Fore
SplineSet
217 225 m 1,0,-1
 152 362 l 2,1,2
 149 370 149 370 149 377 c 0,3,4
 149 390 149 390 157 398 c 128,-1,5
 165 406 165 406 177 406 c 0,6,7
 195 406 195 406 205 388 c 2,8,-1
 280 248 l 2,9,10
 287 235 287 235 287 225 c 0,11,12
 287 216 287 216 280 203 c 2,13,-1
 205 62 l 2,14,15
 195 45 195 45 177 45 c 0,16,17
 165 45 165 45 157 53 c 128,-1,18
 149 61 149 61 149 74 c 0,19,20
 149 82 149 82 152 89 c 2,21,-1
 217 225 l 1,0,-1
383 225 m 1,22,-1
 318 362 l 2,23,24
 315 370 315 370 315 377 c 0,25,26
 315 390 315 390 323 398 c 128,-1,27
 331 406 331 406 343 406 c 0,28,29
 360 406 360 406 370 388 c 2,30,-1
 445 248 l 2,31,32
 452 235 452 235 452 225 c 0,33,34
 452 216 452 216 445 203 c 2,35,-1
 370 62 l 2,36,37
 360 45 360 45 343 45 c 0,38,39
 331 45 331 45 323 53 c 128,-1,40
 315 61 315 61 315 74 c 0,41,42
 315 82 315 82 318 89 c 2,43,-1
 383 225 l 1,22,-1
EndSplineSet
EndChar
StartChar: onehalf
Encoding: 189 189 222
Width: 602
Flags: W
LayerCount: 2
Back
Fore
SplineSet
496 419 m 2,0,1
 504 423 504 423 513 423 c 0,2,3
 524 423 524 423 531.5 415.5 c 128,-1,4
 539 408 539 408 539 397 c 0,5,6
 539 380 539 380 521 370 c 2,7,-1
 102 158 l 2,8,9
 95 154 95 154 86 154 c 0,10,11
 75 154 75 154 67.5 162 c 128,-1,12
 60 170 60 170 60 181 c 0,13,14
 60 197 60 197 78 207 c 2,15,-1
 496 419 l 2,0,1
320 -89 m 2,16,17
 304 -89 304 -89 294.5 -78 c 128,-1,18
 285 -67 285 -67 285 -49 c 0,19,20
 285 -44 285 -44 286 -39 c 128,-1,21
 287 -34 287 -34 289.5 -29 c 128,-1,22
 292 -24 292 -24 294 -20.5 c 128,-1,23
 296 -17 296 -17 301.5 -11.5 c 128,-1,24
 307 -6 307 -6 310 -3 c 128,-1,25
 313 0 313 0 320.5 6 c 128,-1,26
 328 12 328 12 332 15 c 128,-1,27
 336 18 336 18 345 25 c 128,-1,28
 354 32 354 32 359 36 c 0,29,30
 410 74 410 74 432 98.5 c 128,-1,31
 454 123 454 123 454 149 c 128,-1,32
 454 175 454 175 439.5 190.5 c 128,-1,33
 425 206 425 206 400 206 c 0,34,35
 379 206 379 206 350.5 190.5 c 128,-1,36
 322 175 322 175 312 175 c 0,37,38
 286 175 286 175 286 203 c 0,39,40
 286 222 286 222 325 243 c 128,-1,41
 364 264 364 264 411 264 c 0,42,43
 459 264 459 264 490.5 232 c 128,-1,44
 522 200 522 200 522 154 c 0,45,46
 522 105 522 105 483 63.5 c 128,-1,47
 444 22 444 22 357 -29 c 1,48,-1
 491 -29 l 2,49,50
 527 -29 527 -29 527 -59 c 0,51,52
 527 -72 527 -72 517.5 -80.5 c 128,-1,53
 508 -89 508 -89 493 -89 c 2,54,-1
 320 -89 l 2,16,17
100 328 m 2,55,56
 65 328 65 328 65 356 c 0,57,58
 65 373 65 373 78.5 378.5 c 128,-1,59
 92 384 92 384 124 384 c 2,60,-1
 157 384 l 1,61,-1
 157 618 l 1,62,-1
 120 616 l 1,63,-1
 117 616 l 2,64,65
 99 616 99 616 88 624 c 128,-1,66
 77 632 77 632 77 644 c 0,67,68
 77 672 77 672 116 675 c 2,69,-1
 186 680 l 1,70,-1
 192 680 l 2,71,72
 223 680 223 680 223 644 c 2,73,-1
 223 384 l 1,74,-1
 251 384 l 2,75,76
 284 384 284 384 297 379 c 128,-1,77
 310 374 310 374 310 356 c 0,78,79
 310 328 310 328 275 328 c 2,80,-1
 100 328 l 2,55,56
EndSplineSet
EndChar
StartChar: threequarters
Encoding: 190 190 227
Width: 602
Flags: W
LayerCount: 2
Back
Fore
SplineSet
466 -68 m 2,0,1
 466 -83 466 -83 458 -88 c 128,-1,2
 450 -93 450 -93 432 -93 c 0,3,4
 404 -93 404 -93 404 -68 c 2,5,-1
 404 -17 l 1,6,-1
 256 -17 l 2,7,8
 239 -17 239 -17 232.5 -8.5 c 128,-1,9
 226 0 226 0 226 19 c 0,10,11
 226 53 226 53 244 75 c 2,12,-1
 381 246 l 2,13,14
 395 263 395 263 406 263 c 0,15,16
 411 263 411 263 421 261 c 2,17,-1
 450 253 l 2,18,19
 466 249 466 249 466 222 c 2,20,-1
 466 39 l 1,21,-1
 503 39 l 2,22,23
 518 39 518 39 522.5 33.5 c 128,-1,24
 527 28 527 28 527 12 c 0,25,26
 527 -5 527 -5 523 -11 c 128,-1,27
 519 -17 519 -17 503 -17 c 2,28,-1
 466 -17 l 1,29,-1
 466 -68 l 2,0,1
409 39 m 1,30,-1
 409 203 l 1,31,-1
 283 39 l 1,32,-1
 409 39 l 1,30,-1
496 419 m 2,33,34
 504 423 504 423 513 423 c 0,35,36
 524 423 524 423 531.5 415.5 c 128,-1,37
 539 408 539 408 539 397 c 0,38,39
 539 380 539 380 521 370 c 2,40,-1
 102 158 l 2,41,42
 95 154 95 154 86 154 c 0,43,44
 75 154 75 154 67.5 162 c 128,-1,45
 60 170 60 170 60 181 c 0,46,47
 60 197 60 197 78 207 c 2,48,-1
 496 419 l 2,33,34
262 513 m 1,49,50
 327 484 327 484 327 425 c 0,51,52
 327 378 327 378 288.5 347 c 128,-1,53
 250 316 250 316 188 316 c 0,54,55
 137 316 137 316 101.5 331.5 c 128,-1,56
 66 347 66 347 66 366 c 0,57,58
 66 379 66 379 75.5 387.5 c 128,-1,59
 85 396 85 396 99 396 c 0,60,61
 110 396 110 396 139 385 c 128,-1,62
 168 374 168 374 188 374 c 0,63,64
 217 374 217 374 236.5 390.5 c 128,-1,65
 256 407 256 407 256 431 c 0,66,67
 256 453 256 453 240 468 c 128,-1,68
 224 483 224 483 201 483 c 2,69,-1
 195 483 l 2,70,71
 165 483 165 483 165 508 c 0,72,73
 165 521 165 521 172 526.5 c 128,-1,74
 179 532 179 532 197 534 c 0,75,76
 246 538 246 538 246 578 c 0,77,78
 246 597 246 597 230.5 611.5 c 128,-1,79
 215 626 215 626 194 626 c 0,80,81
 174 626 174 626 148 614 c 128,-1,82
 122 602 122 602 114 602 c 0,83,84
 103 602 103 602 95 610 c 128,-1,85
 87 618 87 618 87 629 c 0,86,87
 87 646 87 646 121.5 663 c 128,-1,88
 156 680 156 680 201 680 c 0,89,90
 250 680 250 680 282 653 c 128,-1,91
 314 626 314 626 314 589 c 0,92,93
 314 538 314 538 262 513 c 1,49,50
EndSplineSet
EndChar
StartChar: questiondown
Encoding: 191 191 125
Width: 602
Flags: W
LayerCount: 2
Back
Fore
SplineSet
426 521 m 128,-1,1
 426 489 426 489 401.5 468.5 c 128,-1,2
 377 448 377 448 336 448 c 128,-1,3
 295 448 295 448 270.5 468.5 c 128,-1,4
 246 489 246 489 246 521 c 128,-1,5
 246 553 246 553 270.5 574 c 128,-1,6
 295 595 295 595 336 595 c 0,7,8
 376 595 376 595 401 574 c 128,-1,0
 426 553 426 553 426 521 c 128,-1,1
372 336 m 2,9,10
 372 310 372 310 363.5 295 c 128,-1,11
 355 280 355 280 332 268 c 0,12,13
 319 261 319 261 293.5 249.5 c 128,-1,14
 268 238 268 238 255 230.5 c 128,-1,15
 242 223 242 223 226.5 210.5 c 128,-1,16
 211 198 211 198 204 182 c 128,-1,17
 197 166 197 166 197 145 c 0,18,19
 197 100 197 100 229 72 c 128,-1,20
 261 44 261 44 317 44 c 0,21,22
 349 44 349 44 377 53.5 c 128,-1,23
 405 63 405 63 411 73 c 0,24,25
 412 75 412 75 413.5 91 c 128,-1,26
 415 107 415 107 422.5 119 c 128,-1,27
 430 131 430 131 449 131 c 0,28,29
 464 131 464 131 474 119 c 128,-1,30
 484 107 484 107 484 87 c 2,31,-1
 484 40 l 2,32,33
 484 14 484 14 431.5 -5 c 128,-1,34
 379 -24 379 -24 308 -24 c 0,35,36
 222 -24 222 -24 170.5 23.5 c 128,-1,37
 119 71 119 71 119 146 c 0,38,39
 119 208 119 208 162 249 c 128,-1,40
 205 290 205 290 300 325 c 1,41,-1
 300 364 l 2,42,43
 300 380 300 380 310 390 c 128,-1,44
 320 400 320 400 337 400 c 0,45,46
 372 400 372 400 372 365 c 2,47,-1
 372 336 l 2,9,10
EndSplineSet
EndChar
StartChar: Aring
Encoding: 197 197 156
Width: 602
Flags: W
LayerCount: 2
Back
Fore
SplineSet
215 734 m 0,0,1
 215 706 215 706 234 687.5 c 128,-1,2
 253 669 253 669 281 669 c 0,3,4
 308 669 308 669 327.5 688 c 128,-1,5
 347 707 347 707 347 734 c 128,-1,6
 347 761 347 761 327.5 780.5 c 128,-1,7
 308 800 308 800 281 800 c 0,8,9
 253 800 253 800 234 780.5 c 128,-1,10
 215 761 215 761 215 734 c 0,0,1
157 735 m 0,11,12
 157 786 157 786 193 822 c 128,-1,13
 229 858 229 858 281 858 c 128,-1,14
 333 858 333 858 368.5 822.5 c 128,-1,15
 404 787 404 787 404 735 c 128,-1,16
 404 683 404 683 368.5 647 c 128,-1,17
 333 611 333 611 281 611 c 128,-1,18
 229 611 229 611 193 647 c 128,-1,19
 157 683 157 683 157 735 c 0,11,12
200 250 m 1,20,-1
 400 250 l 1,21,-1
 294 509 l 1,22,-1
 200 250 l 1,20,-1
225 509 m 1,23,-1
 154 509 l 2,24,25
 125 509 125 509 112.5 516.5 c 128,-1,26
 100 524 100 524 100 544 c 0,27,28
 100 568 100 568 114 573.5 c 128,-1,29
 128 579 128 579 168 579 c 2,30,-1
 307 579 l 2,31,32
 323 579 323 579 331 577.5 c 128,-1,33
 339 576 339 576 347 569 c 128,-1,34
 355 562 355 562 361 546 c 2,35,-1
 552 69 l 1,36,-1
 560 69 l 2,37,38
 586 69 586 69 596 62 c 128,-1,39
 606 55 606 55 606 35 c 0,40,41
 606 14 606 14 596.5 7 c 128,-1,42
 587 0 587 0 562 0 c 2,43,-1
 429 0 l 2,44,45
 397 0 397 0 384 6.5 c 128,-1,46
 371 13 371 13 371 35 c 0,47,48
 371 55 371 55 383.5 62 c 128,-1,49
 396 69 396 69 426 69 c 2,50,-1
 471 69 l 1,51,-1
 424 185 l 1,52,-1
 176 185 l 1,53,-1
 134 69 l 1,54,-1
 181 69 l 2,55,56
 211 69 211 69 224 62 c 128,-1,57
 237 55 237 55 237 35 c 0,58,59
 237 13 237 13 224.5 6.5 c 128,-1,60
 212 0 212 0 180 0 c 2,61,-1
 52 0 l 2,62,63
 23 0 23 0 12 6.5 c 128,-1,64
 1 13 1 13 1 35 c 0,65,66
 1 54 1 54 11.5 61.5 c 128,-1,67
 22 69 22 69 47 69 c 2,68,-1
 59 69 l 1,69,-1
 225 509 l 1,23,-1
EndSplineSet
EndChar
StartChar: AE
Encoding: 198 198 140
Width: 602
Flags: W
LayerCount: 2
Back
Fore
SplineSet
166 509 m 2,0,1
 129 509 129 509 129 544 c 0,2,3
 129 564 129 564 138 571.5 c 128,-1,4
 147 579 147 579 169 579 c 2,5,-1
 543 579 l 2,6,7
 577 579 577 579 577 540 c 2,8,-1
 577 414 l 2,9,10
 577 380 577 380 543 380 c 0,11,12
 524 380 524 380 516 390 c 128,-1,13
 508 400 508 400 508 423 c 2,14,-1
 508 439 l 1,15,-1
 508 509 l 1,16,-1
 348 509 l 1,17,-1
 348 325 l 1,18,-1
 420 325 l 1,19,-1
 420 340 l 2,20,21
 420 374 420 374 426 388 c 128,-1,22
 432 402 432 402 451 402 c 0,23,24
 481 402 481 402 481 362 c 2,25,-1
 481 238 l 2,26,27
 481 215 481 215 474.5 205 c 128,-1,28
 468 195 468 195 451 195 c 0,29,30
 432 195 432 195 426 208.5 c 128,-1,31
 420 222 420 222 420 256 c 2,32,-1
 420 271 l 1,33,-1
 348 271 l 1,34,-1
 348 69 l 1,35,-1
 507 69 l 1,36,-1
 507 148 l 1,37,-1
 507 168 l 2,38,39
 507 207 507 207 542 207 c 0,40,41
 576 207 576 207 576 173 c 2,42,-1
 576 36 l 2,43,44
 576 0 576 0 542 0 c 2,45,-1
 242 0 l 2,46,47
 212 0 212 0 212 35 c 0,48,49
 212 57 212 57 222.5 63 c 128,-1,50
 233 69 233 69 263 69 c 2,51,-1
 279 69 l 1,52,-1
 279 193 l 1,53,-1
 172 193 l 1,54,-1
 132 69 l 1,55,-1
 162 69 l 2,56,57
 191 69 191 69 191 35 c 0,58,59
 191 13 191 13 180.5 6.5 c 128,-1,60
 170 0 170 0 141 0 c 2,61,-1
 34 0 l 2,62,63
 1 0 1 0 1 35 c 0,64,65
 1 55 1 55 11 62 c 128,-1,66
 21 69 21 69 47 69 c 2,67,-1
 61 69 l 1,68,-1
 213 509 l 1,69,-1
 166 509 l 2,0,1
187 250 m 1,70,-1
 279 250 l 1,71,-1
 279 522 l 1,72,-1
 269 522 l 1,73,-1
 187 250 l 1,70,-1
EndSplineSet
EndChar
StartChar: Eth
Encoding: 208 208 213
Width: 602
Flags: W
LayerCount: 2
Back
Fore
SplineSet
184 69 m 1,0,1
 216 66 216 66 245 66 c 0,2,3
 365 66 365 66 421 120 c 128,-1,4
 477 174 477 174 477 289 c 0,5,6
 477 406 477 406 420.5 458.5 c 128,-1,7
 364 511 364 511 241 511 c 0,8,9
 204 511 204 511 184 509 c 1,10,-1
 184 337 l 1,11,-1
 305 337 l 2,12,13
 331 337 331 337 341 331 c 128,-1,14
 351 325 351 325 351 306 c 0,15,16
 351 288 351 288 340.5 281 c 128,-1,17
 330 274 330 274 305 274 c 2,18,-1
 184 274 l 1,19,-1
 184 69 l 1,0,1
184 0 m 2,20,-1
 107 0 l 1,21,-1
 85 0 l 2,22,23
 49 0 49 0 49 35 c 0,24,25
 49 55 49 55 59.5 62 c 128,-1,26
 70 69 70 69 95 69 c 2,27,-1
 108 69 l 1,28,-1
 108 274 l 1,29,-1
 65 274 l 2,30,31
 41 274 41 274 31 280.5 c 128,-1,32
 21 287 21 287 21 306 c 0,33,34
 21 324 21 324 31 330.5 c 128,-1,35
 41 337 41 337 65 337 c 2,36,-1
 108 337 l 1,37,-1
 108 509 l 1,38,-1
 96 509 l 2,39,40
 71 509 71 509 60 516.5 c 128,-1,41
 49 524 49 524 49 544 c 0,42,43
 49 567 49 567 61.5 573 c 128,-1,44
 74 579 74 579 107 579 c 2,45,-1
 184 579 l 1,46,-1
 292 579 l 2,47,48
 413 579 413 579 485.5 501 c 128,-1,49
 558 423 558 423 558 289 c 128,-1,50
 558 155 558 155 477 71 c 0,51,52
 407 -2 407 -2 253 -2 c 0,53,54
 243 -2 243 -2 220 -1 c 128,-1,55
 197 0 197 0 184 0 c 2,20,-1
EndSplineSet
EndChar
StartChar: multiply
Encoding: 215 215 221
Width: 602
Flags: W
LayerCount: 2
Back
Fore
SplineSet
300 368 m 1,0,-1
 425 493 l 2,1,2
 438 506 438 506 452 506 c 0,3,4
 467 506 467 506 477.5 495.5 c 128,-1,5
 488 485 488 485 488 470 c 0,6,7
 488 456 488 456 475 443 c 2,8,-1
 350 318 l 1,9,-1
 479 188 l 2,10,11
 492 175 492 175 492 161 c 0,12,13
 492 146 492 146 482 135.5 c 128,-1,14
 472 125 472 125 457 125 c 0,15,16
 440 125 440 125 428 137 c 2,17,-1
 299 266 l 1,18,-1
 174 142 l 2,19,20
 161 129 161 129 146 129 c 128,-1,21
 131 129 131 129 121.5 138.5 c 128,-1,22
 112 148 112 148 112 163 c 0,23,24
 112 180 112 180 124 192 c 2,25,-1
 248 317 l 1,26,-1
 119 447 l 2,27,28
 106 460 106 460 106 476 c 0,29,30
 106 490 106 490 117 500.5 c 128,-1,31
 128 511 128 511 142 511 c 0,32,33
 157 511 157 511 170 498 c 2,34,-1
 300 368 l 1,0,-1
EndSplineSet
EndChar
StartChar: Oslash
Encoding: 216 216 143
Width: 602
Flags: W
LayerCount: 2
Back
Fore
SplineSet
476 523 m 1,0,1
 565 434 565 434 565 289 c 0,2,3
 565 155 565 155 490.5 69.5 c 128,-1,4
 416 -16 416 -16 301 -16 c 0,5,6
 235 -16 235 -16 174 19 c 1,7,-1
 137 -41 l 2,8,9
 129 -54 129 -54 115 -54 c 0,10,11
 102 -54 102 -54 90.5 -44.5 c 128,-1,12
 79 -35 79 -35 79 -26 c 128,-1,13
 79 -17 79 -17 83 -10 c 2,14,-1
 124 58 l 1,15,16
 37 147 37 147 37 289 c 0,17,18
 37 424 37 424 111 509 c 128,-1,19
 185 594 185 594 301 594 c 0,20,21
 370 594 370 594 425 561 c 1,22,-1
 459 617 l 2,23,24
 467 630 467 630 481 630 c 128,-1,25
 495 630 495 630 506 621 c 128,-1,26
 517 612 517 612 517 601 c 0,27,28
 517 593 517 593 513 586 c 2,29,-1
 476 523 l 1,0,1
435 454 m 1,30,-1
 211 81 l 1,31,32
 254 54 254 54 301 54 c 0,33,34
 382 54 382 54 429.5 115.5 c 128,-1,35
 477 177 477 177 477 289 c 0,36,37
 477 391 477 391 435 454 c 1,30,-1
165 127 m 1,38,-1
 388 500 l 1,39,40
 344 524 344 524 301 524 c 0,41,42
 219 524 219 524 172 462.5 c 128,-1,43
 125 401 125 401 125 289 c 0,44,45
 125 186 125 186 165 127 c 1,38,-1
EndSplineSet
EndChar
StartChar: Thorn
Encoding: 222 222 214
Width: 602
Flags: W
LayerCount: 2
Back
Fore
SplineSet
333 69 m 2,0,1
 378 69 378 69 378 35 c 0,2,3
 378 14 378 14 367 7 c 128,-1,4
 356 0 356 0 329 0 c 2,5,-1
 90 0 l 2,6,7
 56 0 56 0 56 35 c 0,8,9
 56 69 56 69 91 69 c 2,10,-1
 154 69 l 1,11,-1
 154 509 l 1,12,-1
 120 509 l 2,13,14
 82 509 82 509 69 514.5 c 128,-1,15
 56 520 56 520 56 544 c 0,16,17
 56 579 56 579 90 579 c 2,18,-1
 311 579 l 2,19,20
 356 579 356 579 356 544 c 0,21,22
 356 523 356 523 344.5 516 c 128,-1,23
 333 509 333 509 306 509 c 2,24,-1
 231 509 l 1,25,-1
 231 455 l 1,26,-1
 306 455 l 2,27,28
 517 455 517 455 517 289 c 0,29,30
 517 124 517 124 306 124 c 2,31,-1
 231 124 l 1,32,-1
 231 69 l 1,33,-1
 333 69 l 2,0,1
231 385 m 1,34,-1
 231 188 l 1,35,-1
 306 188 l 2,36,37
 428 188 428 188 428 287 c 0,38,39
 428 385 428 385 306 385 c 2,40,-1
 231 385 l 1,34,-1
EndSplineSet
EndChar
StartChar: germandbls
Encoding: 223 223 151
Width: 602
Flags: W
LayerCount: 2
Back
Fore
SplineSet
120 69 m 1,0,-1
 120 439 l 2,1,2
 120 480 120 480 121 499.5 c 128,-1,3
 122 519 122 519 128.5 542.5 c 128,-1,4
 135 566 135 566 148 581 c 0,5,6
 198 639 198 639 314 639 c 0,7,8
 398 639 398 639 446 599.5 c 128,-1,9
 494 560 494 560 494 493 c 0,10,11
 494 406 494 406 397 378 c 1,12,13
 468 372 468 372 508.5 322.5 c 128,-1,14
 549 273 549 273 549 191 c 0,15,16
 549 94 549 94 499.5 41.5 c 128,-1,17
 450 -11 450 -11 359 -11 c 0,18,19
 311 -11 311 -11 292 -3.5 c 128,-1,20
 273 4 273 4 273 28 c 0,21,22
 273 42 273 42 281.5 50.5 c 128,-1,23
 290 59 290 59 304 59 c 0,24,25
 310 59 310 59 326.5 57.5 c 128,-1,26
 343 56 343 56 353 56 c 0,27,28
 468 56 468 56 468 195 c 0,29,30
 468 255 468 255 440 292.5 c 128,-1,31
 412 330 412 330 371 335 c 0,32,33
 359 336 359 336 342 337 c 128,-1,34
 325 338 325 338 316 339 c 128,-1,35
 307 340 307 340 297 342.5 c 128,-1,36
 287 345 287 345 283 351.5 c 128,-1,37
 279 358 279 358 279 368 c 0,38,39
 279 381 279 381 287.5 388.5 c 128,-1,40
 296 396 296 396 304 398 c 128,-1,41
 312 400 312 400 331 402 c 0,42,43
 336 403 336 403 338 403 c 0,44,45
 375 407 375 407 396 429 c 128,-1,46
 417 451 417 451 417 484 c 0,47,48
 417 524 417 524 387 549.5 c 128,-1,49
 357 575 357 575 306 575 c 0,50,51
 236 575 236 575 215 539.5 c 128,-1,52
 194 504 194 504 194 420 c 2,53,-1
 194 36 l 2,54,55
 194 0 194 0 165 0 c 2,56,-1
 89 0 l 2,57,58
 51 0 51 0 36 6.5 c 128,-1,59
 21 13 21 13 21 35 c 0,60,61
 21 69 21 69 60 69 c 2,62,-1
 120 69 l 1,0,-1
EndSplineSet
EndChar
StartChar: aring
Encoding: 229 229 184
Width: 602
Flags: W
LayerCount: 2
Back
Fore
SplineSet
228 619 m 0,0,1
 228 591 228 591 247 572 c 128,-1,2
 266 553 266 553 294 553 c 0,3,4
 321 553 321 553 340 572 c 128,-1,5
 359 591 359 591 359 619 c 128,-1,6
 359 647 359 647 340 666 c 128,-1,7
 321 685 321 685 294 685 c 0,8,9
 266 685 266 685 247 665.5 c 128,-1,10
 228 646 228 646 228 619 c 0,0,1
170 619 m 0,11,12
 170 670 170 670 206 706 c 128,-1,13
 242 742 242 742 294 742 c 128,-1,14
 346 742 346 742 381.5 706.5 c 128,-1,15
 417 671 417 671 417 619 c 128,-1,16
 417 567 417 567 381.5 531 c 128,-1,17
 346 495 346 495 294 495 c 128,-1,18
 242 495 242 495 206 531 c 128,-1,19
 170 567 170 567 170 619 c 0,11,12
409 216 m 1,20,21
 358 233 358 233 306 233 c 0,22,23
 230 233 230 233 187.5 207 c 128,-1,24
 145 181 145 181 145 139 c 0,25,26
 145 106 145 106 172 84.5 c 128,-1,27
 199 63 199 63 241 63 c 0,28,29
 305 63 305 63 357 96 c 128,-1,30
 409 129 409 129 409 163 c 2,31,-1
 409 216 l 1,20,21
412 62 m 1,32,33
 330 -12 330 -12 229 -12 c 0,34,35
 156 -12 156 -12 111.5 28.5 c 128,-1,36
 67 69 67 69 67 134 c 0,37,38
 67 210 67 210 126 253 c 128,-1,39
 185 296 185 296 293 296 c 0,40,41
 349 296 349 296 409 281 c 1,42,-1
 409 284 l 2,43,44
 409 394 409 394 299 394 c 0,45,46
 261 394 261 394 214 373.5 c 128,-1,47
 167 353 167 353 152 353 c 0,48,49
 138 353 138 353 128.5 364.5 c 128,-1,50
 119 376 119 376 119 394 c 0,51,52
 119 421 119 421 170.5 442 c 128,-1,53
 222 463 222 463 301 463 c 0,54,55
 395 463 395 463 439.5 421 c 128,-1,56
 484 379 484 379 484 290 c 2,57,-1
 484 69 l 1,58,-1
 509 69 l 2,59,60
 542 69 542 69 554.5 62.5 c 128,-1,61
 567 56 567 56 567 35 c 0,62,63
 567 0 567 0 528 0 c 2,64,-1
 451 0 l 2,65,66
 423 0 423 0 417 32 c 2,67,-1
 412 62 l 1,32,33
EndSplineSet
EndChar
StartChar: ae
Encoding: 230 230 146
Width: 602
Flags: W
LayerCount: 2
Back
Fore
SplineSet
266 204 m 1,0,1
 261 204 261 204 251 204.5 c 128,-1,2
 241 205 241 205 237 205 c 0,3,4
 159 205 159 205 123.5 186.5 c 128,-1,5
 88 168 88 168 88 125 c 0,6,7
 88 93 88 93 106.5 75 c 128,-1,8
 125 57 125 57 159 57 c 0,9,10
 201 57 201 57 233.5 83.5 c 128,-1,11
 266 110 266 110 266 145 c 2,12,-1
 266 204 l 1,0,1
333 263 m 1,13,-1
 500 263 l 1,14,-1
 500 271 l 2,15,16
 500 333 500 333 479.5 365 c 128,-1,17
 459 397 459 397 422 397 c 0,18,19
 381 397 381 397 357 365 c 128,-1,20
 333 333 333 333 333 275 c 2,21,-1
 333 263 l 1,13,-1
530 204 m 2,22,-1
 333 204 l 1,23,24
 332 194 332 194 332 175 c 0,25,26
 332 118 332 118 355.5 87.5 c 128,-1,27
 379 57 379 57 422 57 c 0,28,29
 451 57 451 57 476.5 73 c 128,-1,30
 502 89 502 89 520 105 c 128,-1,31
 538 121 538 121 550 121 c 128,-1,32
 562 121 562 121 570.5 112 c 128,-1,33
 579 103 579 103 579 90 c 0,34,35
 579 58 579 58 530 23 c 128,-1,36
 481 -12 481 -12 419 -12 c 0,37,38
 380 -12 380 -12 351.5 5 c 128,-1,39
 323 22 323 22 296 61 c 1,40,41
 254 23 254 23 220 5.5 c 128,-1,42
 186 -12 186 -12 148 -12 c 0,43,44
 91 -12 91 -12 55 25 c 128,-1,45
 19 62 19 62 19 119 c 0,46,47
 19 194 19 194 68 228.5 c 128,-1,48
 117 263 117 263 215 263 c 2,49,-1
 268 263 l 1,50,51
 270 287 270 287 270 296 c 0,52,53
 270 402 270 402 196 402 c 0,54,55
 164 402 164 402 128.5 378.5 c 128,-1,56
 93 355 93 355 80 355 c 0,57,58
 70 355 70 355 62.5 363 c 128,-1,59
 55 371 55 371 55 383 c 0,60,61
 55 410 55 410 98.5 437.5 c 128,-1,62
 142 465 142 465 199 465 c 0,63,64
 266 465 266 465 307 407 c 1,65,66
 356 465 356 465 423 465 c 0,67,68
 494 465 494 465 535 410 c 128,-1,69
 576 355 576 355 576 255 c 0,70,71
 576 222 576 222 567.5 213 c 128,-1,72
 559 204 559 204 530 204 c 2,22,-1
EndSplineSet
EndChar
StartChar: eth
Encoding: 240 240 219
Width: 602
Flags: W
LayerCount: 2
Back
Fore
SplineSet
301 56 m 128,-1,1
 376 56 376 56 424 104 c 128,-1,2
 472 152 472 152 472 223 c 128,-1,3
 472 294 472 294 424 342 c 128,-1,4
 376 390 376 390 301 390 c 128,-1,5
 226 390 226 390 178 342 c 128,-1,6
 130 294 130 294 130 223 c 128,-1,7
 130 152 130 152 178 104 c 128,-1,0
 226 56 226 56 301 56 c 128,-1,1
371 443 m 1,8,9
 331 493 331 493 290 528 c 1,10,-1
 200 487 l 2,11,12
 180 478 180 478 170 478 c 0,13,14
 162 478 162 478 156.5 485 c 128,-1,15
 151 492 151 492 151 501 c 0,16,17
 151 516 151 516 180 530 c 2,18,-1
 250 561 l 1,19,20
 228 577 228 577 204.5 590 c 128,-1,21
 181 603 181 603 172.5 608.5 c 128,-1,22
 164 614 164 614 164 619 c 0,23,24
 164 627 164 627 176.5 633.5 c 128,-1,25
 189 640 189 640 205 640 c 0,26,27
 227 640 227 640 315 590 c 1,28,-1
 395 626 l 2,29,30
 417 635 417 635 424 635 c 0,31,32
 432 635 432 635 438 628 c 128,-1,33
 444 621 444 621 444 612 c 0,34,35
 444 595 444 595 415 583 c 2,36,-1
 360 560 l 1,37,38
 557 407 557 407 557 234 c 0,39,40
 557 124 557 124 487 56 c 128,-1,41
 417 -12 417 -12 301 -12 c 0,42,43
 187 -12 187 -12 116 55 c 128,-1,44
 45 122 45 122 45 223 c 0,45,46
 45 321 45 321 114.5 388.5 c 128,-1,47
 184 456 184 456 289 456 c 0,48,49
 327 456 327 456 371 443 c 1,8,9
EndSplineSet
EndChar
StartChar: divide
Encoding: 247 247 218
Width: 602
Flags: W
LayerCount: 2
Back
Fore
SplineSet
301 516 m 128,-1,1
 323 516 323 516 339 499.5 c 128,-1,2
 355 483 355 483 355 461 c 128,-1,3
 355 439 355 439 339 422.5 c 128,-1,4
 323 406 323 406 301 406 c 128,-1,5
 279 406 279 406 263 422 c 128,-1,6
 247 438 247 438 247 461 c 128,-1,7
 247 484 247 484 263 500 c 128,-1,0
 279 516 279 516 301 516 c 128,-1,1
82 344 m 2,8,-1
 519 344 l 2,9,10
 550 344 550 344 550 308 c 128,-1,11
 550 272 550 272 519 272 c 2,12,-1
 82 272 l 2,13,14
 51 272 51 272 51 308 c 128,-1,15
 51 344 51 344 82 344 c 2,8,-1
301 209 m 128,-1,17
 323 209 323 209 339 193 c 128,-1,18
 355 177 355 177 355 154 c 0,19,20
 355 132 355 132 339.5 116 c 128,-1,21
 324 100 324 100 301 100 c 128,-1,22
 278 100 278 100 262.5 116 c 128,-1,23
 247 132 247 132 247 154 c 0,24,25
 247 177 247 177 263 193 c 128,-1,16
 279 209 279 209 301 209 c 128,-1,17
EndSplineSet
EndChar
StartChar: oslash
Encoding: 248 248 149
Width: 602
Flags: W
LayerCount: 2
Back
Fore
SplineSet
497 384 m 1,0,1
 557 321 557 321 557 226 c 0,2,3
 557 123 557 123 486.5 56.5 c 128,-1,4
 416 -10 416 -10 302 -10 c 0,5,6
 216 -10 216 -10 145 34 c 1,7,-1
 97 -13 l 2,8,9
 89 -21 89 -21 81 -21 c 0,10,11
 70 -21 70 -21 61 -12 c 128,-1,12
 52 -3 52 -3 52 7 c 128,-1,13
 52 17 52 17 58 23 c 2,14,-1
 106 70 l 1,15,16
 47 146 47 146 47 226 c 0,17,18
 47 329 47 329 118 395.5 c 128,-1,19
 189 462 189 462 303 462 c 0,20,21
 384 462 384 462 455 420 c 1,22,-1
 502 467 l 2,23,24
 510 475 510 475 519 475 c 0,25,26
 530 475 530 475 538.5 466.5 c 128,-1,27
 547 458 547 458 547 447 c 128,-1,28
 547 436 547 436 541 430 c 2,29,-1
 497 384 l 1,0,1
162 127 m 1,30,-1
 404 368 l 1,31,32
 355 401 355 401 300 401 c 0,33,34
 224 401 224 401 176 354 c 128,-1,35
 128 307 128 307 128 232 c 0,36,37
 128 177 128 177 162 127 c 1,30,-1
443 331 m 1,38,-1
 199 88 l 1,39,40
 254 54 254 54 311 54 c 0,41,42
 386 54 386 54 433.5 103.5 c 128,-1,43
 481 153 481 153 481 226 c 0,44,45
 481 283 481 283 443 331 c 1,38,-1
EndSplineSet
EndChar
StartChar: thorn
Encoding: 254 254 226
Width: 602
Flags: W
LayerCount: 2
Back
Fore
SplineSet
326 71 m 128,-1,1
 394 71 394 71 437.5 113.5 c 128,-1,2
 481 156 481 156 481 224 c 0,3,4
 481 290 481 290 437.5 333.5 c 128,-1,5
 394 377 394 377 326 377 c 128,-1,6
 258 377 258 377 215 333.5 c 128,-1,7
 172 290 172 290 172 224 c 0,8,9
 172 157 172 157 215 114 c 128,-1,0
 258 71 258 71 326 71 c 128,-1,1
174 -125 m 1,10,-1
 292 -125 l 2,11,12
 329 -125 329 -125 329 -160 c 0,13,14
 329 -180 329 -180 319.5 -187.5 c 128,-1,15
 310 -195 310 -195 288 -195 c 2,16,-1
 72 -195 l 2,17,18
 33 -195 33 -195 33 -160 c 0,19,20
 33 -140 33 -140 46 -132.5 c 128,-1,21
 59 -125 59 -125 92 -125 c 2,22,-1
 101 -125 l 1,23,-1
 101 569 l 1,24,-1
 92 569 l 2,25,26
 59 569 59 569 46 576.5 c 128,-1,27
 33 584 33 584 33 604 c 0,28,29
 33 639 33 639 72 639 c 2,30,-1
 147 639 l 2,31,32
 175 639 175 639 175 619 c 2,33,-1
 175 384 l 1,34,35
 241 452 241 452 335 452 c 0,36,37
 433 452 433 452 499 386 c 128,-1,38
 565 320 565 320 565 219 c 0,39,40
 565 123 565 123 502 61 c 128,-1,41
 439 -1 439 -1 343 -1 c 0,42,43
 236 -1 236 -1 174 70 c 1,44,-1
 174 -125 l 1,10,-1
EndSplineSet
EndChar
StartChar: dotlessi
Encoding: 305 305 147
Width: 602
Flags: W
LayerCount: 2
Back
Fore
SplineSet
346 69 m 1,0,-1
 503 69 l 2,1,2
 540 69 540 69 540 35 c 0,3,4
 540 15 540 15 531 7.5 c 128,-1,5
 522 0 522 0 500 0 c 2,6,-1
 121 0 l 2,7,8
 82 0 82 0 82 35 c 0,9,10
 82 69 82 69 123 69 c 2,11,-1
 272 69 l 1,12,-1
 272 382 l 1,13,-1
 177 382 l 2,14,15
 136 382 136 382 136 417 c 0,16,17
 136 451 136 451 175 451 c 2,18,-1
 318 451 l 2,19,20
 346 451 346 451 346 431 c 2,21,-1
 346 69 l 1,0,-1
EndSplineSet
EndChar
StartChar: Lslash
Encoding: 321 321 142
Width: 602
Flags: W
LayerCount: 2
Back
Fore
SplineSet
485 197 m 2,0,1
 485 231 485 231 491.5 243 c 128,-1,2
 498 255 498 255 520 255 c 0,3,4
 543 255 543 255 549 242.5 c 128,-1,5
 555 230 555 230 555 197 c 2,6,-1
 555 36 l 2,7,8
 555 0 555 0 520 0 c 2,9,-1
 87 0 l 1,10,-1
 64 0 l 2,11,12
 29 0 29 0 29 35 c 0,13,14
 29 57 29 57 41 63 c 128,-1,15
 53 69 53 69 87 69 c 2,16,-1
 148 69 l 1,17,-1
 148 229 l 1,18,-1
 100 195 l 2,19,20
 77 179 77 179 67 179 c 0,21,22
 56 179 56 179 47.5 187.5 c 128,-1,23
 39 196 39 196 39 208 c 0,24,25
 39 222 39 222 66 242 c 2,26,-1
 148 299 l 1,27,-1
 148 509 l 1,28,-1
 87 509 l 2,29,30
 53 509 53 509 41 515.5 c 128,-1,31
 29 522 29 522 29 544 c 0,32,33
 29 567 29 567 41.5 573 c 128,-1,34
 54 579 54 579 87 579 c 2,35,-1
 307 579 l 1,36,-1
 330 579 l 2,37,38
 366 579 366 579 366 544 c 0,39,40
 366 521 366 521 353.5 515 c 128,-1,41
 341 509 341 509 307 509 c 2,42,-1
 225 509 l 1,43,-1
 225 337 l 1,44,-1
 323 404 l 2,45,46
 346 419 346 419 353 419 c 0,47,48
 364 419 364 419 372.5 409.5 c 128,-1,49
 381 400 381 400 381 388 c 0,50,51
 381 373 381 373 356 357 c 2,52,-1
 225 267 l 1,53,-1
 225 69 l 1,54,-1
 485 69 l 1,55,-1
 485 197 l 2,0,1
EndSplineSet
EndChar
StartChar: lslash
Encoding: 322 322 148
Width: 602
Flags: W
LayerCount: 2
Back
Fore
SplineSet
268 298 m 1,0,-1
 201 252 l 2,1,2
 180 237 180 237 170 237 c 128,-1,3
 160 237 160 237 152.5 245 c 128,-1,4
 145 253 145 253 145 263 c 0,5,6
 145 277 145 277 171 295 c 2,7,-1
 268 362 l 1,8,-1
 268 569 l 1,9,-1
 185 569 l 2,10,11
 179 569 179 569 170.5 569.5 c 128,-1,12
 162 570 162 570 160 570 c 0,13,14
 114 570 114 570 114 604 c 0,15,16
 114 639 114 639 153 639 c 2,17,-1
 314 639 l 2,18,19
 342 639 342 639 342 619 c 2,20,-1
 342 392 l 1,21,-1
 414 442 l 2,22,23
 436 458 436 458 445 458 c 0,24,25
 455 458 455 458 462.5 450 c 128,-1,26
 470 442 470 442 470 432 c 0,27,28
 470 418 470 418 444 400 c 2,29,-1
 342 329 l 1,30,-1
 342 69 l 1,31,-1
 494 69 l 2,32,33
 531 69 531 69 531 35 c 0,34,35
 531 15 531 15 522 7.5 c 128,-1,36
 513 0 513 0 491 0 c 2,37,-1
 131 0 l 2,38,39
 92 0 92 0 92 35 c 0,40,41
 92 69 92 69 133 69 c 2,42,-1
 268 69 l 1,43,-1
 268 298 l 1,0,-1
EndSplineSet
EndChar
StartChar: OE
Encoding: 338 338 144
Width: 602
Flags: W
LayerCount: 2
Back
Fore
SplineSet
315 0 m 2,0,1
 201 0 201 0 149 34 c 0,2,3
 34 108 34 108 34 289 c 0,4,5
 34 478 34 478 148 548 c 0,6,7
 197 579 197 579 316 579 c 2,8,-1
 543 579 l 2,9,10
 577 579 577 579 577 540 c 2,11,-1
 577 414 l 2,12,13
 577 380 577 380 543 380 c 0,14,15
 524 380 524 380 516 390 c 128,-1,16
 508 400 508 400 508 423 c 2,17,-1
 508 439 l 1,18,-1
 508 514 l 1,19,-1
 352 514 l 1,20,-1
 352 325 l 1,21,-1
 420 325 l 1,22,23
 420 325 420 325 420 358 c 0,24,25
 420 381 420 381 427 391.5 c 128,-1,26
 434 402 434 402 451 402 c 0,27,28
 481 402 481 402 481 362 c 2,29,-1
 481 238 l 2,30,31
 481 215 481 215 474.5 205 c 128,-1,32
 468 195 468 195 451 195 c 0,33,34
 432 195 432 195 426 208.5 c 128,-1,35
 420 222 420 222 420 256 c 2,36,-1
 420 271 l 1,37,-1
 352 271 l 1,38,-1
 352 65 l 1,39,-1
 507 65 l 1,40,-1
 507 148 l 1,41,-1
 507 168 l 2,42,43
 507 207 507 207 542 207 c 0,44,45
 576 207 576 207 576 173 c 2,46,-1
 576 36 l 2,47,48
 576 0 576 0 542 0 c 2,49,-1
 315 0 l 2,0,1
284 514 m 2,50,51
 281 514 281 514 275 514.5 c 128,-1,52
 269 515 269 515 267 515 c 0,53,54
 114 515 114 515 114 289 c 0,55,56
 114 64 114 64 266 64 c 0,57,58
 278 64 278 64 284 65 c 1,59,-1
 284 514 l 2,50,51
EndSplineSet
EndChar
StartChar: oe
Encoding: 339 339 150
Width: 602
Flags: W
LayerCount: 2
Back
Fore
SplineSet
338 263 m 1,0,-1
 500 263 l 1,1,2
 500 263 500 263 500 271 c 0,3,4
 500 332 500 332 480 364.5 c 128,-1,5
 460 397 460 397 426 397 c 0,6,7
 338 397 338 397 338 267 c 2,8,-1
 338 263 l 1,0,-1
191 57 m 0,9,10
 228 57 228 57 250.5 98.5 c 128,-1,11
 273 140 273 140 273 215 c 0,12,13
 273 395 273 395 191 395 c 0,14,15
 153 395 153 395 131 350.5 c 128,-1,16
 109 306 109 306 109 225 c 128,-1,17
 109 144 109 144 131 100.5 c 128,-1,18
 153 57 153 57 191 57 c 0,9,10
337 204 m 1,19,20
 337 200 337 200 336.5 193 c 128,-1,21
 336 186 336 186 336 183 c 0,22,23
 336 122 336 122 359 89.5 c 128,-1,24
 382 57 382 57 424 57 c 0,25,26
 452 57 452 57 477 73 c 128,-1,27
 502 89 502 89 520 105 c 128,-1,28
 538 121 538 121 550 121 c 128,-1,29
 562 121 562 121 570.5 112 c 128,-1,30
 579 103 579 103 579 90 c 0,31,32
 579 58 579 58 529.5 23 c 128,-1,33
 480 -12 480 -12 419 -12 c 0,34,35
 343 -12 343 -12 303 54 c 1,36,37
 256 -12 256 -12 186 -12 c 0,38,39
 118 -12 118 -12 76.5 51.5 c 128,-1,40
 35 115 35 115 35 225 c 0,41,42
 35 337 35 337 79 400 c 128,-1,43
 123 463 123 463 194 463 c 0,44,45
 258 463 258 463 306 402 c 1,46,47
 358 466 358 466 426 466 c 128,-1,48
 494 466 494 466 535 410 c 128,-1,49
 576 354 576 354 576 255 c 0,50,51
 576 221 576 221 567 212.5 c 128,-1,52
 558 204 558 204 528 204 c 2,53,-1
 337 204 l 1,19,20
EndSplineSet
EndChar
StartChar: florin
Encoding: 402 402 103
Width: 602
Flags: W
LayerCount: 2
Back
Fore
SplineSet
288 25 m 2,0,1
 278 -61 278 -61 235.5 -100 c 128,-1,2
 193 -139 193 -139 109 -139 c 0,3,4
 17 -139 17 -139 17 -97 c 0,5,6
 17 -83 17 -83 26 -73 c 128,-1,7
 35 -63 35 -63 47 -63 c 128,-1,8
 59 -63 59 -63 86 -69 c 128,-1,9
 113 -75 113 -75 129 -75 c 0,10,11
 175 -75 175 -75 193.5 -45.5 c 128,-1,12
 212 -16 212 -16 220 53 c 2,13,-1
 254 342 l 1,14,-1
 176 342 l 2,15,16
 149 342 149 342 149 367 c 0,17,18
 149 397 149 397 191 397 c 2,19,-1
 259 397 l 1,20,-1
 269 471 l 2,21,22
 280 555 280 555 321.5 593.5 c 128,-1,23
 363 632 363 632 446 632 c 0,24,25
 541 632 541 632 541 589 c 0,26,27
 541 577 541 577 532 568 c 128,-1,28
 523 559 523 559 512 559 c 0,29,30
 509 559 509 559 485 566 c 128,-1,31
 461 573 461 573 439 573 c 0,32,33
 388 573 388 573 367 547.5 c 128,-1,34
 346 522 346 522 339 461 c 2,35,-1
 331 397 l 1,36,-1
 402 397 l 2,37,38
 425 397 425 397 435 392 c 128,-1,39
 445 387 445 387 445 370 c 0,40,41
 445 354 445 354 434 348 c 128,-1,42
 423 342 423 342 399 342 c 2,43,-1
 325 342 l 1,44,-1
 288 25 l 2,0,1
EndSplineSet
EndChar
StartChar: circumflex
Encoding: 710 710 128
Width: 602
Flags: W
LayerCount: 2
Back
Fore
SplineSet
301 587 m 1,0,-1
 160 512 l 2,1,2
 157 510 157 510 151 510 c 0,3,4
 144 510 144 510 138.5 515 c 128,-1,5
 133 520 133 520 133 528 c 128,-1,6
 133 536 133 536 139 541 c 2,7,-1
 274 647 l 2,8,9
 285 657 285 657 301 657 c 128,-1,10
 317 657 317 657 328 647 c 2,11,-1
 463 541 l 2,12,13
 469 536 469 536 469 528 c 128,-1,14
 469 520 469 520 463.5 515 c 128,-1,15
 458 510 458 510 451 510 c 0,16,17
 445 510 445 510 442 512 c 2,18,-1
 301 587 l 1,0,-1
EndSplineSet
EndChar
StartChar: caron
Encoding: 711 711 138
Width: 602
Flags: W
LayerCount: 2
Back
Fore
SplineSet
301 581 m 1,0,-1
 441 656 l 2,1,2
 444 658 444 658 450 658 c 0,3,4
 469 658 469 658 469 640 c 0,5,6
 469 632 469 632 463 628 c 2,7,-1
 328 521 l 2,8,9
 317 511 317 511 301 511 c 0,10,11
 287 511 287 511 274 521 c 2,12,-1
 139 628 l 2,13,14
 133 632 133 632 133 640 c 256,15,16
 133 648 133 648 138.5 653 c 128,-1,17
 144 658 144 658 151 658 c 0,18,19
 157 658 157 658 160 656 c 2,20,-1
 301 581 l 1,0,-1
EndSplineSet
EndChar
StartChar: breve
Encoding: 728 728 131
Width: 602
Flags: W
LayerCount: 2
Back
Fore
SplineSet
301 529 m 128,-1,1
 216 529 216 529 165 564 c 128,-1,2
 114 599 114 599 114 641 c 0,3,4
 114 661 114 661 128 661 c 128,-1,5
 142 661 142 661 157 641.5 c 128,-1,6
 172 622 172 622 180 616 c 0,7,8
 216 591 216 591 301 591 c 0,9,10
 385 591 385 591 421 616 c 0,11,12
 429 622 429 622 444.5 641.5 c 128,-1,13
 460 661 460 661 474 661 c 128,-1,14
 488 661 488 661 488 641 c 0,15,16
 488 599 488 599 437 564 c 128,-1,0
 386 529 386 529 301 529 c 128,-1,1
EndSplineSet
EndChar
StartChar: dotaccent
Encoding: 729 729 132
Width: 602
Flags: W
LayerCount: 2
Back
Fore
SplineSet
239 589 m 0,0,1
 239 613 239 613 257.5 632 c 128,-1,2
 276 651 276 651 301 651 c 128,-1,3
 326 651 326 651 344.5 632.5 c 128,-1,4
 363 614 363 614 363 589 c 0,5,6
 363 562 363 562 345 544.5 c 128,-1,7
 327 527 327 527 301 527 c 128,-1,8
 275 527 275 527 257 545 c 128,-1,9
 239 563 239 563 239 589 c 0,0,1
EndSplineSet
EndChar
StartChar: ring
Encoding: 730 730 134
Width: 602
Flags: W
LayerCount: 2
Back
Fore
SplineSet
178 624 m 0,0,1
 178 675 178 675 213.5 711 c 128,-1,2
 249 747 249 747 301 747 c 128,-1,3
 353 747 353 747 389 711.5 c 128,-1,4
 425 676 425 676 425 624 c 128,-1,5
 425 572 425 572 389 536 c 128,-1,6
 353 500 353 500 301 500 c 128,-1,7
 249 500 249 500 213.5 536 c 128,-1,8
 178 572 178 572 178 624 c 0,0,1
235 623 m 0,9,10
 235 595 235 595 254 576 c 128,-1,11
 273 557 273 557 301 557 c 0,12,13
 328 557 328 557 347.5 576 c 128,-1,14
 367 595 367 595 367 623 c 0,15,16
 367 650 367 650 347.5 669.5 c 128,-1,17
 328 689 328 689 301 689 c 0,18,19
 273 689 273 689 254 669.5 c 128,-1,20
 235 650 235 650 235 623 c 0,9,10
EndSplineSet
EndChar
StartChar: ogonek
Encoding: 731 731 137
Width: 602
Flags: W
LayerCount: 2
Back
Fore
SplineSet
405 15 m 1,0,1
 361 -21 361 -21 340.5 -51 c 128,-1,2
 320 -81 320 -81 320 -114 c 0,3,4
 320 -168 320 -168 366 -168 c 0,5,6
 386 -168 386 -168 404 -152.5 c 128,-1,7
 422 -137 422 -137 423 -137 c 0,8,9
 434 -137 434 -137 434 -146 c 0,10,11
 434 -165 434 -165 401.5 -194 c 128,-1,12
 369 -223 369 -223 325 -223 c 0,13,14
 290 -223 290 -223 269 -203 c 128,-1,15
 248 -183 248 -183 248 -150 c 0,16,17
 248 -67 248 -67 379 15 c 1,18,-1
 405 15 l 1,0,1
EndSplineSet
EndChar
StartChar: tilde
Encoding: 732 732 129
Width: 602
Flags: W
LayerCount: 2
Back
Fore
SplineSet
350 609 m 2,0,1
 380 602 380 602 391 602 c 0,2,3
 413 602 413 602 431.5 619 c 128,-1,4
 450 636 450 636 459 636 c 0,5,6
 477 636 477 636 477 617 c 0,7,8
 477 595 477 595 445 568.5 c 128,-1,9
 413 542 413 542 366 542 c 0,10,11
 341 542 341 542 307 550 c 2,12,-1
 251 565 l 2,13,14
 230 571 230 571 210 571 c 0,15,16
 188 571 188 571 169.5 554.5 c 128,-1,17
 151 538 151 538 142 538 c 0,18,19
 124 538 124 538 124 556 c 0,20,21
 124 578 124 578 156.5 604.5 c 128,-1,22
 189 631 189 631 236 631 c 0,23,24
 262 631 262 631 294 623 c 2,25,-1
 350 609 l 2,0,1
EndSplineSet
EndChar
StartChar: hungarumlaut
Encoding: 733 733 136
Width: 602
Flags: W
LayerCount: 2
Back
Fore
SplineSet
169 527 m 1,0,-1
 308 649 l 2,1,2
 321 660 321 660 327 660 c 0,3,4
 338 660 338 660 344 652 c 2,5,-1
 365 625 l 2,6,7
 370 618 370 618 370 612 c 0,8,9
 370 601 370 601 358 595 c 2,10,-1
 188 505 l 1,11,-1
 169 527 l 1,0,-1
333 527 m 1,12,-1
 472 649 l 2,13,14
 485 660 485 660 491 660 c 0,15,16
 502 660 502 660 508 652 c 2,17,-1
 530 625 l 2,18,19
 534 620 534 620 534 612 c 0,20,21
 534 601 534 601 522 595 c 2,22,-1
 352 505 l 1,23,-1
 333 527 l 1,12,-1
EndSplineSet
EndChar
StartChar: endash
Encoding: 8211 8211 113
Width: 602
Flags: W
LayerCount: 2
Back
Fore
SplineSet
602 266 m 2,0,1
 625 266 625 266 625 246 c 2,2,-1
 625 208 l 2,3,4
 625 198 625 198 618 191.5 c 128,-1,5
 611 185 611 185 602 185 c 2,6,-1
 0 185 l 2,7,8
 -22 185 -22 185 -22 208 c 2,9,-1
 -22 246 l 2,10,11
 -22 266 -22 266 0 266 c 2,12,-1
 602 266 l 2,0,1
EndSplineSet
EndChar
StartChar: emdash
Encoding: 8212 8212 139
Width: 602
Flags: W
LayerCount: 2
Back
Fore
SplineSet
602 266 m 2,0,1
 625 266 625 266 625 246 c 2,2,-1
 625 208 l 2,3,4
 625 199 625 199 618 192 c 128,-1,5
 611 185 611 185 602 185 c 2,6,-1
 0 185 l 2,7,8
 -22 185 -22 185 -22 208 c 2,9,-1
 -22 246 l 2,10,11
 -22 254 -22 254 -16 260 c 128,-1,12
 -10 266 -10 266 0 266 c 2,13,-1
 602 266 l 2,0,1
EndSplineSet
EndChar
StartChar: quoteleft
Encoding: 8216 8216 67
Width: 602
Flags: W
LayerCount: 2
Back
Fore
SplineSet
337 356 m 2,0,1
 334 343 334 343 329.5 338.5 c 128,-1,2
 325 334 325 334 312 334 c 2,3,-1
 224 334 l 2,4,5
 211 334 211 334 211 343 c 0,6,7
 211 346 211 346 214 354 c 2,8,-1
 324 582 l 2,9,10
 332 596 332 596 342 596 c 0,11,12
 344 596 344 596 350 594 c 2,13,-1
 378 583 l 2,14,15
 391 578 391 578 391 568 c 0,16,17
 391 566 391 566 389 558 c 2,18,-1
 337 356 l 2,0,1
EndSplineSet
EndChar
StartChar: quoteright
Encoding: 8217 8217 10
Width: 602
Flags: W
LayerCount: 2
Back
Fore
SplineSet
269 557 m 2,0,1
 272 570 272 570 276.5 574.5 c 128,-1,2
 281 579 281 579 294 579 c 2,3,-1
 382 579 l 2,4,5
 395 579 395 579 395 570 c 0,6,7
 395 564 395 564 392 559 c 2,8,-1
 282 331 l 2,9,10
 276 318 276 318 264 318 c 0,11,12
 259 318 259 318 256 319 c 2,13,-1
 228 330 l 2,14,15
 215 334 215 334 215 344 c 0,16,17
 215 347 215 347 217 355 c 2,18,-1
 269 557 l 2,0,1
EndSplineSet
EndChar
StartChar: quotesinglbase
Encoding: 8218 8218 119
Width: 602
Flags: W
LayerCount: 2
Back
Fore
SplineSet
253 93 m 2,0,1
 256 106 256 106 261 110.5 c 128,-1,2
 266 115 266 115 279 115 c 2,3,-1
 367 115 l 2,4,5
 380 115 380 115 380 106 c 0,6,7
 380 102 380 102 377 95 c 2,8,-1
 267 -133 l 2,9,10
 261 -146 261 -146 249 -146 c 0,11,12
 244 -146 244 -146 241 -145 c 2,13,-1
 213 -134 l 2,14,15
 200 -129 200 -129 200 -119 c 0,16,17
 200 -113 200 -113 201 -109 c 2,18,-1
 253 93 l 2,0,1
EndSplineSet
EndChar
StartChar: quotedblleft
Encoding: 8220 8220 107
Width: 602
Flags: W
LayerCount: 2
Back
Fore
SplineSet
231 363 m 2,0,1
 228 350 228 350 223.5 346 c 128,-1,2
 219 342 219 342 206 342 c 2,3,-1
 121 342 l 2,4,5
 108 342 108 342 108 350 c 0,6,7
 108 354 108 354 111 361 c 2,8,-1
 218 582 l 2,9,10
 226 596 226 596 235 596 c 0,11,12
 237 596 237 596 243 594 c 2,13,-1
 270 584 l 2,14,15
 283 579 283 579 283 569 c 0,16,17
 283 565 283 565 281 559 c 2,18,-1
 231 363 l 2,0,1
423 363 m 2,19,20
 420 350 420 350 415 346 c 128,-1,21
 410 342 410 342 397 342 c 2,22,-1
 312 342 l 2,23,24
 300 342 300 342 300 350 c 0,25,26
 300 354 300 354 303 361 c 2,27,-1
 410 582 l 2,28,29
 418 596 418 596 426 596 c 0,30,31
 428 596 428 596 434 594 c 2,32,-1
 462 584 l 2,33,34
 474 580 474 580 474 569 c 0,35,36
 474 562 474 562 473 559 c 2,37,-1
 423 363 l 2,19,20
EndSplineSet
EndChar
StartChar: quotedblright
Encoding: 8221 8221 121
Width: 602
Flags: W
LayerCount: 2
Back
Fore
SplineSet
366 558 m 2,0,1
 369 571 369 571 373.5 575 c 128,-1,2
 378 579 378 579 391 579 c 2,3,-1
 476 579 l 2,4,5
 489 579 489 579 489 570 c 0,6,7
 489 569 489 569 485 559 c 2,8,-1
 378 338 l 2,9,10
 372 325 372 325 362 325 c 0,11,12
 360 325 360 325 354 327 c 2,13,-1
 327 337 l 2,14,15
 314 342 314 342 314 351 c 0,16,17
 314 358 314 358 315 361 c 2,18,-1
 366 558 l 2,0,1
174 558 m 2,19,20
 177 571 177 571 181.5 575 c 128,-1,21
 186 579 186 579 199 579 c 2,22,-1
 284 579 l 2,23,24
 297 579 297 579 297 570 c 0,25,26
 297 566 297 566 294 559 c 2,27,-1
 187 338 l 2,28,29
 181 325 181 325 170 325 c 0,30,31
 168 325 168 325 162 327 c 2,32,-1
 135 337 l 2,33,34
 122 342 122 342 122 351 c 0,35,36
 122 355 122 355 124 361 c 2,37,-1
 174 558 l 2,19,20
EndSplineSet
EndChar
StartChar: quotedblbase
Encoding: 8222 8222 120
Width: 602
Flags: W
LayerCount: 2
Back
Fore
SplineSet
358 94 m 2,0,1
 361 107 361 107 365.5 111 c 128,-1,2
 370 115 370 115 383 115 c 2,3,-1
 468 115 l 2,4,5
 481 115 481 115 481 107 c 0,6,7
 481 104 481 104 478 96 c 2,8,-1
 371 -126 l 2,9,10
 365 -139 365 -139 354 -139 c 0,11,12
 352 -139 352 -139 346 -137 c 2,13,-1
 319 -127 l 2,14,15
 306 -122 306 -122 306 -112 c 0,16,17
 306 -108 306 -108 308 -102 c 2,18,-1
 358 94 l 2,0,1
166 94 m 2,19,20
 169 107 169 107 173.5 111 c 128,-1,21
 178 115 178 115 191 115 c 2,22,-1
 277 115 l 2,23,24
 289 115 289 115 289 107 c 0,25,26
 289 104 289 104 286 96 c 2,27,-1
 179 -126 l 2,28,29
 173 -139 173 -139 163 -139 c 0,30,31
 161 -139 161 -139 155 -137 c 2,32,-1
 127 -127 l 2,33,34
 115 -123 115 -123 115 -112 c 0,35,36
 115 -105 115 -105 116 -102 c 2,37,-1
 166 94 l 2,19,20
EndSplineSet
EndChar
StartChar: dagger
Encoding: 8224 8224 114
Width: 602
Flags: W
LayerCount: 2
Back
Fore
SplineSet
451 448 m 2,0,1
 462 448 462 448 471.5 438.5 c 128,-1,2
 481 429 481 429 481 417 c 0,3,4
 481 404 481 404 472 395.5 c 128,-1,5
 463 387 463 387 451 387 c 2,6,-1
 335 387 l 1,7,-1
 335 23 l 2,8,9
 335 6 335 6 326 -4 c 128,-1,10
 317 -14 317 -14 301 -14 c 0,11,12
 268 -14 268 -14 268 23 c 2,13,-1
 268 387 l 1,14,-1
 151 387 l 2,15,16
 139 387 139 387 130 395.5 c 128,-1,17
 121 404 121 404 121 417 c 128,-1,18
 121 430 121 430 130.5 439 c 128,-1,19
 140 448 140 448 151 448 c 2,20,-1
 268 448 l 1,21,-1
 268 557 l 2,22,23
 268 595 268 595 301 595 c 0,24,25
 316 595 316 595 325.5 584.5 c 128,-1,26
 335 574 335 574 335 557 c 2,27,-1
 335 448 l 1,28,-1
 451 448 l 2,0,1
EndSplineSet
EndChar
StartChar: daggerdbl
Encoding: 8225 8225 115
Width: 602
Flags: W
LayerCount: 2
Back
Fore
SplineSet
451 447 m 2,0,1
 463 447 463 447 472 438 c 128,-1,2
 481 429 481 429 481 417 c 0,3,4
 481 404 481 404 472 395.5 c 128,-1,5
 463 387 463 387 451 387 c 2,6,-1
 335 387 l 1,7,-1
 335 197 l 1,8,-1
 451 197 l 2,9,10
 463 197 463 197 472 188.5 c 128,-1,11
 481 180 481 180 481 168 c 128,-1,12
 481 156 481 156 471.5 146.5 c 128,-1,13
 462 137 462 137 451 137 c 2,14,-1
 335 137 l 1,15,-1
 335 23 l 2,16,17
 335 6 335 6 326 -4.5 c 128,-1,18
 317 -15 317 -15 301 -15 c 0,19,20
 286 -15 286 -15 276.5 -4.5 c 128,-1,21
 267 6 267 6 267 23 c 2,22,-1
 267 137 l 1,23,-1
 151 137 l 2,24,25
 140 137 140 137 131 146.5 c 128,-1,26
 122 156 122 156 122 168 c 0,27,28
 122 181 122 181 130.5 189 c 128,-1,29
 139 197 139 197 151 197 c 2,30,-1
 267 197 l 1,31,-1
 267 387 l 1,32,-1
 151 387 l 2,33,34
 139 387 139 387 130 395.5 c 128,-1,35
 121 404 121 404 121 417 c 0,36,37
 121 429 121 429 130 438 c 128,-1,38
 139 447 139 447 151 447 c 2,39,-1
 267 447 l 1,40,-1
 267 557 l 2,41,42
 267 574 267 574 276.5 584.5 c 128,-1,43
 286 595 286 595 301 595 c 128,-1,44
 316 595 316 595 325.5 584.5 c 128,-1,45
 335 574 335 574 335 557 c 2,46,-1
 335 447 l 1,47,-1
 451 447 l 2,0,1
EndSplineSet
EndChar
StartChar: ellipsis
Encoding: 8230 8230 123
Width: 602
Flags: W
LayerCount: 2
Back
Fore
SplineSet
232 53 m 0,0,1
 232 82 232 82 252 102 c 128,-1,2
 272 122 272 122 300 122 c 128,-1,3
 328 122 328 122 348.5 102 c 128,-1,4
 369 82 369 82 369 53 c 128,-1,5
 369 24 369 24 349 4.5 c 128,-1,6
 329 -15 329 -15 300 -15 c 0,7,8
 272 -15 272 -15 252 5 c 128,-1,9
 232 25 232 25 232 53 c 0,0,1
433 53 m 0,10,11
 433 82 433 82 453 102 c 128,-1,12
 473 122 473 122 501 122 c 0,13,14
 530 122 530 122 550 102 c 128,-1,15
 570 82 570 82 570 53 c 128,-1,16
 570 24 570 24 550 4.5 c 128,-1,17
 530 -15 530 -15 501 -15 c 0,18,19
 473 -15 473 -15 453 5 c 128,-1,20
 433 25 433 25 433 53 c 0,10,11
31 53 m 0,21,22
 31 82 31 82 51 102 c 128,-1,23
 71 122 71 122 99 122 c 0,24,25
 128 122 128 122 148 102 c 128,-1,26
 168 82 168 82 168 53 c 128,-1,27
 168 24 168 24 148 4.5 c 128,-1,28
 128 -15 128 -15 99 -15 c 0,29,30
 71 -15 71 -15 51 5 c 128,-1,31
 31 25 31 25 31 53 c 0,21,22
EndSplineSet
EndChar
StartChar: guilsinglleft
Encoding: 8249 8249 109
Width: 602
Flags: W
LayerCount: 2
Back
Fore
SplineSet
302 225 m 1,0,-1
 366 89 l 2,1,2
 370 79 370 79 370 74 c 0,3,4
 370 61 370 61 361.5 53 c 128,-1,5
 353 45 353 45 341 45 c 0,6,7
 323 45 323 45 314 62 c 2,8,-1
 239 203 l 2,9,10
 232 216 232 216 232 225 c 0,11,12
 232 235 232 235 239 248 c 2,13,-1
 314 389 l 2,14,15
 324 406 324 406 341 406 c 0,16,17
 353 406 353 406 361.5 398 c 128,-1,18
 370 390 370 390 370 377 c 0,19,20
 370 372 370 372 366 362 c 2,21,-1
 302 225 l 1,0,-1
EndSplineSet
EndChar
StartChar: guilsinglright
Encoding: 8250 8250 110
Width: 602
Flags: W
LayerCount: 2
Back
Fore
SplineSet
300 225 m 1,0,-1
 235 362 l 2,1,2
 232 370 232 370 232 377 c 0,3,4
 232 390 232 390 240 398 c 128,-1,5
 248 406 248 406 260 406 c 0,6,7
 277 406 277 406 287 388 c 2,8,-1
 362 248 l 2,9,10
 369 235 369 235 369 225 c 0,11,12
 369 216 369 216 362 203 c 2,13,-1
 287 62 l 2,14,15
 277 45 277 45 260 45 c 0,16,17
 248 45 248 45 240 53 c 128,-1,18
 232 61 232 61 232 74 c 0,19,20
 232 82 232 82 235 89 c 2,21,-1
 300 225 l 1,0,-1
EndSplineSet
EndChar
StartChar: trademark
Encoding: 8482 8482 208
Width: 602
Flags: W
LayerCount: 2
Back
Fore
SplineSet
420 485 m 1,0,-1
 450 592 l 2,1,2
 456 615 456 615 482 615 c 2,3,-1
 514 615 l 2,4,5
 538 615 538 615 538 589 c 0,6,7
 538 568 538 568 516 563 c 1,8,-1
 521 391 l 1,9,10
 547 388 547 388 547 364 c 0,11,12
 547 352 547 352 540 344.5 c 128,-1,13
 533 337 533 337 522 337 c 2,14,-1
 469 337 l 2,15,16
 437 337 437 337 437 364 c 128,-1,17
 437 391 437 391 469 391 c 2,18,19
 469 391 469 391 473 391 c 1,20,-1
 473 529 l 1,21,-1
 448 437 l 2,22,23
 441 413 441 413 420 413 c 0,24,25
 398 413 398 413 391 437 c 2,26,-1
 366 529 l 1,27,-1
 366 391 l 1,28,29
 366 391 366 391 370 391 c 0,30,31
 403 391 403 391 403 364 c 128,-1,32
 403 337 403 337 372 337 c 2,33,-1
 319 337 l 2,34,35
 294 337 294 337 294 364 c 0,36,37
 294 388 294 388 319 391 c 1,38,-1
 324 563 l 1,39,40
 303 567 303 567 303 589 c 0,41,42
 303 615 303 615 327 615 c 2,43,-1
 358 615 l 2,44,45
 385 615 385 615 391 592 c 2,46,-1
 420 485 l 1,0,-1
108 517 m 2,47,48
 107 497 107 497 101.5 489 c 128,-1,49
 96 481 96 481 81 481 c 0,50,51
 57 481 57 481 57 514 c 2,52,53
 57 514 57 514 57 519 c 2,54,-1
 59 590 l 2,55,56
 59 616 59 616 85 616 c 2,57,-1
 250 616 l 2,58,59
 274 616 274 616 276 590 c 2,60,-1
 279 519 l 1,61,62
 279 519 279 519 279 506 c 0,63,64
 279 495 279 495 272 488 c 128,-1,65
 265 481 265 481 254 481 c 0,66,67
 239 481 239 481 234 489 c 128,-1,68
 229 497 229 497 228 517 c 2,69,-1
 226 562 l 1,70,-1
 194 562 l 1,71,-1
 194 391 l 1,72,-1
 212 391 l 2,73,74
 230 391 230 391 238 385 c 128,-1,75
 246 379 246 379 246 364 c 0,76,77
 246 353 246 353 239 345 c 128,-1,78
 232 337 232 337 221 337 c 2,79,-1
 114 337 l 2,80,81
 103 337 103 337 96 344.5 c 128,-1,82
 89 352 89 352 89 364 c 0,83,84
 89 379 89 379 97 385 c 128,-1,85
 105 391 105 391 124 391 c 2,86,-1
 141 391 l 1,87,-1
 141 562 l 1,88,-1
 109 562 l 1,89,-1
 108 517 l 2,47,48
EndSplineSet
EndChar
StartChar: minus
Encoding: 8722 8722 212
Width: 602
Flags: W
LayerCount: 2
Back
Fore
SplineSet
97 262 m 2,0,1
 76 262 76 262 76 284 c 2,2,-1
 76 334 l 2,3,4
 76 353 76 353 97 353 c 2,5,-1
 502 353 l 2,6,7
 525 353 525 353 525 334 c 2,8,-1
 525 284 l 2,9,10
 525 276 525 276 518.5 269 c 128,-1,11
 512 262 512 262 502 262 c 2,12,-1
 97 262 l 2,0,1
EndSplineSet
EndChar
StartChar: fi
Encoding: 64257 64257 111
Width: 602
Flags: W
LayerCount: 2
Back
Fore
SplineSet
260 68 m 2,0,1
 301 68 301 68 301 35 c 0,2,3
 301 0 301 0 262 0 c 2,4,-1
 44 0 l 2,5,6
 3 0 3 0 3 35 c 0,7,8
 3 68 3 68 42 68 c 2,9,-1
 113 68 l 1,10,-1
 113 380 l 1,11,-1
 66 380 l 2,12,13
 29 380 29 380 14 388 c 128,-1,14
 -1 396 -1 396 -1 417 c 0,15,16
 -1 450 -1 450 38 450 c 2,17,-1
 109 450 l 1,18,-1
 109 480 l 2,19,20
 109 558 109 558 157.5 599 c 128,-1,21
 206 640 206 640 294 640 c 0,22,23
 337 640 337 640 356.5 629 c 128,-1,24
 376 618 376 618 376 592 c 0,25,26
 376 576 376 576 366.5 565.5 c 128,-1,27
 357 555 357 555 344 555 c 0,28,29
 337 555 337 555 311 561 c 128,-1,30
 285 567 285 567 267 567 c 0,31,32
 185 567 185 567 185 472 c 0,33,34
 185 458 185 458 186 450 c 1,35,-1
 276 450 l 2,36,37
 317 450 317 450 317 417 c 0,38,39
 317 380 317 380 273 380 c 2,40,-1
 187 380 l 1,41,-1
 187 68 l 1,42,-1
 260 68 l 2,0,1
511 69 m 1,43,-1
 566 69 l 2,44,45
 602 69 602 69 602 35 c 0,46,47
 602 15 602 15 593 7.5 c 128,-1,48
 584 0 584 0 562 0 c 2,49,-1
 374 0 l 2,50,51
 334 0 334 0 334 35 c 0,52,53
 334 69 334 69 375 69 c 2,54,-1
 437 69 l 1,55,-1
 437 382 l 1,56,-1
 415 382 l 1,57,-1
 390 382 l 2,58,59
 344 382 344 382 344 417 c 0,60,61
 344 451 344 451 383 451 c 2,62,-1
 483 451 l 2,63,64
 511 451 511 451 511 431 c 2,65,-1
 511 69 l 1,43,-1
421 592 m 0,66,67
 421 642 421 642 430 657 c 128,-1,68
 439 672 439 672 472 672 c 0,69,70
 504 672 504 672 512.5 659 c 128,-1,71
 521 646 521 646 521 606 c 128,-1,72
 521 566 521 566 513 555 c 128,-1,73
 505 544 505 544 471 544 c 0,74,75
 440 544 440 544 430.5 553 c 128,-1,76
 421 562 421 562 421 592 c 0,66,67
EndSplineSet
EndChar
StartChar: fl
Encoding: 64258 64258 112
Width: 602
Flags: W
LayerCount: 2
Back
Fore
SplineSet
260 69 m 2,0,1
 301 69 301 69 301 35 c 0,2,3
 301 0 301 0 262 0 c 2,4,-1
 44 0 l 2,5,6
 3 0 3 0 3 35 c 0,7,8
 3 69 3 69 42 69 c 2,9,-1
 113 69 l 1,10,-1
 113 381 l 1,11,-1
 45 381 l 2,12,13
 -1 381 -1 381 -1 417 c 0,14,15
 -1 451 -1 451 44 451 c 2,16,-1
 109 451 l 1,17,18
 109 451 109 451 109 480 c 0,19,20
 109 568 109 568 162.5 605 c 128,-1,21
 216 642 216 642 334 642 c 0,22,23
 349 642 349 642 375 640.5 c 128,-1,24
 401 639 401 639 411 639 c 2,25,-1
 483 639 l 2,26,27
 511 639 511 639 511 619 c 2,28,-1
 511 69 l 1,29,-1
 562 69 l 2,30,31
 583 69 583 69 592.5 61.5 c 128,-1,32
 602 54 602 54 602 35 c 0,33,34
 602 15 602 15 593 7.5 c 128,-1,35
 584 0 584 0 562 0 c 2,36,-1
 374 0 l 2,37,38
 334 0 334 0 334 35 c 0,39,40
 334 69 334 69 375 69 c 2,41,-1
 437 69 l 1,42,-1
 437 569 l 1,43,-1
 375 569 l 2,44,45
 368 569 368 569 356 567.5 c 128,-1,46
 344 566 344 566 339 566 c 0,47,48
 327 566 327 566 305.5 570 c 128,-1,49
 284 574 284 574 274 574 c 0,50,51
 233 574 233 574 209 547 c 128,-1,52
 185 520 185 520 185 472 c 0,53,54
 185 458 185 458 186 451 c 1,55,-1
 263 451 l 2,56,57
 292 451 292 451 304.5 444 c 128,-1,58
 317 437 317 437 317 417 c 0,59,60
 317 381 317 381 272 381 c 2,61,-1
 187 381 l 1,62,-1
 187 69 l 1,63,-1
 260 69 l 2,0,1
EndSplineSet
EndChar
